<?xml version="1.0" encoding="utf-8"?>
<!-- Generator: Adobe Illustrator 27.2.0, SVG Export Plug-In . SVG Version: 6.00 Build 0)  -->
<svg version="1.1" id="Layer_1" xmlns="http://www.w3.org/2000/svg" xmlns:xlink="http://www.w3.org/1999/xlink" x="0px" y="0px"
	 viewBox="0 0 321.8 282.2" style="enable-background:new 0 0 321.8 282.2;" xml:space="preserve">
<style type="text/css">
	.st0{fill:#CCCCCC;}
	.st1{fill:#FFFFFF;}
</style>
<g>
	<g>
		<g>
			<g>
				<path class="st0" d="M200.2,194.4c-43.1,48.4-102.3,66-132.1,39.4c-29.8-26.6-19-87.4,24.2-135.7c43.1-48.4,102.3-66,132.1-39.4
					C254.2,85.3,243.3,146,200.2,194.4z M181.7,124.7c-13.3,14.9-17,33.2-8.3,41s26.5,2,39.8-12.9c13.3-14.9,17-33.2,8.3-41
					C212.8,104,195,109.8,181.7,124.7z M124.4,78.9c-11.9,13.3-16.1,29-9.3,35c6.7,6,21.9,0.1,33.8-13.2c11.9-13.3,16.1-29,9.3-35
					C151.4,59.7,136.2,65.6,124.4,78.9z M101.3,154c11.9-13.3,16.1-29,9.3-35c-6.7-6-21.9-0.1-33.8,13.2c-11.9,13.3-16.1,29-9.3,35
					C74.3,173.2,89.4,167.3,101.3,154z M104.9,207.2c12.3-13.8,16-30.7,8.1-37.7c-7.8-7-24.2-1.5-36.6,12.4
					c-12.3,13.8-16,30.7-8.1,37.7C76.2,226.6,92.5,221,104.9,207.2z M202.1,98.2c12.3-13.8,16-30.7,8.1-37.7
					c-7.8-7-24.2-1.5-36.6,12.4c-12.3,13.8-16,30.7-8.1,37.7C173.4,117.6,189.7,112.1,202.1,98.2z M160.3,212
					c13.3-14.9,17-33.2,8.3-41c-8.7-7.8-26.5-2-39.8,12.9c-13.3,14.9-17,33.2-8.3,41C129.2,232.7,147,226.9,160.3,212z"/>
				<path class="st0" d="M201.6,195.6c43.7-49,54.5-111.1,24-138.3c-14.9-13.3-37.2-16.4-62.8-8.8c-25.3,7.5-50.8,24.7-71.9,48.3
					c-21.1,23.6-35.2,51-39.9,76.9c-4.7,26.3,1,48.1,15.9,61.4c6.1,5.5,13.4,9.1,21.6,11.1C120.9,254,166.6,234.8,201.6,195.6z
					 M223.1,60c29,25.9,18.1,85.6-24.3,133.2c-34.1,38.2-78.3,57.1-109.4,49.6c-7.6-1.8-14.4-5.2-20.2-10.3
					c-13.9-12.4-19.2-33-14.7-58c4.5-25.3,18.4-52,39-75.1c20.6-23.1,45.6-39.9,70.2-47.3c14.5-4.3,27.8-5.1,39.1-2.3
					C210.7,51.5,217.5,55,223.1,60z M85.5,222.9c7.2-2.4,14.6-7.6,20.7-14.5c6.2-6.9,10.5-14.8,12.1-22.3c1.7-7.8,0.2-14.2-4.1-18
					c-4.3-3.8-10.8-4.5-18.4-2c-7.2,2.4-14.6,7.6-20.7,14.5c-6.2,6.9-10.5,14.8-12.1,22.3c-1.7,7.8-0.2,14.2,4.1,18
					c1.7,1.5,3.7,2.5,5.9,3C76.6,224.8,80.9,224.5,85.5,222.9z M111.8,170.8c3.3,2.9,4.3,8.1,2.9,14.6c-1.5,6.8-5.5,14.1-11.2,20.6
					c-5.8,6.5-12.6,11.3-19.2,13.5c-6.3,2.1-11.5,1.7-14.8-1.3l0,0c-3.3-2.9-4.3-8.1-2.9-14.6c1.5-6.8,5.5-14.1,11.2-20.6
					c5.8-6.5,12.6-11.3,19.2-13.5c4-1.3,7.5-1.7,10.5-1C109.2,169,110.6,169.7,111.8,170.8z M161.6,213.2
					c14.2-15.9,17.7-35,8.2-43.5c-9.6-8.5-28.2-2.8-42.3,13c-14.2,15.9-17.7,35-8.2,43.5l0,0c1.9,1.7,4.2,2.8,6.7,3.4
					C136.1,232.1,150.3,225.9,161.6,213.2z M121.7,223.5c-7.9-7.1-4.1-24.3,8.4-38.4c12.6-14.1,29.3-19.8,37.2-12.8
					c7.9,7.1,4.1,24.3-8.4,38.4C146.3,224.9,129.7,230.6,121.7,223.5L121.7,223.5z M102.7,155.2c5.9-6.7,10.2-14.1,12-21
					c1.9-7.3,0.9-13.2-2.9-16.6c-7.6-6.8-23.6-0.9-36.3,13.4c-5.9,6.7-10.2,14.1-12,21c-1.9,7.3-0.9,13.2,2.9,16.6l0,0
					c1.3,1.2,2.9,2,4.8,2.4C79.5,173,92.2,166.9,102.7,155.2z M68.8,165.8c-2.7-2.4-3.3-7.1-1.8-13c1.7-6.3,5.7-13.3,11.2-19.5
					c11-12.3,25.3-18.3,31.2-13.1c2.7,2.4,3.3,7.1,1.8,13c-1.7,6.3-5.7,13.3-11.2,19.5C89,165.1,74.7,171.1,68.8,165.8L68.8,165.8z
					 M214.5,153.9c6.6-7.4,11.2-16,12.8-24c1.7-8.4,0-15.3-4.7-19.5c-9.6-8.5-28.2-2.8-42.3,13c-6.6,7.4-11.2,16-12.8,24
					c-1.7,8.4,0,15.3,4.7,19.5c1.9,1.7,4.2,2.8,6.7,3.4C189,172.9,203.2,166.6,214.5,153.9z M220.3,113.1c3.7,3.3,4.9,9,3.5,16.1
					c-1.5,7.4-5.8,15.4-12,22.3c-12.6,14.1-29.3,19.8-37.2,12.7c-3.7-3.3-4.9-9-3.5-16.1c1.5-7.4,5.8-15.4,12-22.3
					c10.3-11.5,23.3-17.5,32.1-15.4C217.1,111,218.8,111.8,220.3,113.1z M150.2,102c12.8-14.3,16.8-30.8,9.2-37.6l0,0
					c-7.6-6.8-23.6-0.9-36.3,13.4c-12.8,14.3-16.8,30.8-9.2,37.6c1.3,1.2,2.9,2,4.8,2.4C127,119.8,139.7,113.7,150.2,102z
					 M156.9,67.1c5.9,5.3,1.6,20.1-9.5,32.5c-11,12.3-25.3,18.3-31.2,13.1c-5.9-5.3-1.6-20.1,9.5-32.5c9.3-10.5,21-16.4,28-14.7
					C154.9,65.7,156,66.3,156.9,67.1z M182.7,114c7.2-2.4,14.6-7.6,20.7-14.5c13.2-14.8,16.7-32.5,8-40.3
					c-8.7-7.8-25.9-2.3-39.1,12.5c-6.2,6.9-10.5,14.8-12.1,22.3c-1.7,7.8-0.2,14.2,4.1,18c1.7,1.5,3.7,2.5,5.9,3
					C173.8,115.9,178,115.5,182.7,114z M209,61.9c7,6.2,3.2,22.3-8.3,35.2c-5.8,6.5-12.6,11.3-19.2,13.5c-6.3,2.1-11.5,1.7-14.8-1.3
					l0,0c-3.3-2.9-4.3-8.1-2.9-14.6c1.5-6.8,5.5-14.1,11.2-20.6c9.5-10.6,21.8-16.3,29.7-14.4C206.4,60.1,207.8,60.8,209,61.9z"/>
			</g>
			<g>
				<path class="st1" d="M66.3,230c4.8,4,10.3,7,16.2,9c5.9,1.9,12.1,2.7,18.2,2.8c12.4,0.1,24.6-3,36-7.6
					c5.7-2.3,11.3-5.1,16.6-8.1c5.4-3.1,10.5-6.5,15.5-10.2c10-7.3,19.1-15.8,27.3-25c8.2-9.2,15.6-19.2,21.8-30
					c3.1-5.3,5.9-10.9,8.4-16.5c2.4-5.7,4.5-11.5,6.2-17.5c3.3-11.9,5-24.4,3.5-36.6c-0.7-6.1-2.3-12.2-4.8-17.8
					c-2.6-5.6-6.3-10.8-10.8-15.1c4.7,4.1,8.7,9.1,11.5,14.7c2.8,5.6,4.6,11.7,5.6,18c1,6.2,1,12.6,0.5,18.8
					c-0.5,6.3-1.6,12.5-3.2,18.6c-3.1,12.2-8.2,23.9-14.3,34.8c-6.2,11-13.7,21.1-22,30.6c-8.4,9.3-17.7,17.9-27.9,25.3
					c-10.2,7.4-21.2,13.7-33,18.2c-5.9,2.2-11.9,4.1-18.1,5.3c-6.2,1.2-12.5,1.9-18.8,1.6c-6.3-0.3-12.6-1.4-18.5-3.5
					C76.3,237.5,70.9,234.2,66.3,230z"/>
			</g>
		</g>
		<g>
			<path class="st0" d="M294.8,175.9c-59.4,10.1-102.4,53.5-130.6,63.8c2.5-27.5,25.3-65.9,28.2-104.3c0.9-1,1.6-1.9,2-2.6
				c1.8-3.3-0.1-15.4-2-23.1c-0.9-3.9-3-7.4-6-10l-8.5-7.6v0c-0.9-1.2-1.9-2.3-3.1-3.4l-18.5-16.5c-15.5-13.9-46.8-4.2-69.8,21.6
				c-23,25.8-29,57.9-13.5,71.8L91.4,182c13.8,12.3,40.1,6.1,62-13.7c-12.6,38.8-28,62-13.2,72l30.2,26c1.7,1.5,3.9,3.5,6.5,4.2
				c2.7,0.7,10.9,0.6,19.9-2.4c5.7-1.9,12-5.1,18.4-9.2c24.8-15.7,54.7-41.2,101.9-46.4C301.9,193.2,296,175.7,294.8,175.9z"/>
		</g>
		<g>
			<g>
				<path class="st1" d="M86.3,169.9c-1.1-0.2-2.2-0.4-3.2-0.7l2.8,2.5c0.9,0.1,1.8,0.2,2.8,0.3L86.3,169.9z"/>
			</g>
			<g>
				<path class="st1" d="M118,162.2c-0.7,0.4-1.4,0.8-2,1.1l1.5,1.3c0.7-0.4,1.4-0.7,2-1.1L118,162.2z"/>
			</g>
			<g>
				<path class="st1" d="M114.1,164.3c-0.7,0.3-1.4,0.7-2.1,1l1.5,1.3c0.7-0.3,1.4-0.7,2.1-1L114.1,164.3z"/>
			</g>
			<g>
				<path class="st1" d="M110.2,166.1c-0.7,0.3-1.4,0.6-2.1,0.8l1.6,1.4c0.7-0.3,1.4-0.6,2.1-0.9L110.2,166.1z"/>
			</g>
			<g>
				<path class="st1" d="M128.7,155c-0.6,0.5-1.3,1-1.9,1.5l1.4,1.3c0.6-0.5,1.3-1,1.9-1.5L128.7,155z"/>
			</g>
			<g>
				<path class="st1" d="M132,152.3c-0.6,0.5-1.2,1-1.9,1.6l1.4,1.3c0.6-0.5,1.2-1,1.8-1.6L132,152.3z"/>
			</g>
			<g>
				<path class="st1" d="M106,167.6c-0.5,0.2-0.9,0.3-1.4,0.5c-0.3,0.1-0.5,0.2-0.8,0.2l1.6,1.4c0.7-0.2,1.4-0.5,2.2-0.7L106,167.6z
					"/>
			</g>
			<g>
				<path class="st1" d="M135.2,149.4c-0.6,0.6-1.2,1.1-1.8,1.6l1.4,1.2c0.6-0.5,1.2-1.1,1.8-1.7L135.2,149.4z"/>
			</g>
			<g>
				<path class="st1" d="M125.2,157.6c-0.6,0.5-1.3,0.9-2,1.4l1.4,1.3c0.7-0.4,1.3-0.9,1.9-1.4L125.2,157.6z"/>
			</g>
			<g>
				<path class="st1" d="M121.7,160c-0.7,0.4-1.3,0.8-2,1.2l1.5,1.3c0.7-0.4,1.3-0.8,2-1.2L121.7,160z"/>
			</g>
			<g>
				<path class="st1" d="M101.7,168.9c-0.8,0.2-1.5,0.4-2.3,0.5l1.7,1.5c0.7-0.2,1.5-0.4,2.2-0.6L101.7,168.9z"/>
			</g>
			<g>
				<path class="st1" d="M162.4,103.3c0,0.2-0.1,0.3-0.1,0.5l1.6,1.4c0.1-0.5,0.2-1.1,0.3-1.6c0-0.1,0-0.2,0-0.2l-1.6-1.5
					C162.6,102.4,162.5,102.8,162.4,103.3z"/>
			</g>
			<g>
				<path class="st1" d="M97.1,169.8c-0.8,0.1-1.6,0.2-2.4,0.3l1.9,1.7c0.8-0.1,1.5-0.2,2.3-0.4L97.1,169.8z"/>
			</g>
			<g>
				<path class="st1" d="M163.2,97.8c-0.1,0.6-0.1,1.2-0.2,1.9l1.7,1.5c0.1-0.6,0.2-1.2,0.2-1.8L163.2,97.8z"/>
			</g>
			<g>
				<path class="st1" d="M163.3,93.6c0,0.6,0,1.2,0,1.9l1.8,1.6c0-0.6,0.1-1.2,0.1-1.8L163.3,93.6z"/>
			</g>
			<g>
				<path class="st1" d="M161.9,105.9c-0.1,0.6-0.3,1.3-0.5,1.9l1.6,1.4c0.2-0.6,0.3-1.3,0.5-1.9L161.9,105.9z"/>
			</g>
			<g>
				<path class="st1" d="M160.8,109.8c-0.2,0.6-0.4,1.3-0.6,1.9l1.5,1.3c0.2-0.6,0.4-1.3,0.6-1.9L160.8,109.8z"/>
			</g>
			<g>
				<path class="st1" d="M159.6,113.6c-0.2,0.7-0.5,1.3-0.7,2l1.5,1.3c0.3-0.6,0.5-1.3,0.8-1.9L159.6,113.6z"/>
			</g>
			<g>
				<path class="st1" d="M159.3,77.5c0.8,1,1.4,2.1,2,3.3l2.3,2c-0.3-0.8-1-2-1.3-2.7L159.3,77.5z"/>
			</g>
			<g>
				<path class="st1" d="M158.1,117.4c-0.3,0.7-0.6,1.3-0.9,2l1.5,1.3c0.3-0.7,0.6-1.3,0.9-2L158.1,117.4z"/>
			</g>
			<g>
				<path class="st1" d="M156.4,121.1c-0.3,0.7-0.7,1.4-1,2l1.4,1.3c0.4-0.7,0.7-1.3,1-2L156.4,121.1z"/>
			</g>
			<g>
				<path class="st1" d="M147.3,135.8c-0.5,0.7-1.1,1.4-1.7,2.2l1.4,1.2c0.6-0.7,1.1-1.4,1.7-2.2L147.3,135.8z"/>
			</g>
			<g>
				<path class="st1" d="M149.9,132.2c-0.5,0.7-1,1.4-1.5,2.1l1.4,1.2c0.5-0.7,1-1.4,1.5-2.1L149.9,132.2z"/>
			</g>
			<g>
				<path class="st1" d="M154.4,124.8c-0.4,0.7-0.8,1.4-1.2,2.1l1.4,1.3c0.4-0.7,0.8-1.4,1.2-2.1L154.4,124.8z"/>
			</g>
			<g>
				<path class="st1" d="M152.3,128.5c-0.4,0.7-0.9,1.4-1.3,2.1l1.4,1.3c0.5-0.7,0.9-1.4,1.3-2.1L152.3,128.5z"/>
			</g>
			<g>
				<path class="st1" d="M138.3,146.4c-0.6,0.6-1.2,1.2-1.7,1.7l1.4,1.2c0.6-0.6,1.2-1.2,1.7-1.7L138.3,146.4z"/>
			</g>
		</g>
		<g>
			<path class="st1" d="M154.5,132.1c1,0.7,1.9,1.5,2.8,2.2c0.9,0.8,1.8,1.6,2.7,2.3c0.9,0.8,1.8,1.6,2.6,2.4
				c0.9,0.8,1.7,1.7,2.5,2.6c-1-0.7-1.9-1.5-2.8-2.2c-0.9-0.8-1.8-1.6-2.7-2.3c-0.9-0.8-1.8-1.6-2.6-2.5
				C156.2,133.9,155.3,133,154.5,132.1z"/>
		</g>
		<g>
			<polygon class="st1" points="164.5,107.8 168.5,111 168.1,111.4 			"/>
		</g>
		<g>
			<g>
				<g>
					<path class="st1" d="M145.1,198.8c-0.2,0.6-0.4,1.2-0.7,1.7l2,1.8c0.2-0.6,0.4-1.2,0.7-1.7L145.1,198.8z"/>
				</g>
				<g>
					<path class="st1" d="M143.6,202.9c-0.2,0.5-0.4,1.1-0.6,1.6l2,1.8c0.2-0.5,0.4-1.1,0.6-1.6L143.6,202.9z"/>
				</g>
				<g>
					<path class="st1" d="M142.1,207c-0.2,0.5-0.4,1-0.6,1.5l2,1.8c0.2-0.5,0.4-1,0.5-1.5L142.1,207z"/>
				</g>
				<g>
					<path class="st1" d="M140.7,211c-0.2,0.5-0.3,1-0.5,1.5l2,1.8c0.2-0.5,0.3-1,0.5-1.5L140.7,211z"/>
				</g>
				<g>
					<path class="st1" d="M148.4,190c-0.3,0.7-0.5,1.4-0.8,2.1l2,1.8c0.3-0.7,0.5-1.4,0.8-2.1L148.4,190z"/>
				</g>
				<g>
					<path class="st1" d="M152,180.2c-0.3,0.9-0.6,1.8-0.9,2.6l2,1.8c0.3-0.9,0.6-1.7,0.9-2.6L152,180.2z"/>
				</g>
				<g>
					<path class="st1" d="M150.2,185.2c-0.3,0.8-0.6,1.6-0.9,2.3l2,1.8c0.3-0.8,0.6-1.5,0.9-2.3L150.2,185.2z"/>
				</g>
				<g>
					<path class="st1" d="M136.3,227.7c-0.1,0.7-0.1,1.3-0.2,1.9l2.5,2.2c0-0.7,0-1.3,0-2L136.3,227.7z"/>
				</g>
				<g>
					<path class="st1" d="M139.7,236.8c-0.4-0.9-0.9-1.9-1.2-2.7l-2-1.8c0,0.2,0.3,1.9,1.3,2.8L139.7,236.8z"/>
				</g>
				<g>
					<path class="st1" d="M146,196.4l2,1.8c0-0.1,0-0.1,0.1-0.2c0.2-0.6,0.4-1.2,0.7-1.7l-2-1.8C146.5,195.1,146.3,195.7,146,196.4z
						"/>
				</g>
				<g>
					<path class="st1" d="M153.8,174.8c-0.3,1-0.7,2-1,2.9l2,1.8c0.3-1,0.7-1.9,1-2.9L153.8,174.8z"/>
				</g>
				<g>
					<path class="st1" d="M138.1,219c-0.1,0.5-0.3,1-0.4,1.5l2.1,1.9c0.1-0.5,0.3-1,0.4-1.6L138.1,219z"/>
				</g>
				<g>
					<path class="st1" d="M139.3,214.9c-0.2,0.5-0.3,1-0.5,1.5l2.1,1.8c0.1-0.5,0.3-1,0.5-1.5L139.3,214.9z"/>
				</g>
				<g>
					<path class="st1" d="M137,223.2c-0.1,0.6-0.2,1.1-0.3,1.7l2.2,2c0.1-0.6,0.2-1.1,0.3-1.7L137,223.2z"/>
				</g>
				<g>
					<path class="st1" d="M162.6,143.9c-0.3,1.2-0.5,2.3-0.8,3.5l2.1,1.9c0.3-1.1,0.6-2.3,0.8-3.5L162.6,143.9z"/>
				</g>
				<g>
					<path class="st1" d="M168.2,104.7c0,0.7-0.1,1.5-0.1,2.2l2.3,2.1c0.1-0.7,0.1-1.4,0.2-2.2L168.2,104.7z"/>
				</g>
				<g>
					<path class="st1" d="M168.5,99.7c0,0.7-0.1,1.4-0.1,2l2.4,2.1c0-0.7,0.1-1.3,0.1-2L168.5,99.7z"/>
				</g>
				<g>
					<path class="st1" d="M167.9,109.9c-0.1,0.8-0.1,1.6-0.2,2.4l2.3,2.1c0.1-0.8,0.2-1.6,0.2-2.4L167.9,109.9z"/>
				</g>
				<g>
					<path class="st1" d="M168.6,85.1c0,0.5,0,1,0,1.5l2.5,2.2c0-0.5,0-1,0-1.5L168.6,85.1z"/>
				</g>
				<g>
					<path class="st1" d="M167.4,115.3c-0.1,0.9-0.2,1.7-0.3,2.6l2.3,2c0.1-0.8,0.2-1.7,0.3-2.6L167.4,115.3z"/>
				</g>
				<g>
					<path class="st1" d="M168.6,94.7c0,0.6,0,1.2,0,1.8l2.4,2.2c0-0.6,0-1.2,0.1-1.8L168.6,94.7z"/>
				</g>
				<g>
					<path class="st1" d="M168.7,89.9c0,0.6,0,1.1,0,1.7l2.5,2.2c0-0.5,0-1.1,0-1.7L168.7,89.9z"/>
				</g>
				<g>
					<path class="st1" d="M163.9,137.9c-0.2,1.1-0.5,2.2-0.7,3.3l2.1,1.9c0.2-1.1,0.5-2.2,0.7-3.3L163.9,137.9z"/>
				</g>
				<g>
					<path class="st1" d="M159.5,156.3c-0.4,1.3-0.7,2.6-1.1,3.9l2.1,1.8c0.4-1.3,0.7-2.6,1.1-3.9L159.5,156.3z"/>
				</g>
				<g>
					<path class="st1" d="M157.7,162.7c-0.4,1.3-0.8,2.5-1.1,3.7l2,1.8c0.4-1.2,0.8-2.5,1.1-3.7L157.7,162.7z"/>
				</g>
				<g>
					<path class="st1" d="M161.2,150c-0.3,1.2-0.6,2.5-0.9,3.7l2.1,1.9c0.3-1.2,0.6-2.4,1-3.7L161.2,150z"/>
				</g>
				<g>
					<path class="st1" d="M165.9,126.3c-0.1,1-0.3,2-0.5,2.9l2.2,2c0.2-1,0.3-1.9,0.5-2.9L165.9,126.3z"/>
				</g>
				<g>
					<path class="st1" d="M155.8,169c-0.4,1.1-0.7,2.2-1.1,3.3l2,1.8c0.4-1.1,0.7-2.2,1.1-3.3L155.8,169z"/>
				</g>
				<g>
					<path class="st1" d="M166.7,120.7c-0.1,0.9-0.2,1.8-0.4,2.8l2.2,2c0.1-0.9,0.3-1.8,0.4-2.7L166.7,120.7z"/>
				</g>
				<g>
					<path class="st1" d="M165,132.1c-0.2,1-0.4,2.1-0.6,3.1l2.2,1.9c0.2-1,0.4-2.1,0.6-3.1L165,132.1z"/>
				</g>
			</g>
			<g>
				<g>
					<path class="st1" d="M164.8,216.4c-0.2,0.6-0.4,1.2-0.5,1.8l2.1,1.8c0.2-0.6,0.4-1.2,0.5-1.9L164.8,216.4z"/>
				</g>
				<g>
					<path class="st1" d="M167.7,207.2c-0.2,0.7-0.5,1.4-0.7,2.2l2,1.8c0.2-0.7,0.5-1.5,0.7-2.2L167.7,207.2z"/>
				</g>
				<g>
					<path class="st1" d="M166.2,211.9c-0.2,0.7-0.4,1.3-0.6,2l2,1.8c0.2-0.7,0.4-1.3,0.6-2L166.2,211.9z"/>
				</g>
				<g>
					<path class="st1" d="M171.1,197.2c-0.3,0.9-0.6,1.8-0.9,2.6l2,1.8c0.3-0.9,0.6-1.8,0.9-2.6L171.1,197.2z"/>
				</g>
				<g>
					<path class="st1" d="M172.9,191.8c-0.3,1-0.7,1.9-1,2.9l2,1.8c0.3-1,0.7-2,1-2.9L172.9,191.8z"/>
				</g>
				<g>
					<path class="st1" d="M169.3,202.3c-0.3,0.8-0.5,1.6-0.8,2.4l2,1.8c0.3-0.8,0.5-1.6,0.8-2.4L169.3,202.3z"/>
				</g>
				<g>
					<path class="st1" d="M177.1,180c-0.4,1.2-0.8,2.4-1.3,3.6l2,1.8c0.4-1.2,0.8-2.4,1.3-3.6L177.1,180z"/>
				</g>
				<g>
					<path class="st1" d="M159.1,239.6l1.8,1.6l0.4,0.1c0.1-0.5,0.2-0.9,0.3-1.4l-2.2-1.9C159.3,238.6,159.2,239.1,159.1,239.6z"/>
				</g>
				<g>
					<path class="st1" d="M160.3,233.7c-0.1,0.5-0.2,1.1-0.3,1.6l2.1,1.9c0.1-0.5,0.2-1.1,0.3-1.6L160.3,233.7z"/>
				</g>
				<g>
					<path class="st1" d="M174,188.9c-0.1,0.2-0.1,0.3-0.2,0.5l2,1.8c0.2-0.5,0.3-1,0.5-1.4c0.2-0.6,0.4-1.2,0.6-1.8l-2-1.8
						C174.6,187,174.3,187.9,174,188.9z"/>
				</g>
				<g>
					<path class="st1" d="M162.4,225.1c-0.1,0.5-0.3,1.1-0.4,1.6l2.1,1.9c0.1-0.6,0.3-1.1,0.4-1.7L162.4,225.1z"/>
				</g>
				<g>
					<path class="st1" d="M161.3,229.4c-0.1,0.5-0.3,1.1-0.4,1.6l2.1,1.9c0.1-0.5,0.2-1.1,0.4-1.6L161.3,229.4z"/>
				</g>
				<g>
					<path class="st1" d="M163.6,220.8c-0.2,0.6-0.3,1.2-0.5,1.7l2.1,1.9c0.2-0.6,0.3-1.2,0.5-1.7L163.6,220.8z"/>
				</g>
				<g>
					<path class="st1" d="M186.7,144.8c-0.2,1-0.3,1.9-0.5,2.9l2.2,1.9c0.2-1,0.4-1.9,0.5-2.9L186.7,144.8z"/>
				</g>
				<g>
					<path class="st1" d="M191.4,122.2L189,120c0-0.7-0.1-1.5-0.1-2.2l2.4,2.1C191.3,120.7,191.4,121.5,191.4,122.2z"/>
				</g>
				<g>
					<path class="st1" d="M191.1,127.5l-2.3-2c0.1-0.7,0.1-1.5,0.1-2.2l2.1,1.9C191.1,125.9,191.1,126.7,191.1,127.5z"/>
				</g>
				<g>
					<path class="st1" d="M190.9,116.5l-2.3-2.1c-0.1-0.7-0.2-1.4-0.2-2.1l2.3,2.1C190.8,115.1,190.9,115.8,190.9,116.5z"/>
				</g>
				<g>
					<path class="st1" d="M190.5,132.7l-2.4-2.2c0.2-0.7,0.3-1.4,0.4-2.2l2.1,1.9C190.6,131.1,190.5,131.9,190.5,132.7z"/>
				</g>
				<g>
					<path class="st1" d="M191.1,111.5l-3-2.7c-0.1-0.2-0.2-0.4-0.3-0.5l0,0c-0.1-0.6-0.2-1.1-0.3-1.6l2.8,2.5L191.1,111.5z"/>
				</g>
				<g>
					<path class="st1" d="M189.9,106.4c0,0-2.1-1.8-2.7-2.4l-0.7-2.1c0,0,0,0,0,0l2.4,2.1L189.9,106.4z"/>
				</g>
				<g>
					<path class="st1" d="M187.4,139.2c-0.1,0.9-0.2,1.8-0.4,2.8l2.2,2c0.1-0.9,0.3-1.8,0.4-2.7L187.4,139.2z"/>
				</g>
				<g>
					<path class="st1" d="M182.8,161.9c-0.3,1.1-0.6,2.2-1,3.3l2,1.8c0.3-1.1,0.7-2.2,1-3.3L182.8,161.9z"/>
				</g>
				<g>
					<path class="st1" d="M181.1,167.8c-0.4,1.2-0.7,2.3-1.1,3.5l2,1.8c0.4-1.2,0.8-2.3,1.1-3.5L181.1,167.8z"/>
				</g>
				<g>
					<path class="st1" d="M187.9,133.7c-0.1,0.9-0.1,1.8-0.2,2.6l2.3,2.1c0.1-0.9,0.2-1.7,0.2-2.6L187.9,133.7z"/>
				</g>
				<g>
					<path class="st1" d="M184.3,156.2c-0.3,1.1-0.5,2.1-0.8,3.2l2.1,1.9c0.3-1.1,0.6-2.1,0.8-3.2L184.3,156.2z"/>
				</g>
				<g>
					<path class="st1" d="M179.1,173.8c-0.4,1.2-0.8,2.5-1.2,3.7l2,1.8c0.4-1.2,0.8-2.5,1.3-3.7L179.1,173.8z"/>
				</g>
				<g>
					<path class="st1" d="M185.6,150.5c-0.2,1-0.4,2-0.7,3l2.1,1.9c0.2-1,0.5-2,0.7-3L185.6,150.5z"/>
				</g>
			</g>
		</g>
		<g>
			<g>
				<path class="st1" d="M111.9,184.8c-0.8,0.1-1.6,0.2-2.4,0.2l1.8,1.7c0.8-0.1,1.6-0.2,2.4-0.3L111.9,184.8z"/>
			</g>
			<g>
				<path class="st1" d="M116.6,184.1c-0.8,0.2-1.6,0.3-2.3,0.4l1.7,1.6c0.7-0.1,1.5-0.3,2.3-0.5L116.6,184.1z"/>
			</g>
			<g>
				<path class="st1" d="M125.3,181.6c-0.7,0.3-1.5,0.5-2.2,0.8l1.5,1.5c0.7-0.2,1.5-0.5,2.2-0.8L125.3,181.6z"/>
			</g>
			<g>
				<path class="st1" d="M121.1,183c-0.8,0.2-1.5,0.4-2.3,0.6l1.6,1.5c0.7-0.2,1.5-0.4,2.2-0.6L121.1,183z"/>
			</g>
			<g>
				<path class="st1" d="M103.4,186.7c-1-0.1-2.1-0.4-3-0.6l-2-1.8c1.1,0.5,2.4,0.7,3.3,0.7L103.4,186.7z"/>
			</g>
			<g>
				<path class="st1" d="M108.8,186.9c-0.8,0-1.7,0-2.5,0l-1.6-1.5c0.8,0,1.6-0.1,2.4-0.1L108.8,186.9z"/>
			</g>
			<g>
				<path class="st1" d="M147.9,168.9c-0.6,0.5-1.3,1-1.9,1.5l1.4,1.3c0.6-0.5,1.3-1,1.9-1.5L147.9,168.9z"/>
			</g>
			<g>
				<path class="st1" d="M144.4,171.4c-0.7,0.5-1.3,0.9-2,1.4l1.4,1.3c0.7-0.4,1.3-0.9,2-1.4L144.4,171.4z"/>
			</g>
			<g>
				<path class="st1" d="M129.4,180c-0.7,0.3-1.4,0.6-2.2,0.9l1.5,1.4c0.7-0.3,1.4-0.6,2.1-0.9L129.4,180z"/>
			</g>
			<g>
				<path class="st1" d="M133.3,178.1c-0.7,0.4-1.4,0.7-2.1,1l1.4,1.4c0.7-0.3,1.4-0.7,2.1-1L133.3,178.1z"/>
			</g>
			<g>
				<path class="st1" d="M137.2,176.1c-0.7,0.4-1.4,0.8-2.1,1.1l1.4,1.4c0.7-0.4,1.4-0.8,2.1-1.2L137.2,176.1z"/>
			</g>
			<g>
				<path class="st1" d="M140.9,173.8c-0.7,0.4-1.4,0.8-2,1.3l1.4,1.3c0.7-0.4,1.4-0.8,2-1.3L140.9,173.8z"/>
			</g>
		</g>
		<g>
			<g>
				<path class="st1" d="M103.8,165.4c12.4-3.8,25.1-12.5,35.7-24.4c10.6-11.9,17.8-25.5,20.2-38.3c2.3-12,0-21.7-6.3-27.4
					c-6.3-5.7-16.2-6.8-27.9-3.2C113,76,100.3,84.7,89.7,96.6c-10.6,11.9-17.8,25.5-20.2,38.3c-2.3,12,0,21.7,6.3,27.4
					c2.4,2.2,5.4,3.7,8.8,4.5C90.1,168,96.6,167.6,103.8,165.4z M152.6,76.3c6,5.4,8.1,14.7,5.9,26.2c-2.4,12.6-9.4,26-19.9,37.7
					c-10.5,11.7-23,20.3-35.2,24c-11.2,3.5-20.7,2.4-26.7-2.9l0,0c-6-5.4-8.1-14.7-5.9-26.2c2.4-12.6,9.4-26,19.9-37.7
					c10.5-11.7,23-20.3,35.2-24c6.9-2.1,13.2-2.6,18.4-1.3C147.4,72.8,150.3,74.2,152.6,76.3z"/>
			</g>
			<g>
				<path class="st1" d="M102.3,160.6c11.6-3.6,23.5-11.7,33.5-22.9c10-11.2,16.8-24,19-35.9c1.9-10.2,0.2-18.3-4.7-22.7
					c-5-4.4-13.2-5.2-23.1-2.1c-11.6,3.6-23.5,11.7-33.5,22.9c-10,11.2-16.8,24-19,35.9c-1.9,10.2-0.2,18.3,4.7,22.7
					c1.8,1.6,4.1,2.8,6.7,3.4C90.4,163,96,162.6,102.3,160.6z M149.2,80c4.7,4.2,6.2,11.8,4.4,21.6c-2.2,11.7-8.8,24.2-18.7,35.3
					c-9.9,11.1-21.6,19.1-32.9,22.6c-9.5,2.9-17.3,2.3-22-1.9c-4.7-4.2-6.2-11.8-4.4-21.6c2.2-11.7,8.8-24.2,18.7-35.3
					c9.9-11.1,21.6-19.1,32.9-22.6c6.1-1.9,11.5-2.3,15.8-1.2C145.5,77.4,147.6,78.5,149.2,80z"/>
			</g>
			<g>
				<path class="st1" d="M100.8,155.9c10.7-3.3,21.8-11,31.2-21.5c9.4-10.6,15.7-22.4,17.8-33.5c1.6-8.3,0.4-14.9-3.2-18.1
					c-3.6-3.2-10.3-3.6-18.4-1.1c-10.7,3.3-21.8,11-31.2,21.5c-9.4,10.6-15.7,22.4-17.8,33.5c-1.6,8.3-0.4,14.9,3.2,18.1l0,0
					c1.2,1.1,2.7,1.8,4.6,2.3C90.7,157.9,95.5,157.6,100.8,155.9z M83.3,153.9c-3.3-2.9-4.3-9.1-2.8-17c2-10.8,8.3-22.5,17.5-32.9
					c9.3-10.4,20.2-17.9,30.7-21.2c7.7-2.4,13.9-2.1,17.2,0.8c3.3,2.9,4.3,9.1,2.8,17c-2,10.8-8.3,22.5-17.5,32.9
					c-9.3,10.4-20.2,17.9-30.7,21.2C92.8,157.1,86.5,156.8,83.3,153.9L83.3,153.9z"/>
			</g>
			<g>
				<path class="st1" d="M99.4,151.2c9.9-3.1,20.2-10.2,29-20.1c8.8-9.9,14.7-20.9,16.6-31.1c1.4-7.6,0.1-12-1.6-13.5
					c-1.7-1.5-6.2-2.3-13.6-0.1c-9.9,3.1-20.2,10.2-29,20.1c-8.8,9.9-14.7,20.9-16.6,31.1c-1.4,7.6-0.1,12,1.6,13.5l0,0
					c0.5,0.5,1.4,0.9,2.5,1.2C90.6,152.8,94.3,152.7,99.4,151.2z M142.6,87.4c1.1,1,2.6,4.7,1.2,12.4c-1.9,10-7.7,20.8-16.4,30.5
					C118.8,140,108.7,147,99,150c-7.4,2.3-11.3,1.2-12.4,0.2l0,0c-1.1-1-2.6-4.7-1.2-12.4c1.9-10,7.7-20.8,16.4-30.5
					c8.7-9.7,18.8-16.7,28.5-19.7c5.1-1.6,8.5-1.6,10.5-1.1C141.6,86.7,142.3,87.1,142.6,87.4z"/>
			</g>
		</g>
		<g>
			<path class="st1" d="M137.4,153.6c1.1,0.8,2.1,1.6,3.1,2.5c1,0.8,2,1.7,3,2.6c1,0.9,2,1.8,2.9,2.7c1,0.9,1.9,1.8,2.8,2.8
				c-1.1-0.8-2.1-1.6-3.1-2.5c-1-0.8-2-1.7-3-2.6c-1-0.9-2-1.8-2.9-2.7C139.3,155.5,138.3,154.6,137.4,153.6z"/>
		</g>
		<g>
			<g>
				<path class="st0" d="M173.6,170.6c-43.1,48.4-97.4,65.1-128.9,42.3c-32.3-23.4-19-87.4,24.2-135.7S173.9,8.4,201,37.8
					C227.8,67,216.7,122.3,173.6,170.6z M158.3,103.8c-13.3,14.9-17,33.2-8.3,41c8.7,7.8,26.5,2,39.8-12.9c13.3-14.9,17-33.2,8.3-41
					S171.6,88.9,158.3,103.8z M101,58.1c-11.9,13.3-16.1,29-9.3,35c6.7,6,21.9,0.1,33.8-13.2c11.9-13.3,16.1-29,9.3-35
					C128,38.8,112.9,44.7,101,58.1z M77.9,133.1c11.9-13.3,16.1-29,9.3-35s-21.9-0.1-33.8,13.2c-11.9,13.3-16.1,29-9.3,35
					C50.9,152.3,66,146.4,77.9,133.1z M81.5,186.3c12.3-13.8,16-30.7,8.1-37.7c-7.8-7-24.2-1.5-36.6,12.4
					c-12.3,13.8-16,30.7-8.1,37.7C52.8,205.7,69.1,200.1,81.5,186.3z M178.7,77.4c12.3-13.8,16-30.7,8.1-37.7
					c-7.8-7-24.2-1.5-36.6,12.4c-12.3,13.8-16,30.7-8.1,37.7C150,96.8,166.3,91.2,178.7,77.4z M136.9,191.1
					c13.3-14.9,17-33.2,8.3-41c-8.7-7.8-26.5-2-39.8,12.9c-13.3,14.9-17,33.2-8.3,41C105.8,211.8,123.6,206,136.9,191.1z"/>
			</g>
			<g>
				<path class="st1" d="M174.2,171.2c-43.1,48.4-102.3,66-132.1,39.4c-29.8-26.6-19-87.4,24.2-135.7s102.3-66,132.1-39.4
					C228.2,62.1,217.3,122.8,174.2,171.2z M155.7,101.5c-13.3,14.9-17,33.2-8.3,41c8.7,7.8,26.5,2,39.8-12.9
					c13.3-14.9,17-33.2,8.3-41C186.8,80.8,169,86.6,155.7,101.5z M98.4,55.8c-11.9,13.3-16.1,29-9.3,35c6.7,6,21.9,0.1,33.8-13.2
					c11.9-13.3,16.1-29,9.3-35C125.4,36.5,110.3,42.4,98.4,55.8z M75.3,130.8c11.9-13.3,16.1-29,9.3-35c-6.7-6-21.9-0.1-33.8,13.2
					c-11.9,13.3-16.1,29-9.3,35C48.3,150,63.4,144.1,75.3,130.8z M78.9,184c12.3-13.8,16-30.7,8.1-37.7c-7.8-7-24.2-1.5-36.6,12.4
					c-12.3,13.8-16,30.7-8.1,37.7C50.2,203.4,66.5,197.8,78.9,184z M176.1,75.1c12.3-13.8,16-30.7,8.1-37.7
					c-7.8-7-24.2-1.5-36.6,12.4c-12.3,13.8-16,30.7-8.1,37.7C147.4,94.4,163.7,88.9,176.1,75.1z M134.3,188.8
					c13.3-14.9,17-33.2,8.3-41c-8.7-7.8-26.5-2-39.8,12.9c-13.3,14.9-17,33.2-8.3,41C103.2,209.5,121,203.7,134.3,188.8z"/>
				<path class="st0" d="M103.7,220.7c25.3-7.5,50.8-24.7,71.9-48.3c21.1-23.6,35.2-51,39.9-76.9c4.7-26.3-1-48.1-15.9-61.4
					c-14.9-13.3-37.2-16.4-62.8-8.8C111.5,32.9,86,50,64.9,73.7c-21.1,23.6-35.2,51-39.9,76.9c-4.7,26.3,1,48.1,15.9,61.4
					c6.1,5.4,13.4,9.2,21.7,11.2C74.6,226,88.6,225.3,103.7,220.7z M197.1,36.8c13.9,12.4,19.2,33,14.7,58
					c-4.5,25.3-18.4,52-39,75.1c-20.6,23.1-45.6,39.9-70.2,47.3c-24.3,7.3-45.4,4.4-59.3-8c-13.9-12.4-19.2-33-14.7-58
					c4.5-25.3,18.4-52,39-75.1c20.6-23.1,45.6-39.9,70.2-47.3c14.5-4.3,27.8-5.1,39.1-2.3C184.7,28.3,191.5,31.8,197.1,36.8z
					 M59.5,199.7c7.2-2.4,14.6-7.6,20.7-14.5c13.2-14.8,16.7-32.5,8-40.3c-8.7-7.8-25.9-2.3-39.1,12.5c-6.2,6.9-10.5,14.8-12.1,22.3
					c-1.7,7.8-0.2,14.2,4.1,18l0,0c1.7,1.5,3.7,2.5,5.9,3C50.6,201.6,54.9,201.3,59.5,199.7z M85.8,147.6c7,6.2,3.2,22.3-8.3,35.2
					c-5.8,6.5-12.6,11.3-19.2,13.5c-6.3,2.1-11.5,1.7-14.8-1.3l0,0c-3.3-2.9-4.3-8.1-2.9-14.6c1.5-6.8,5.5-14.1,11.2-20.6
					c9.5-10.6,21.8-16.3,29.7-14.4C83.2,145.8,84.6,146.5,85.8,147.6z M135.6,190c6.6-7.4,11.2-16,12.8-24c1.7-8.4,0-15.3-4.7-19.5
					c-9.6-8.5-28.2-2.8-42.3,13c-14.2,15.9-17.7,35-8.2,43.5l0,0c1.9,1.7,4.2,2.8,6.7,3.4C110.1,208.9,124.3,202.7,135.6,190z
					 M95.7,200.4c-7.9-7.1-4.1-24.3,8.4-38.4c12.6-14.1,29.3-19.8,37.2-12.7c3.7,3.3,4.9,9,3.5,16.1c-1.5,7.4-5.8,15.4-12,22.3
					C120.3,201.7,103.7,207.4,95.7,200.4L95.7,200.4z M57.2,146.3c6.6-2.6,13.6-7.7,19.5-14.4c12.8-14.3,16.8-30.8,9.2-37.6
					c-7.6-6.8-23.6-0.9-36.3,13.4c-5.9,6.7-10.2,14.1-12,21c-1.9,7.3-0.9,13.2,2.9,16.6c1.3,1.2,2.9,2,4.8,2.4
					C48.5,148.6,52.6,148.1,57.2,146.3z M83.4,97.1c5.9,5.3,1.6,20.1-9.5,32.5c-5.6,6.2-12,11-18.1,13.4c-5.6,2.2-10.4,2.1-13.1-0.3
					c-2.7-2.4-3.3-7.1-1.8-13c1.7-6.3,5.7-13.3,11.2-19.5c9.3-10.5,21-16.4,28-14.7C81.5,95.7,82.5,96.3,83.4,97.1z M188.5,130.7
					c6.6-7.4,11.2-16,12.8-24c1.7-8.4,0-15.3-4.7-19.5c-9.6-8.5-28.2-2.8-42.3,13c-6.6,7.4-11.2,16-12.8,24
					c-1.7,8.4,0,15.3,4.7,19.5c1.9,1.7,4.2,2.8,6.7,3.4C163,149.7,177.2,143.5,188.5,130.7z M194.3,89.9c3.7,3.3,4.9,9,3.5,16.1
					c-1.5,7.4-5.8,15.4-12,22.3c-12.6,14.1-29.3,19.8-37.2,12.8c-3.7-3.3-4.9-9-3.5-16.1c1.5-7.4,5.8-15.4,12-22.3
					c10.3-11.5,23.3-17.5,32.1-15.4C191.1,87.8,192.8,88.6,194.3,89.9z M124.2,78.8c12.8-14.3,16.8-30.8,9.2-37.6l0,0
					c-7.6-6.8-23.6-0.9-36.3,13.4c-12.8,14.3-16.8,30.8-9.2,37.6c1.3,1.2,2.9,2,4.8,2.4C101,96.6,113.7,90.5,124.2,78.8z
					 M130.9,43.9L130.9,43.9c5.9,5.3,1.6,20.1-9.5,32.5c-11,12.3-25.3,18.3-31.2,13.1c-5.9-5.3-1.6-20.1,9.5-32.5
					c9.3-10.5,21-16.4,28-14.7C128.9,42.5,130,43.1,130.9,43.9z M156.7,90.8c7.2-2.4,14.6-7.6,20.7-14.5c13.2-14.8,16.7-32.5,8-40.3
					c-8.7-7.8-25.9-2.3-39.1,12.5c-6.2,6.9-10.5,14.8-12.1,22.3c-1.7,7.8-0.2,14.2,4.1,18c1.7,1.5,3.7,2.5,5.9,3
					C147.8,92.7,152.1,92.3,156.7,90.8z M183,38.7c7,6.2,3.2,22.3-8.3,35.2c-5.8,6.5-12.6,11.3-19.2,13.5
					c-6.3,2.1-11.5,1.7-14.8-1.3l0,0c-3.3-2.9-4.3-8.1-2.9-14.6c1.5-6.8,5.5-14.1,11.2-20.6c9.5-10.6,21.8-16.3,29.7-14.4
					C180.4,36.9,181.8,37.6,183,38.7z"/>
			</g>
			<g>
				<path class="st0" d="M164.5,21.3c8.1,0.8,16.1,3.4,23,7.7c6.9,4.3,12.8,10.4,16.6,17.6c3.8,7.2,5.6,15.3,6.1,23.3
					c0.5,8-0.2,16-2.4,23.7c0.2-4,0.5-7.9,0.6-11.8c0.2-3.9,0.1-7.8-0.3-11.7c-0.7-7.7-2.8-15.4-6.6-22c-3.8-6.7-9.3-12.2-15.9-16.1
					c-3.3-1.9-6.8-3.5-10.4-4.7c-3.6-1.2-7.4-2-11.2-2.3L164.5,21.3z"/>
			</g>
			<g>
				<path class="st0" d="M27.7,177.8c0.8,3.7,2,7.4,3.6,10.9c1.6,3.5,3.5,6.8,5.8,9.8c4.6,6.1,10.7,11,17.8,13.9
					c7.1,3,14.9,4.2,22.6,4c3.9-0.1,7.8-0.5,11.7-1.1c3.9-0.5,7.7-1.3,11.7-1.9c-7.3,3-15.3,4.7-23.3,5.1c-8,0.4-16.2-0.5-23.8-3.5
					c-7.6-3-14.3-8.1-19.4-14.5c-5-6.5-8.5-14-10.3-22L27.7,177.8z"/>
			</g>
		</g>
		<g>
			<g>
				<g>
					<path class="st0" d="M133,101.5c-2.9,3.3-6.8,4.6-8.7,3c-1.9-1.7-1-5.7,2-9c2.9-3.3,6.8-4.6,8.7-3
						C136.8,94.2,135.9,98.2,133,101.5z"/>
					<path class="st0" d="M128.5,105.7c1.8-0.6,3.6-1.9,5.1-3.6c1.5-1.7,2.6-3.7,3-5.5c0.4-2,0.1-3.7-1.1-4.7
						c-1.1-1-2.8-1.2-4.8-0.5c-1.8,0.6-3.6,1.9-5.1,3.6c-1.5,1.7-2.6,3.7-3,5.5c-0.4,2-0.1,3.7,1.1,4.7c0.4,0.4,1,0.7,1.6,0.8
						C126.2,106.2,127.3,106.1,128.5,105.7z M134.4,93.2c0.6,0.6,0.8,1.7,0.5,3c-0.3,1.6-1.3,3.2-2.6,4.7c-1.3,1.5-2.9,2.6-4.4,3.1
						c-1.3,0.5-2.4,0.4-3.1-0.2c-0.6-0.6-0.8-1.7-0.5-3c0.3-1.6,1.3-3.2,2.6-4.7c1.3-1.5,2.9-2.6,4.4-3.1c0.9-0.3,1.6-0.4,2.3-0.2
						C133.9,92.9,134.2,93,134.4,93.2z"/>
				</g>
				<g>
					<path class="st1" d="M126.1,104.1c-0.6-0.4-1-1.1-1.1-1.8c-0.1-0.7,0-1.5,0.2-2.2c0.4-1.4,1.1-2.6,2.1-3.7c1-1,2.1-2,3.5-2.5
						c0.7-0.3,1.4-0.4,2.1-0.4c0.7,0,1.5,0.3,1.9,0.9c-1.2-0.7-2.5-0.2-3.6,0.4c-1.1,0.6-2.1,1.5-3,2.4c-0.9,1-1.6,2-2.1,3.2
						C125.6,101.6,125.2,102.9,126.1,104.1z"/>
				</g>
			</g>
			<g>
				<g>
					<path class="st0" d="M100.1,138.4c-2.9,3.3-6.8,4.6-8.7,3c-1.9-1.7-1-5.7,2-9c2.9-3.3,6.8-4.6,8.7-3
						C103.9,131,103,135.1,100.1,138.4z"/>
					<path class="st0" d="M100.7,138.9c3.3-3.7,4.2-8.2,1.9-10.2c-1.1-1-2.8-1.2-4.8-0.5c-1.8,0.6-3.6,1.9-5.1,3.6
						c-3.3,3.7-4.2,8.2-1.9,10.2c0.4,0.4,1,0.7,1.6,0.8C94.8,143.4,98.1,141.9,100.7,138.9z M101.5,130c1.3,1.2,0.8,4.6-2,7.8l0,0
						c-2.9,3.2-6.2,4.1-7.5,2.9c-1.3-1.2-0.8-4.6,2-7.8c1.3-1.5,2.9-2.6,4.4-3.1c0.9-0.3,1.6-0.4,2.3-0.2
						C101,129.7,101.3,129.8,101.5,130z"/>
				</g>
				<g>
					<path class="st1" d="M93.2,140.9c-0.6-0.4-1-1.1-1.1-1.8c-0.1-0.7,0-1.5,0.2-2.2c0.4-1.4,1.1-2.6,2.1-3.7c1-1,2.1-2,3.5-2.5
						c0.7-0.3,1.4-0.4,2.1-0.4c0.7,0,1.5,0.3,1.9,0.9c-1.2-0.7-2.5-0.2-3.6,0.4c-1.1,0.6-2.1,1.5-3,2.4c-0.9,1-1.6,2-2.1,3.2
						C92.7,138.4,92.4,139.8,93.2,140.9z"/>
				</g>
			</g>
			<g>
				<path class="st0" d="M120,122.8c2.5-2.9,4.3-6.1,5-9.2c0.7-3.4,0.1-6.2-1.8-7.9c-3.8-3.4-11.1-1.1-16.6,5.1
					c-5.5,6.2-6.9,13.7-3.2,17.1c0.8,0.7,1.6,1.1,2.6,1.4C110,130.2,115.6,127.8,120,122.8z M121.2,108c1.1,0.9,1.4,2.8,0.9,5
					c-0.6,2.6-2.1,5.4-4.3,7.8c-4.6,5.2-10.2,6.7-12.3,4.8c-2.1-1.9-1.2-7.6,3.4-12.8c3.9-4.3,8.4-6.1,11-5.5
					C120.4,107.5,120.8,107.7,121.2,108z"/>
			</g>
			<g>
				<path class="st0" d="M106.1,128.3c-1.3-0.7-2.1-2.2-2.3-3.7c-0.2-1.5-0.1-3.1,0.2-4.5c0.7-2.9,2.3-5.5,4.2-7.8
					c2-2.2,4.4-4,7.2-5.1c1.4-0.5,2.9-0.8,4.5-0.8c1.5,0.1,3.1,0.7,3.9,1.9c-1.3-0.6-2.6-0.7-3.9-0.4c-1.3,0.3-2.4,0.8-3.5,1.4
					c-2.2,1.3-4.2,3-6,5c-1.7,2-3.2,4.1-4.3,6.5c-0.5,1.2-0.9,2.4-1,3.7C105.1,125.8,105.3,127.1,106.1,128.3z"/>
			</g>
			<g>
				<g>
					<path class="st0" d="M136.3,119.5c-2.9,3.3-6.8,4.6-8.6,3c-1.8-1.6-1-5.6,2-8.9c2.9-3.3,6.8-4.6,8.6-3
						C140.1,112.2,139.2,116.2,136.3,119.5z"/>
					<path class="st0" d="M136.9,120L136.9,120c1.5-1.7,2.6-3.6,3-5.4c0.4-2,0.1-3.7-1.1-4.7c-1.1-1-2.8-1.2-4.8-0.5
						c-1.8,0.6-3.6,1.9-5.1,3.6c-1.5,1.7-2.6,3.6-3,5.4c-0.4,2-0.1,3.7,1.1,4.7c0.4,0.4,1,0.7,1.6,0.8
						C131,124.4,134.3,123,136.9,120z M137.7,111.2c0.6,0.6,0.8,1.7,0.5,3c-0.3,1.5-1.2,3.2-2.6,4.7c-2.8,3.2-6.1,4-7.4,2.9
						c-0.6-0.6-0.8-1.7-0.5-3c0.3-1.5,1.2-3.2,2.6-4.7c1.3-1.5,2.9-2.6,4.4-3.1c0.9-0.3,1.6-0.4,2.2-0.2
						C137.2,110.9,137.4,111,137.7,111.2z"/>
				</g>
				<g>
					<path class="st1" d="M129.7,122.3c-0.6-0.4-1-1.1-1.1-1.8c-0.1-0.7,0-1.5,0.2-2.1c0.4-1.4,1.1-2.6,2-3.7c1-1,2.1-1.9,3.4-2.5
						c0.7-0.3,1.4-0.4,2.1-0.4c0.7,0,1.5,0.3,1.9,0.9c-1.2-0.7-2.5-0.2-3.6,0.4c-1.1,0.6-2.1,1.5-2.9,2.4c-0.8,0.9-1.6,2-2.1,3.2
						C129.3,119.8,128.9,121.1,129.7,122.3z"/>
				</g>
			</g>
			<g>
				<g>
					<path class="st0" d="M119.2,138.6c-2.9,3.3-6.8,4.6-8.6,3c-1.8-1.6-1-5.6,2-8.9c2.9-3.3,6.8-4.6,8.6-3
						C123,131.4,122.1,135.4,119.2,138.6z"/>
					<path class="st0" d="M119.8,139.2c3.3-3.7,4.1-8.1,1.9-10.1c-1.1-1-2.8-1.2-4.8-0.5c-1.8,0.6-3.6,1.9-5.1,3.6
						c-3.3,3.7-4.1,8.1-1.9,10.1c0.4,0.4,1,0.7,1.6,0.8C113.9,143.6,117.2,142.2,119.8,139.2z M120.6,130.4c1.3,1.2,0.8,4.5-2,7.7
						c-2.8,3.2-6.1,4-7.4,2.9c-1.3-1.2-0.8-4.5,2-7.7c1.3-1.5,2.9-2.6,4.4-3.1c0.9-0.3,1.6-0.4,2.2-0.2
						C120.1,130.1,120.3,130.2,120.6,130.4z"/>
				</g>
				<g>
					<path class="st1" d="M112.6,141.4c-0.6-0.4-1-1.1-1.1-1.8c-0.1-0.7,0-1.5,0.2-2.1c0.4-1.4,1.1-2.6,2-3.7c1-1,2.1-1.9,3.4-2.5
						c0.7-0.3,1.4-0.4,2.1-0.4c0.7,0,1.5,0.3,1.9,0.9c-1.2-0.7-2.5-0.2-3.6,0.4c-1.1,0.6-2.1,1.5-2.9,2.4c-0.8,0.9-1.6,2-2.1,3.2
						C112.2,138.9,111.8,140.3,112.6,141.4z"/>
				</g>
			</g>
			<g>
				<g>
					<path class="st0" d="M112.6,101.6c-2.6,2.9-6.1,4.1-7.8,2.7c-1.7-1.5-0.9-5.1,1.8-8s6.1-4.1,7.8-2.7S115.2,98.6,112.6,101.6z"
						/>
					<path class="st0" d="M113.2,102.2L113.2,102.2c3-3.4,3.7-7.4,1.7-9.2c-2-1.8-6-0.6-9,2.7c-1.4,1.5-2.3,3.3-2.7,4.9
						c-0.4,1.8,0,3.3,1,4.3c0.4,0.4,0.9,0.6,1.4,0.7C107.9,106.1,110.8,104.8,113.2,102.2z M113.8,94.2c1.1,1,0.6,4-1.8,6.8l0,0
						c-2.5,2.8-5.4,3.6-6.5,2.6c-0.6-0.5-0.7-1.4-0.5-2.6c0.3-1.4,1.1-2.9,2.3-4.2c2.1-2.3,4.5-3.3,5.9-2.9
						C113.4,93.9,113.6,94.1,113.8,94.2z"/>
				</g>
				<g>
					<path class="st1" d="M106.7,104.2c-0.5-0.3-0.9-1-1-1.6c-0.1-0.7,0-1.3,0.1-1.9c0.3-1.3,1-2.4,1.8-3.3c0.9-0.9,1.9-1.8,3.1-2.2
						c0.6-0.2,1.3-0.4,1.9-0.3c0.7,0,1.3,0.3,1.7,0.8c-1.1-0.6-2.3-0.1-3.2,0.4c-1,0.6-1.8,1.3-2.6,2.2c-0.8,0.8-1.4,1.8-1.8,2.8
						C106.3,102,106,103.2,106.7,104.2z"/>
				</g>
			</g>
			<g>
				<g>
					<path class="st0" d="M98.2,117.8c-2.6,2.9-6.1,4.1-7.8,2.7c-1.7-1.5-0.9-5.1,1.8-8c2.6-2.9,6.1-4.1,7.8-2.7
						C101.6,111.2,100.8,114.8,98.2,117.8z"/>
					<path class="st0" d="M98.8,118.3L98.8,118.3c1.4-1.5,2.3-3.3,2.7-4.9c0.4-1.8,0-3.3-1-4.3c-2-1.8-6-0.6-9,2.7
						c-1.4,1.5-2.3,3.3-2.7,4.9c-0.4,1.8,0,3.3,1,4.3c0.4,0.4,0.9,0.6,1.4,0.7C93.4,122.3,96.4,121,98.8,118.3z M99.3,110.4
						c0.6,0.5,0.7,1.4,0.5,2.6c-0.3,1.4-1.1,2.9-2.3,4.2c-2.5,2.8-5.4,3.6-6.5,2.6c-0.6-0.5-0.7-1.4-0.5-2.6
						c0.3-1.4,1.1-2.9,2.3-4.2c2.1-2.3,4.5-3.3,5.9-2.9C98.9,110.1,99.2,110.2,99.3,110.4z"/>
				</g>
				<g>
					<path class="st1" d="M92.3,120.4c-0.5-0.3-0.9-1-1-1.6c-0.1-0.7,0-1.3,0.1-1.9c0.3-1.3,1-2.4,1.8-3.3c0.9-0.9,1.9-1.8,3.1-2.2
						c0.6-0.2,1.3-0.4,1.9-0.3c0.7,0,1.3,0.3,1.7,0.8c-1.1-0.6-2.3-0.1-3.2,0.4c-1,0.6-1.8,1.3-2.6,2.2c-0.8,0.8-1.4,1.8-1.8,2.8
						C91.9,118.1,91.6,119.3,92.3,120.4z"/>
				</g>
			</g>
		</g>
		<g>
			<path class="st1" d="M116.7,167.7c1.1,0.8,2.1,1.6,3.1,2.5c1,0.8,2,1.7,3,2.6c1,0.9,2,1.8,2.9,2.7c1,0.9,1.9,1.8,2.8,2.8
				c-1.1-0.8-2.1-1.6-3.1-2.5c-1-0.8-2-1.7-3-2.6c-1-0.9-2-1.8-2.9-2.7C118.6,169.6,117.6,168.7,116.7,167.7z"/>
		</g>
		<g>
			<g>
				<path class="st1" d="M162.5,165.8c1.2,0.9,2.4,1.9,3.6,2.9c1.2,1,2.3,2,3.5,3c1.1,1,2.3,2.1,3.4,3.1c1.1,1.1,2.2,2.1,3.3,3.3
					c-1.2-0.9-2.4-1.9-3.6-2.9c-1.2-1-2.3-2-3.5-3c-1.1-1-2.3-2.1-3.4-3.1C164.6,168,163.5,166.9,162.5,165.8z"/>
			</g>
			<g>
				<path class="st1" d="M170.2,130.9c1.4,1.1,2.8,2.3,4.2,3.4c1.4,1.2,2.7,2.4,4.1,3.5c1.3,1.2,2.7,2.4,4,3.7
					c1.3,1.2,2.6,2.5,3.9,3.8c-1.4-1.1-2.8-2.3-4.2-3.4c-1.4-1.2-2.7-2.4-4.1-3.5c-1.3-1.2-2.7-2.4-4-3.7
					C172.7,133.5,171.4,132.2,170.2,130.9z"/>
			</g>
			<g>
				<path class="st1" d="M173.4,100.8c1.2,0.9,2.4,1.9,3.6,2.9c1.2,1,2.3,2,3.5,3c1.1,1,2.3,2.1,3.4,3.1c1.1,1.1,2.2,2.1,3.3,3.3
					c-1.2-0.9-2.4-1.9-3.6-2.9c-1.2-1-2.3-2-3.5-3c-1.1-1-2.3-2.1-3.4-3.1C175.6,103,174.5,102,173.4,100.8z"/>
			</g>
			<g>
				<path class="st1" d="M150.4,197.7c1.3,1,2.6,2,3.9,3.1c1.3,1.1,2.5,2.2,3.7,3.2c1.2,1.1,2.4,2.2,3.6,3.3
					c1.2,1.1,2.4,2.3,3.5,3.5c-1.3-1-2.6-2-3.9-3.1c-1.3-1.1-2.5-2.2-3.7-3.2c-1.2-1.1-2.4-2.2-3.6-3.3
					C152.7,200,151.5,198.9,150.4,197.7z"/>
			</g>
			<g>
				<path class="st1" d="M141.3,229.6c1.2,0.9,2.3,1.8,3.5,2.8c1.1,1,2.3,1.9,3.4,2.9c1.1,1,2.2,2,3.3,3c1.1,1,2.2,2.1,3.2,3.1
					c-1.2-0.9-2.3-1.8-3.5-2.8c-1.1-1-2.3-1.9-3.4-2.9c-1.1-1-2.2-2-3.3-3C143.4,231.7,142.3,230.7,141.3,229.6z"/>
			</g>
		</g>
		<g>
			<path class="st1" d="M94.8,174.5c1,0.7,1.9,1.4,2.8,2.2c0.9,0.7,1.8,1.5,2.7,2.3c0.9,0.8,1.7,1.6,2.6,2.4
				c0.8,0.8,1.7,1.6,2.5,2.5c-1-0.7-1.9-1.4-2.8-2.2c-0.9-0.7-1.8-1.5-2.7-2.3c-0.9-0.8-1.7-1.6-2.6-2.4
				C96.4,176.2,95.6,175.4,94.8,174.5z"/>
		</g>
		<g>
			<g>
				<g>
					<path class="st1" d="M219.1,209.9c-0.9,0.5-1.7,1.1-2.6,1.6l2.2,2.3c0.8-0.5,1.7-1.1,2.6-1.6L219.1,209.9z"/>
				</g>
				<g>
					<path class="st1" d="M193,226.9c-0.9,0.6-1.7,1.1-2.6,1.7l2.3,2.2c0.9-0.5,1.7-1.1,2.6-1.7L193,226.9z"/>
				</g>
				<g>
					<path class="st1" d="M203.5,220c-0.9,0.6-1.7,1.1-2.5,1.7c0,0,0,0,0,0l2.2,2.3c0.8-0.6,1.7-1.1,2.5-1.7L203.5,220z"/>
				</g>
				<g>
					<path class="st1" d="M198.3,223.4c-0.9,0.6-1.7,1.1-2.6,1.7l2.2,2.2c0.8-0.6,1.7-1.1,2.6-1.7L198.3,223.4z"/>
				</g>
				<g>
					<path class="st1" d="M213.9,213.2c-0.9,0.5-1.7,1.1-2.6,1.6l2.2,2.3c0.8-0.5,1.7-1.1,2.5-1.6L213.9,213.2z"/>
				</g>
				<g>
					<path class="st1" d="M208.7,216.6c-0.9,0.6-1.7,1.1-2.6,1.7l2.2,2.3c0.8-0.6,1.7-1.1,2.5-1.7L208.7,216.6z"/>
				</g>
				<g>
					<path class="st1" d="M157.4,246.7c1,0,2.2,0,2.9-0.1l-2.9-2.7c-1,0.1-2.1,0.1-3.1,0.1L157.4,246.7z"/>
				</g>
				<g>
					<path class="st1" d="M154.3,246.9l-2.7-2.4c-0.7-0.1-3-0.6-3.8-0.7l3.1,2.8C151.3,246.6,154.3,246.9,154.3,246.9z"/>
				</g>
				<g>
					<path class="st1" d="M224.4,206.7c-0.9,0.5-1.7,1-2.6,1.6l2.2,2.3c0.9-0.5,1.7-1,2.6-1.6L224.4,206.7z"/>
				</g>
				<g>
					<path class="st1" d="M187.7,230.2c-0.9,0.6-1.8,1.1-2.7,1.7l2.3,2.2c0.9-0.5,1.7-1.1,2.6-1.6L187.7,230.2z"/>
				</g>
				<g>
					<path class="st1" d="M164.7,242.3c-1.2,0.4-2.3,0.7-3.5,1l2.7,2.5c1.1-0.3,2.2-0.7,3.3-1.1L164.7,242.3z"/>
				</g>
				<g>
					<path class="st1" d="M171,239.7c-1,0.5-2.1,0.9-3.1,1.3l2.5,2.3c1-0.4,2-0.9,3-1.4L171,239.7z"/>
				</g>
				<g>
					<path class="st1" d="M182.3,233.6c-0.9,0.6-1.8,1.1-2.7,1.6l2.3,2.2c0.9-0.5,1.8-1.1,2.7-1.6L182.3,233.6z"/>
				</g>
				<g>
					<path class="st1" d="M176.8,236.8c-1,0.5-1.9,1-2.9,1.5l2.4,2.3c0.9-0.5,1.9-1,2.8-1.5L176.8,236.8z"/>
				</g>
				<g>
					<path class="st1" d="M257.4,189.5c-0.9,0.4-1.8,0.8-2.7,1.2l2.1,2.5c0.9-0.4,1.8-0.8,2.7-1.2L257.4,189.5z"/>
				</g>
				<g>
					<path class="st1" d="M287.5,179.6c-1,0.2-2,0.5-3,0.7l2.2,2.7c1-0.2,2-0.5,2.9-0.7L287.5,179.6z"/>
				</g>
				<g>
					<path class="st1" d="M293.9,178.3c-1,0.2-2,0.4-3,0.6l2.2,2.7c1-0.2,2-0.4,3-0.6L293.9,178.3z"/>
				</g>
				<g>
					<path class="st1" d="M281.2,181.2c-1,0.3-1.9,0.5-2.9,0.8l2.2,2.6c1-0.3,1.9-0.5,2.9-0.8L281.2,181.2z"/>
				</g>
				<g>
					<path class="st1" d="M275.1,183c-1,0.3-1.9,0.6-2.9,0.9l2.1,2.6c0.9-0.3,1.9-0.6,2.9-0.9L275.1,183z"/>
				</g>
				<g>
					<path class="st1" d="M246.1,194.7c-0.9,0.4-1.8,0.9-2.7,1.3l2.1,2.4c0.9-0.4,1.8-0.9,2.7-1.3L246.1,194.7z"/>
				</g>
				<g>
					<path class="st1" d="M229.7,203.5c-0.9,0.5-1.7,1-2.6,1.5l2.2,2.3c0.9-0.5,1.7-1,2.6-1.5L229.7,203.5z"/>
				</g>
				<g>
					<path class="st1" d="M240.5,197.5c-0.9,0.5-1.8,0.9-2.7,1.4l2.1,2.4c0.9-0.5,1.8-0.9,2.6-1.4L240.5,197.5z"/>
				</g>
				<g>
					<path class="st1" d="M269.1,184.9c-0.9,0.3-1.9,0.7-2.8,1l2.1,2.5c0.9-0.3,1.9-0.7,2.8-1L269.1,184.9z"/>
				</g>
				<g>
					<path class="st1" d="M235.1,200.5c-0.9,0.5-1.8,1-2.6,1.5l2.2,2.4c0.9-0.5,1.7-1,2.6-1.5L235.1,200.5z"/>
				</g>
				<g>
					<path class="st1" d="M263.2,187.1c-0.9,0.4-1.9,0.7-2.8,1.1l2.1,2.5c0.9-0.4,1.8-0.7,2.8-1.1L263.2,187.1z"/>
				</g>
				<g>
					<path class="st1" d="M251.7,192c-0.9,0.4-1.8,0.8-2.7,1.3l2.1,2.4c0.9-0.4,1.8-0.8,2.7-1.3L251.7,192z"/>
				</g>
			</g>
			<g>
				<g>
					<path class="st1" d="M217.4,251.3c-0.8,0.5-1.6,1-2.4,1.5l2.3,2.2c0.8-0.5,1.6-1,2.4-1.5L217.4,251.3z"/>
				</g>
				<g>
					<path class="st1" d="M222.5,248c-0.8,0.5-1.6,1-2.4,1.6l2.2,2.2c0.8-0.5,1.6-1,2.4-1.5L222.5,248z"/>
				</g>
				<g>
					<path class="st1" d="M237.6,238.2c-0.8,0.5-1.6,1-2.4,1.5l2.2,2.3c0.8-0.5,1.6-1,2.4-1.5L237.6,238.2z"/>
				</g>
				<g>
					<path class="st1" d="M212.3,254.5c-0.8,0.5-1.7,1-2.5,1.5l2.3,2.2c0.8-0.5,1.6-1,2.5-1.5L212.3,254.5z"/>
				</g>
				<g>
					<path class="st1" d="M232.6,241.4c-0.8,0.5-1.6,1-2.4,1.5l2.2,2.3c0.8-0.5,1.6-1,2.4-1.5L232.6,241.4z"/>
				</g>
				<g>
					<path class="st1" d="M229.8,247l-2.2-2.3c-0.1,0-0.1,0.1-0.2,0.1c-0.7,0.5-1.5,1-2.2,1.4l2.2,2.3c0.6-0.4,1.1-0.7,1.7-1.1
						C229.3,247.3,229.6,247.1,229.8,247z"/>
				</g>
				<g>
					<path class="st1" d="M201.4,260.4c-0.9,0.4-1.9,0.9-2.8,1.3l2.4,2.3c0.9-0.4,1.8-0.8,2.7-1.3L201.4,260.4z"/>
				</g>
				<g>
					<path class="st1" d="M184.4,269c-1.3,0.1-2.7,0.2-4,0.2l-2.8-2.5c1.2-0.1,2.9,0,4.2-0.2L184.4,269z"/>
				</g>
				<g>
					<path class="st1" d="M177,269l-2.3-2.1c-0.7,0-1.3-0.1-2-0.1C172.7,266.8,174.4,268.7,177,269z"/>
				</g>
				<g>
					<path class="st1" d="M191.6,267.6c-1.1,0.3-2.2,0.6-3.3,0.8l-2.8-2.6c0.9-0.2,1.7-0.4,2.5-0.6c0.1,0,0.3-0.1,0.4-0.1
						c0,0,0,0,0,0c0.1,0,0.3-0.1,0.4-0.1L191.6,267.6z"/>
				</g>
				<g>
					<path class="st1" d="M188.1,265.3c-0.8,0.2-1.6,0.4-2.5,0.6l-0.1-0.1C186.3,265.6,187.2,265.4,188.1,265.3z"/>
				</g>
				<g>
					<path class="st1" d="M207,257.5c-0.9,0.5-1.7,1-2.6,1.4l2.4,2.3c0.9-0.5,1.7-0.9,2.6-1.4L207,257.5z"/>
				</g>
				<g>
					<path class="st1" d="M195.5,263c-1,0.4-2,0.7-3,1.1l2.6,2.4c1-0.3,2-0.7,3-1.1L195.5,263z"/>
				</g>
				<g>
					<path class="st1" d="M242.7,235c-0.8,0.5-1.6,1-2.4,1.5l2.2,2.3c0.8-0.5,1.6-1,2.4-1.5L242.7,235z"/>
				</g>
				<g>
					<path class="st1" d="M280.2,216.2c-0.9,0.3-1.8,0.7-2.6,1l2.2,2.5c0.9-0.3,1.7-0.7,2.6-1L280.2,216.2z"/>
				</g>
				<g>
					<path class="st1" d="M304.1,209.4c-0.9,0.2-1.9,0.4-2.8,0.6l2.2,2.7c0.9-0.2,1.9-0.4,2.8-0.5L304.1,209.4z"/>
				</g>
				<g>
					<path class="st1" d="M310.4,208.3c-1,0.1-1.9,0.3-2.8,0.5l2.2,2.8c0.9-0.1,1.9-0.3,2.8-0.4L310.4,208.3z"/>
				</g>
				<g>
					<path class="st1" d="M297.9,210.7c-0.9,0.2-1.8,0.5-2.7,0.7l2.2,2.6c0.9-0.2,1.8-0.5,2.7-0.7L297.9,210.7z"/>
				</g>
				<g>
					<path class="st1" d="M291.9,212.3c-0.9,0.3-1.8,0.5-2.7,0.8l2.2,2.6c0.9-0.3,1.8-0.5,2.7-0.8L291.9,212.3z"/>
				</g>
				<g>
					<path class="st1" d="M274.5,218.4c-0.9,0.4-1.7,0.7-2.6,1.1l2.2,2.5c0.8-0.4,1.7-0.7,2.6-1.1L274.5,218.4z"/>
				</g>
				<g>
					<path class="st1" d="M258.2,226.1c-0.8,0.4-1.6,0.9-2.5,1.3l2.2,2.4c0.8-0.4,1.6-0.9,2.4-1.3L258.2,226.1z"/>
				</g>
				<g>
					<path class="st1" d="M253,229c-0.8,0.5-1.6,0.9-2.4,1.4l2.2,2.3c0.8-0.5,1.6-0.9,2.4-1.4L253,229z"/>
				</g>
				<g>
					<path class="st1" d="M286,214.1c-0.9,0.3-1.8,0.6-2.7,0.9l2.2,2.5c0.9-0.3,1.8-0.6,2.6-0.9L286,214.1z"/>
				</g>
				<g>
					<path class="st1" d="M263.6,223.4c-0.8,0.4-1.7,0.8-2.5,1.3l2.2,2.4c0.8-0.4,1.6-0.8,2.5-1.2L263.6,223.4z"/>
				</g>
				<g>
					<path class="st1" d="M269,220.8c-0.9,0.4-1.7,0.8-2.5,1.2l2.2,2.4c0.8-0.4,1.7-0.8,2.5-1.2L269,220.8z"/>
				</g>
				<g>
					<path class="st1" d="M247.8,232c-0.8,0.5-1.6,1-2.4,1.4l2.2,2.3c0.8-0.5,1.6-0.9,2.4-1.4L247.8,232z"/>
				</g>
			</g>
		</g>
		<g>
			<g>
				<path class="st1" d="M170.1,246.2c3.4,2.6,6.6,5.3,9.8,8.1c3.2,2.8,6.3,5.7,9.2,8.8c-3.4-2.6-6.6-5.3-9.8-8.1
					C176.1,252.1,173,249.3,170.1,246.2z"/>
			</g>
			<g>
				<path class="st1" d="M251.2,198.3c1.7,1.4,3.3,2.9,5,4.4c1.6,1.5,3.2,3,4.8,4.6c1.6,1.6,3.1,3.1,4.7,4.7c1.5,1.6,3,3.2,4.5,4.9
					c-1.7-1.4-3.3-2.9-5-4.4c-1.6-1.5-3.2-3-4.8-4.6c-1.6-1.6-3.1-3.1-4.7-4.7C254.1,201.6,252.6,200,251.2,198.3z"/>
			</g>
			<g>
				<path class="st1" d="M211.5,222.4c3.3,2.5,6.5,5.3,9.6,8.1c3.1,2.8,6.1,5.7,9,8.8c-3.3-2.5-6.5-5.3-9.6-8.1
					C217.4,228.3,214.4,225.5,211.5,222.4z"/>
			</g>
		</g>
	</g>
</g>
</svg>
