<?xml version="1.0" encoding="utf-8"?>
<!-- Generator: Adobe Illustrator 27.2.0, SVG Export Plug-In . SVG Version: 6.00 Build 0)  -->
<svg version="1.1" id="_x5F_" xmlns="http://www.w3.org/2000/svg" xmlns:xlink="http://www.w3.org/1999/xlink" x="0px" y="0px"
	 viewBox="0 0 101.6 101.8" style="enable-background:new 0 0 101.6 101.8;" xml:space="preserve">
<style type="text/css">
	.st0{fill:none;}
	.st1{fill:#F2F2F2;}
</style>
<rect x="0.4" y="0.4" class="st0" width="100.8" height="101"/>
<g>
	<g>
		<path class="st1" d="M33.4,23.2c1.6-0.8,3.1-1.1,4.8-1c0.4,0,0.4-0.5,0.1-0.5c-1.7-0.3-3.7,0.2-5.1,1.2
			C33.1,23,33.3,23.3,33.4,23.2z"/>
		<path class="st1" d="M31.7,24.9c0.2-0.1,0.2-0.3,0.3-0.5s-0.2-0.4-0.3-0.2c-0.1,0.1-0.2,0.3-0.3,0.5C31.3,24.8,31.6,25,31.7,24.9z
			"/>
		<g>
			<path class="st1" d="M29.8,29.9c-0.7-7,7.4-11.6,12.6-6.2c5.4,5.7,0.1,14-7.1,12.9c-0.3,0-0.4,0.5-0.1,0.6
				c8.2,2,13.4-8.3,7.5-14.1c-5.5-5.4-14.6-0.6-13.3,6.8C29.4,30.3,29.8,30.2,29.8,29.9z"/>
			<path class="st1" d="M29.8,30.3c1.5,0.3,3-0.1,4.4-0.7c0.8-0.3,1.5-0.8,2.2-1.3c0.8-0.5,1.7-1.6,2.6-1c1.7,1.1,2.1,4.2,1.4,5.9
				c-0.9,2.3-3.4,3.2-5.8,3.3c-0.3,0-0.3,0.5,0,0.5c2.5-0.1,5.1-0.9,6.2-3.4c1.2-2.7-0.1-5.4-2-7.2c-0.1-0.1-0.3-0.1-0.4,0
				c-2.4,1.7-5.5,4.3-8.5,3.8C29.7,30,29.6,30.3,29.8,30.3z"/>
			<path class="st1" d="M29.3,29.6c-0.2,3.4,2.2,6.9,5.6,7.6c0.3,0.1,0.5-0.4,0.2-0.5c-3.3-1.4-5-3.7-5.3-7.2
				C29.7,29.3,29.3,29.3,29.3,29.6z"/>
			<path class="st1" d="M34.3,36.8c-3.4,4-3.6,11-1.1,15.5c0.2,0.4,0.8,0.1,0.6-0.3c-2.2-4.5-2.2-10.8,0.9-14.9
				C35,36.9,34.5,36.5,34.3,36.8z"/>
			<path class="st1" d="M35.6,43.7c0.5,5,2.8,10.1,7.6,11.9c0.4,0.1,0.7-0.4,0.3-0.6c-4.7-2.5-6.5-6.4-7.5-11.4
				C36.1,43.3,35.6,43.4,35.6,43.7z"/>
			<path class="st1" d="M45,31.8c5.3-0.6,9.2,2.1,13.3,5c0.2,0.1,0.5-0.1,0.4-0.3c-1-2.1-3.9-3.4-5.9-4.2c-2.4-1-5.4-1.8-7.9-1.1
				C44.5,31.4,44.6,31.9,45,31.8z"/>
			<path class="st1" d="M46.3,38c3.3,0.2,6.3,0.6,8.9,2.7c0.3,0.2,0.7-0.2,0.4-0.5c-2.2-2.4-6.4-3-9.4-2.8
				C45.9,37.4,45.9,38,46.3,38z"/>
			<path class="st1" d="M55.5,40.2c2-0.2,3.6-1.6,3.3-3.7c-0.1-0.4-0.7-0.3-0.6,0.1c0.3,1.9-1.1,2.8-2.7,3.2
				C55.2,39.9,55.3,40.3,55.5,40.2z"/>
			<path class="st1" d="M55.3,40.3c-0.2,0.8-0.8,3.8,0.3,4.1s2.2-1.6,2.7-2.2c-0.1,0-0.3-0.1-0.4-0.1c0.5,0.9,1.3,2.1,2.4,2
				c0.9-0.1,1.5-0.9,1.8-1.7c1.1-2.8-0.8-5.6-3.6-6.3c-0.4-0.1-0.6,0.5-0.2,0.6c2.2,0.6,3.9,2.3,3.5,4.8c-0.1,0.7-0.5,1.7-1.2,2
				c-1.1,0.4-1.8-0.8-2.3-1.6c-0.1-0.1-0.3-0.2-0.4-0.1c-0.4,0.4-1,1.4-1.5,1.6c-1.6,0.7-1-2.2-0.9-3.1
				C55.7,40.2,55.3,40.1,55.3,40.3z"/>
			<path class="st1" d="M43.7,55.5c3.9-0.4,9.9-2.9,10.3-7.3c0-0.3-0.4-0.4-0.5-0.1c-1.9,4.1-5.6,6.3-9.9,6.8
				C43.2,55,43.3,55.6,43.7,55.5z"/>
			<path class="st1" d="M49.2,38.1c2.5,3.1,4.1,6.5,4.6,10.4c0.1,0.5,0.8,0.3,0.7-0.1c-0.4-4-2.3-7.6-5-10.5
				C49.3,37.7,49,37.9,49.2,38.1z"/>
			<path class="st1" d="M33.4,52.5c1.7,0.7,4.3,0.5,5.4-1.2c0.1-0.2-0.1-0.5-0.3-0.4c-0.7,0.4-1.4,1-2.2,1.2
				c-0.9,0.2-1.8,0.1-2.7-0.2C33.2,51.8,33,52.3,33.4,52.5z"/>
			<path class="st1" d="M32.9,51.9c0.1,1.9,1.1,3.9,2.5,5.2c1.2,1.1,3,1.2,4-0.3c0.1-0.2-0.1-0.4-0.3-0.3c-0.7,0.5-1.4,1-2.3,0.7
				c-0.7-0.2-1.2-0.8-1.6-1.3c-1-1.2-1.5-2.6-1.8-4.1C33.3,51.5,32.9,51.6,32.9,51.9z"/>
			<path class="st1" d="M37.1,54.4c0.5,0.7,1.1,1.3,2,1.3c0.8,0,1.5-0.6,1.8-1.4c0.1-0.2-0.2-0.4-0.3-0.2c-0.5,0.4-0.8,1.1-1.5,1
				c-0.6,0-1.2-0.6-1.6-1C37.2,53.9,36.9,54.1,37.1,54.4z"/>
			<path class="st1" d="M42.4,55.1C40,60,40.1,67.3,41.6,72.5c0.1,0.5,1,0.4,0.8-0.1c-1.6-5.7-0.7-11.5,0.5-17.1
				C43,54.9,42.5,54.9,42.4,55.1z"/>
			<path class="st1" d="M45.5,71.9c0.8-1.6,1.3-3.3,1.7-5c0.5-2.4,1.4-4.6,2-6.9c0.1-0.3-0.3-0.5-0.5-0.3c-2.3,3.3-2.5,8.1-3.8,11.8
				C44.9,71.9,45.4,72.2,45.5,71.9z"/>
			<path class="st1" d="M52,58c3.3,2.9,7.9,5.5,12.2,6.3c0.5,0.1,0.5-0.6,0.1-0.7c-4.5-1-8.1-3.7-12.1-5.9C52,57.6,51.8,57.8,52,58z
				"/>
			<path class="st1" d="M53.9,48.1c2.5,1.8,5,3.7,7.1,6c2,2.1,3.5,4.6,5.5,6.7c0.2,0.2,0.4,0,0.4-0.2c-2.3-5.4-7.7-10-12.7-12.8
				C53.9,47.6,53.6,47.9,53.9,48.1z"/>
			<path class="st1" d="M48.9,60.4c0.4-0.7,1-1.1,1.7-1.5s1.7-0.4,2.3-0.8c0.2-0.1,0.2-0.4-0.1-0.5C52,57.4,50.7,58,50,58.4
				s-1.2,1-1.5,1.7C48.3,60.4,48.7,60.6,48.9,60.4z"/>
			<path class="st1" d="M64.5,64c0.1-0.7,0.1-1.4,0.5-2c0.4-0.7,1-0.8,1.7-1.1c0.2-0.1,0.2-0.6-0.1-0.6c-1.9,0-2.8,2.1-2.7,3.7
				C64,64.3,64.5,64.3,64.5,64z"/>
			<path class="st1" d="M63.4,64.2c2,1.3,4.8,1.2,6.9,0.9c1.6-0.2,3.9-0.6,4.9-1.9c0.3-0.4-0.3-0.8-0.6-0.4c-1,1.2-3.3,1.5-4.8,1.7
				c-2.3,0.3-4.3,0-6.4-0.7C63.4,63.7,63.2,64,63.4,64.2z"/>
			<path class="st1" d="M66.4,60.7c3-0.1,6.4,0.1,8.5,2.3c0.1,0.1,0.5,0.1,0.5-0.1c0-1.4-2-2-3.1-2.2c-2-0.5-4-0.6-6-0.4
				C66.2,60.3,66.2,60.7,66.4,60.7z"/>
			<path class="st1" d="M41.8,72.8c0.5,0.5,1.2,0.4,1.9,0.2c0.8-0.2,1.8-0.7,2.2-1.4c0.1-0.2-0.1-0.5-0.3-0.3c-0.6,0.3-1,0.7-1.6,1
				c-0.5,0.2-1.3,0.6-1.8,0.2C41.9,72.3,41.6,72.6,41.8,72.8z"/>
			<path class="st1" d="M41.9,71.5c-1.8,0.9-3.1,2.7-4.1,4.4c-0.6,1.2-1.5,3-0.5,4.3c0.2,0.2,0.5,0,0.4-0.2c-0.5-3.1,2-6.4,4.4-8
				C42.3,71.7,42.1,71.4,41.9,71.5z"/>
			<path class="st1" d="M37.5,80.5c4.1-0.1,10-5.1,8.7-9.5c-0.1-0.4-0.6-0.3-0.6,0.1c0.6,4.4-4.1,8.4-8.1,8.9
				C37.2,79.9,37.2,80.5,37.5,80.5z"/>
			<path class="st1" d="M42.5,55.1c1.9,1.6,4.1,4,6.5,4.6c0.2,0.1,0.5-0.3,0.2-0.4c-1.1-0.7-2.2-1.3-3.3-2.1s-2.1-1.7-3.2-2.6
				C42.5,54.5,42.3,54.9,42.5,55.1z"/>
			<path class="st1" d="M53.1,58.3c0.2-3.3,0.9-6.5,1.4-9.8c0.1-0.4-0.5-0.5-0.6-0.1c-1,3.1-1.4,6.6-1.2,9.9
				C52.7,58.5,53.1,58.6,53.1,58.3z"/>
			<path class="st1" d="M62,63.1c0.7-0.6,1.2-1.4,1.6-2.2c0.4-0.7,1.1-1.5,1.2-2.4c0-0.2-0.3-0.3-0.4-0.1c-0.9,1.5-1.6,3.1-2.7,4.4
				C61.5,63,61.8,63.2,62,63.1z"/>
			<path class="st1" d="M58.4,62.1c0.9,0,2-0.8,2.4-1.6c0.1-0.2-0.2-0.4-0.4-0.2c-0.5,0.6-1.2,1.3-2,1.4
				C58.2,61.7,58.2,62.1,58.4,62.1z"/>
			<path class="st1" d="M61.3,59.7c0.9-1.1,1.7-2.4,1.7-3.8c0-0.2-0.3-0.3-0.4,0c-0.2,1.4-0.8,2.6-1.7,3.7
				C60.9,59.6,61.2,59.8,61.3,59.7z"/>
			<path class="st1" d="M56.6,60.8c2.6-1.6,4.7-4,5-7c0-0.2-0.3-0.3-0.4-0.1c-0.5,1.4-0.8,2.8-1.7,4c-0.8,1.2-1.9,2-3.1,2.8
				C56.2,60.6,56.4,60.9,56.6,60.8z"/>
			<path class="st1" d="M54.6,59.3c2-2.5,3.3-5.4,3.8-8.5c0-0.3-0.4-0.3-0.4,0c-0.4,3.1-1.8,5.9-3.7,8.3
				C54.1,59.3,54.5,59.6,54.6,59.3z"/>
			<path class="st1" d="M41.5,70.6c1.4,0.4,3.1,0.3,4.4-0.3c0.2-0.1,0.1-0.4-0.1-0.4c-1.4,0.3-2.8,0.5-4.2,0.3
				C41.3,70.1,41.2,70.5,41.5,70.6z"/>
			<path class="st1" d="M41.3,68.6c1.5,0.3,3.3,0.4,4.8,0c0.2-0.1,0.2-0.4-0.1-0.4c-1.6,0.1-3.1,0.2-4.7,0
				C41,68.1,41,68.5,41.3,68.6z"/>
			<path class="st1" d="M40.9,65.5c1.7,0.7,3.7,1.2,5.5,1c0.2,0,0.2-0.4,0-0.4c-1.9-0.2-3.6-0.4-5.4-1C40.8,65,40.6,65.4,40.9,65.5z
				"/>
			<path class="st1" d="M41.2,62.8c1.8,0.8,3.9,1.4,5.9,1c0.2-0.1,0.2-0.4-0.1-0.4c-2.1,0.1-3.7-0.4-5.7-1
				C41.1,62.4,41,62.7,41.2,62.8z"/>
			<path class="st1" d="M41.6,59.4c2.2,0.8,4.2,1.8,6.4,2.4c0.3,0.1,0.4-0.3,0.2-0.4c-2.2-0.7-4.3-1.6-6.5-2.3
				C41.5,59,41.3,59.3,41.6,59.4z"/>
			<path class="st1" d="M47.8,37.8c1.5-1.4,2.5-3.5,2.1-5.6c-0.1-0.3-0.4-0.2-0.4,0.1c0.1,2.1-0.6,3.7-2,5.3
				C47.4,37.7,47.6,38,47.8,37.8z"/>
			<path class="st1" d="M50.9,37.7c0.7-1.4,1.4-2.9,1.7-4.5c0-0.2-0.3-0.3-0.3-0.1c-0.5,1.5-1,3-1.7,4.4
				C50.5,37.8,50.8,37.9,50.9,37.7z"/>
			<path class="st1" d="M52.9,37.8c1-1.3,1.8-2.8,1.7-4.5c0-0.2-0.3-0.3-0.3,0c-0.1,1.7-0.7,3-1.7,4.3C52.5,37.7,52.8,38,52.9,37.8z
				"/>
			<path class="st1" d="M54.4,38.5c1,0,1.9-1.2,2.2-2.1c0.1-0.2-0.2-0.3-0.3-0.1c-0.3,0.8-1,1.8-1.9,1.9
				C54.2,38.2,54.3,38.5,54.4,38.5z"/>
			<path class="st1" d="M32.3,42.2c0.9,1.1,2.1,1.8,3.5,1.6c0.2,0,0.2-0.4,0-0.4c-1.4,0-2.4-0.4-3.3-1.5
				C32.5,41.8,32.2,42,32.3,42.2z"/>
			<path class="st1" d="M32,45.5c0.3,0.5,1.1,0.6,1.6,0.7c0.9,0.2,1.8,0.3,2.7,0.1c0.3-0.1,0.2-0.5-0.1-0.5c-1.4,0.1-2.7,0-4-0.6
				C32,45.1,31.9,45.4,32,45.5z"/>
			<path class="st1" d="M32,47.9c1.5,0.8,3.4,1.2,4.9,0.4c0.2-0.1,0.1-0.5-0.1-0.4c-1.7,0.4-3,0.3-4.6-0.3
				C32,47.5,31.8,47.8,32,47.9z"/>
			<path class="st1" d="M33.1,51c1.6,0,3.5,0.2,4.9-0.7c0.2-0.1,0-0.4-0.2-0.3c-1.5,0.8-3.1,0.7-4.7,0.6C32.9,50.6,32.9,51,33.1,51z
				"/>
			<path class="st1" d="M37.8,50c1.9,1.4,5.7-0.3,7.4-1.1c2.6-1.1,5.8-2.7,7-5.4c0.1-0.3-0.3-0.4-0.4-0.2c-2,4.4-9.5,6.8-13.9,6.3
				C37.7,49.6,37.7,49.8,37.8,50z"/>
			<path class="st1" d="M35.9,43.5c4.1-0.3,8.1-2.6,10.6-6c0.1-0.2-0.1-0.4-0.3-0.3c-3,3.1-6.1,5.3-10.4,5.8
				C35.6,43.2,35.7,43.5,35.9,43.5z"/>
			<path class="st1" d="M45.9,37.8c0.6,0.3,0.9,0.9,1.3,1.3c0.1,0.2,0.4-0.1,0.3-0.2c-0.5-0.5-0.8-1.1-1.4-1.4
				C45.9,37.4,45.7,37.7,45.9,37.8z"/>
			<path class="st1" d="M49.6,42.8c1.4,2.6,1.6,5.2,2,8c0,0.2,0.4,0.2,0.4,0c0.2-2.8-0.7-5.8-2.1-8.1C49.7,42.5,49.5,42.6,49.6,42.8
				z"/>
		</g>
		<path class="st1" d="M39,57.1c0.6-0.3,0.9-1.1,1-1.8c0-0.4-0.6-0.5-0.6-0.1c-0.1,0.6-0.4,1-0.7,1.5C38.6,56.9,38.8,57.2,39,57.1z"
			/>
		<path class="st1" d="M43,24c-0.6-0.6-1.5-0.5-2.1,0.1c-0.8,0.9-0.5,2.2-0.1,3.1c0.4,1,1,2,2,2.4s1.9-0.2,2.3-1.2
			c0.2-0.4-0.4-0.7-0.7-0.4c-1,1.4-2.4,0.7-3.1-0.6c-0.3-0.6-0.6-1.3-0.5-2c0.1-1,1-1.5,1.8-1.1C42.9,24.4,43.1,24.1,43,24z"/>
		<path class="st1" d="M43.7,25c-0.5-0.3-1.2-0.5-1.7,0c-0.4,0.5-0.3,1.5-0.1,2c0.1,0.2,0.3,0.1,0.3-0.1c-0.1-0.4-0.2-1,0.1-1.4
			s0.8-0.3,1.2-0.2C43.7,25.4,43.9,25.1,43.7,25z"/>
		<path class="st1" d="M42.4,27.5L42.4,27.5c0.2,0.2,0.4,0,0.3-0.2c0,0,0,0-0.1-0.1C42.4,27.1,42.2,27.3,42.4,27.5z"/>
		<path class="st1" d="M43.1,28c0.5,0.2,1.1,0.2,1.4-0.3c0.3-0.3,0.5-1.1,0.1-1.3c-0.1-0.1-0.3,0-0.4,0.1c-0.1,0.2,0,0.4-0.1,0.7
			c-0.1,0.3-0.5,0.6-0.9,0.5C43,27.6,42.9,27.9,43.1,28z"/>
		<path class="st1" d="M35.3,37.2c-0.5,1.1,0.2,2,1.3,2.3c2.1,0.5,5-0.7,6.6-1.8c1.3-0.8,3.1-2.1,3.4-3.7c0.2-1.3-0.6-2.3-1.8-2.5
			c-0.4-0.1-0.5,0.6-0.1,0.6c2.9,0.7,0.4,3.2-0.3,3.9c-0.7,0.6-1.5,1.2-2.4,1.6c-0.7,0.4-1.4,0.6-2.2,0.9c-0.6,0.2-5.2,1.5-4.3-1.1
			C35.8,37,35.4,36.9,35.3,37.2z"/>
		<path class="st1" d="M37,38.4C37,38.4,37.1,38.3,37,38.4c0.2-0.2,0-0.4-0.1-0.4h-0.1C36.3,38,36.6,38.8,37,38.4z"/>
		<path class="st1" d="M56.7,49.7c1-0.2,2.3-1,2.5-2.1c0.1-0.7-0.3-1.5-0.5-2.1c-0.3-0.9-0.6-1.7-0.9-2.6c-0.1-0.4-0.7-0.1-0.5,0.3
			c0.5,1,0.9,2,1.2,3.1c0.5,1.7-0.5,2.4-1.8,2.9C56.2,49.3,56.4,49.7,56.7,49.7z"/>
		<path class="st1" d="M44.4,26c0.5-0.2,1-0.4,1.5-0.5c0.5-0.2,1.1-0.1,1.7-0.2c0.2,0,0.2-0.3,0-0.3c-1.2-0.5-2.3,0.1-3.4,0.6
			C44.1,25.7,44.3,26.1,44.4,26z"/>
		<path class="st1" d="M47.4,25.3c2.4,2.2,4,5.6,5.8,8.2c0.2,0.2,0.5,0,0.4-0.3c-0.9-1.6-1.9-3.1-2.9-4.6c-0.9-1.3-1.7-2.9-3-3.8
			C47.4,24.8,47.2,25.1,47.4,25.3z"/>
		<path class="st1" d="M45,29.8c1.6-0.5,3-1.6,4.3-2.6c0.3-0.2-0.1-0.6-0.3-0.4c-1.3,1.1-2.7,1.8-4.1,2.7
			C44.6,29.5,44.8,29.8,45,29.8z"/>
		<path class="st1" d="M46.7,31.5c1.4-0.6,2.7-1.3,3.9-2.3c0.2-0.2-0.1-0.5-0.3-0.4c-1.2,0.9-2.4,1.7-3.8,2.3
			C46.3,31.3,46.5,31.6,46.7,31.5z"/>
		<path class="st1" d="M54.3,47.3c1.5-0.3,3-1.2,3.8-2.6c0.1-0.2-0.2-0.5-0.4-0.2c-0.9,1.2-2,2.1-3.5,2.5C54,47,54.1,47.3,54.3,47.3
			z"/>
		<path class="st1" d="M53.7,45.3c0.7-0.1,1.4-0.6,1.9-1c0.2-0.2-0.1-0.5-0.2-0.3c-0.6,0.5-1.1,0.7-1.8,1
			C53.4,45,53.5,45.4,53.7,45.3z"/>
		<path class="st1" d="M64.4,63.4c3.2,0.5,6.9,0.9,9.6-1.1c0.2-0.1,0-0.4-0.2-0.3c-3.1,1.6-6.1,1.3-9.4,1
			C64.2,63,64.2,63.4,64.4,63.4z"/>
		<path class="st1" d="M37.5,79.3c3-1,6.7-3.5,7.4-6.8c0-0.2-0.3-0.3-0.3-0.1c-1.2,3.2-4.2,5.4-7.3,6.5C37.1,79,37.2,79.4,37.5,79.3
			z"/>
	</g>
</g>
</svg>
