<?xml version="1.0" encoding="utf-8"?>
<!-- Generator: Adobe Illustrator 27.2.0, SVG Export Plug-In . SVG Version: 6.00 Build 0)  -->
<svg version="1.1" id="_x5F_" xmlns="http://www.w3.org/2000/svg" xmlns:xlink="http://www.w3.org/1999/xlink" x="0px" y="0px"
	 viewBox="0 0 161.8 111.7" style="enable-background:new 0 0 161.8 111.7;" xml:space="preserve">
<style type="text/css">
	.st0{fill:none;}
	.st1{fill:#F2F2F2;}
</style>
<rect y="0" class="st0" width="161.8" height="111.7"/>
<g>
	<g>
		<path class="st1" d="M42,72.2c-8-20.3-0.4-45.1,20.9-53.4c20.5-8,47.5,4.5,51,27.3c0.1,0.7,1.1,0.5,1-0.2
			c-3.2-23-30.4-36-51.1-28.6c-22.2,7.8-31.6,34.1-22.4,55.1C41.5,72.9,42.2,72.6,42,72.2z"/>
		<path class="st1" d="M48,81.9c9.6,12.6,29.9,15.5,44.2,10.6c14.1-4.8,22.8-19,23.9-33.5c0-0.4-0.5-0.4-0.6-0.1
			C113,72.3,106.7,85.7,93.2,91c-14.7,5.7-34,2.6-44.8-9.4C48.2,81.2,47.7,81.6,48,81.9z"/>
		<path class="st1" d="M38.1,59.8c-2.3,1.6-7.3,5.8-6,9.1c1.2,3.3,7.3,3.1,10.1,3.2c0.4,0,0.5-0.6,0.1-0.7
			c-2.7-0.5-10.5,0.1-9.4-4.6c0.6-2.6,3.7-5.1,5.5-6.8C38.5,59.9,38.3,59.7,38.1,59.8z"/>
		<path class="st1" d="M41.2,72.1c11.9-0.4,24.1-3.4,35.4-6.9c11.4-3.6,23-8.1,33.2-14.5c0.3-0.2,0.1-0.7-0.2-0.5
			c-11.2,5.3-22.1,10.6-34,14.2c-11.3,3.5-22.8,5.1-34.4,7.1C40.8,71.6,40.8,72.1,41.2,72.1z"/>
		<path class="st1" d="M110.8,50.2c2.4-1.5,4.5-3.1,6.5-5.1c1.4-1.3,3.1-2.9,3.5-4.8c0.9-4.7-5.1-4.7-8.1-4.9
			c-0.3,0-0.5,0.5-0.1,0.6c1.4,0.4,2.7,0.4,4.1,0.6c2.1,0.4,2,0.5,2.3,2.9c0.3,2.6,0.3,2.4-1.5,4.3c-2.1,2.2-4.5,4.2-7,6
			C110.3,49.9,110.6,50.3,110.8,50.2z"/>
		<path class="st1" d="M38.2,54.3C32,57,26.1,60.4,20.7,64.5c-3.7,2.8-9.4,6.7-10.8,11.4C6.6,87,29.8,84.4,35.3,83.5
			c0.4-0.1,0.3-0.6-0.1-0.5c-5.6,0.5-11.1,0.6-16.7-0.2c-3.1-0.4-8-0.6-8.1-5.4c0-3.1,3.6-6.1,5.7-8c6.6-6.2,14.4-10.6,22.4-14.6
			C38.7,54.7,38.5,54.2,38.2,54.3z"/>
		<path class="st1" d="M37.7,83.5c15.5-1.5,31.1-5.8,45.8-11c14.6-5.1,29.6-11.5,42.6-20c0.3-0.2,0-0.7-0.3-0.5
			C112.1,59.2,98.7,66.2,84,71.4C68.8,76.8,53.4,79.9,37.7,83C37.3,83,37.4,83.5,37.7,83.5z"/>
		<path class="st1" d="M128.8,50.9c4.4-2.3,22.2-15.9,13.3-21.6c-0.3-0.2-0.6,0.2-0.4,0.4c6.4,6.4-8.1,17.8-13.1,20.8
			C128.3,50.7,128.5,51.1,128.8,50.9z"/>
		<path class="st1" d="M107,29.6c11.1-0.6,21.3-3.3,32.4-1c0.3,0.1,0.3-0.4,0.1-0.4c-9.6-3.6-22.9-0.9-32.6,1.1
			C106.7,29.3,106.7,29.6,107,29.6z"/>
		<path class="st1" d="M70.6,60.5c8.8-1.9,17.5-5.3,25.1-10.1c0.2-0.1,0.1-0.5-0.2-0.4c-8.1,4.4-16.1,7.6-25.1,9.9
			C70.2,60.1,70.3,60.6,70.6,60.5z"/>
		<path class="st1" d="M77.9,60.3c5.1-1.9,10.2-4,15-6.6c0.2-0.1,0.1-0.5-0.2-0.4c-5,2.3-9.9,4.6-15,6.6
			C77.4,60,77.6,60.4,77.9,60.3z"/>
		<path class="st1" d="M95.6,52.6c5.8-2.6,11.7-6.6,15.9-11.3c0.2-0.2-0.1-0.5-0.3-0.3c-5.1,4.2-9.9,8-15.7,11.2
			C95.2,52.3,95.4,52.7,95.6,52.6z"/>
		<path class="st1" d="M96.8,50.5c1.3-0.7,2.7-1.4,4-2.4c0.2-0.1,0-0.4-0.2-0.3c-1.4,0.6-2.7,1.4-4,2.2
			C96.2,50.2,96.5,50.7,96.8,50.5z"/>
		<path class="st1" d="M102.4,46.8c3.3-2.3,6.7-5.1,9-8.6c0.1-0.2-0.1-0.5-0.3-0.3c-2.9,3-5.6,6-9,8.5
			C101.9,46.6,102.2,47,102.4,46.8z"/>
		<path class="st1" d="M102.2,45.1c1.8-1.6,3.8-3.1,5.5-4.9c0.2-0.2,0-0.5-0.3-0.3c-2,1.4-3.7,3.2-5.5,4.8
			C101.6,44.9,101.9,45.3,102.2,45.1z"/>
		<path class="st1" d="M96.6,48.2c0.8-0.6,1.7-1.2,2.5-1.8c0.2-0.1,0-0.4-0.2-0.3c-0.9,0.6-1.7,1.2-2.5,1.8
			C96.2,48.1,96.4,48.4,96.6,48.2z"/>
		<path class="st1" d="M39.8,64.5c7.5-0.1,15.1-1,22.3-3.3c0.2-0.1,0.1-0.4-0.1-0.3c-7.4,1.8-14.5,3.1-22.2,3.2
			C39.5,64,39.5,64.5,39.8,64.5z"/>
		<path class="st1" d="M45.1,66c4.4-0.5,8.8-1.1,13.1-2.1c0.2-0.1,0.2-0.4-0.1-0.3c-4.4,0.7-8.7,1.5-13.1,2
			C44.8,65.6,44.8,66,45.1,66z"/>
		<path class="st1" d="M63.3,62c1.4-0.3,2.8-0.6,4.1-1.1c0.2-0.1,0.1-0.4-0.1-0.4c-1.4,0.2-2.7,0.6-4,1C62.9,61.6,63,62.1,63.3,62z"
			/>
		<path class="st1" d="M61.8,63.2c2.8-0.1,5.7-0.6,8.3-1.7c0.2-0.1,0.1-0.4-0.2-0.3c-2.7,0.9-5.3,1.5-8.2,1.7
			C61.5,62.8,61.5,63.2,61.8,63.2z"/>
		<path class="st1" d="M77,56.9c6.1-2.1,12-4.7,17.2-8.5c0.2-0.1,0-0.5-0.2-0.4c-5.6,3.3-11.1,6.2-17.2,8.4
			C76.5,56.6,76.7,57,77,56.9z"/>
		<path class="st1" d="M90.3,48.4c1.9-0.7,3.7-1.6,5.3-3c0.2-0.1,0-0.5-0.2-0.3c-1.7,1.1-3.4,2.1-5.3,2.9
			C89.9,48.1,90.1,48.5,90.3,48.4z"/>
		<path class="st1" d="M97.5,45.5c3.7-1.8,7.5-4.2,10-7.5c0.1-0.2-0.1-0.4-0.3-0.3c-3.1,2.8-6,5.5-9.9,7.4
			C97.1,45.2,97.3,45.6,97.5,45.5z"/>
		<path class="st1" d="M42.8,63c6.4-0.5,12.9-1.6,18.9-3.7c0.2-0.1,0.1-0.4-0.1-0.4c-6.3,1.6-12.4,3-18.9,3.7
			C42.5,62.6,42.6,63,42.8,63z"/>
		<path class="st1" d="M49.8,60.6c2.3-0.4,4.7-0.9,7-1.6c0.2-0.1,0.2-0.4-0.1-0.4c-2.3,0.3-4.7,0.9-7,1.5
			C49.5,60.2,49.5,60.6,49.8,60.6z"/>
		<path class="st1" d="M41.8,69.9c5.3,0.6,10.6,0.2,15.6-1.6c0.2-0.1,0.1-0.4-0.1-0.3c-5.1,1.4-10.2,2-15.5,1.5
			C41.5,69.4,41.5,69.9,41.8,69.9z"/>
		<path class="st1" d="M44.2,68.8c3.4,0.2,6.7,0.1,10-0.5c0.2,0,0.2-0.4-0.1-0.3c-3.3,0.4-6.6,0.6-9.9,0.4
			C44,68.4,43.9,68.8,44.2,68.8z"/>
		<path class="st1" d="M72.3,61.6c1.1-0.5,2.2-0.6,3.4-0.9c0.2-0.1,0.2-0.4,0-0.4c-1.2-0.1-2.5,0.4-3.6,0.9
			C71.9,61.4,72.1,61.8,72.3,61.6z"/>
		<path class="st1" d="M58.3,65c1.4-0.2,2.8-0.4,4.1-0.7c0.2-0.1,0.2-0.4-0.1-0.4c-1.4,0.1-2.8,0.5-4.1,0.7C58,64.7,58.1,65,58.3,65
			z"/>
		<path class="st1" d="M59.1,63.6c0.7-0.1,1.4-0.2,2.1-0.4c0.2-0.1,0.2-0.4-0.1-0.4c-0.7,0.1-1.4,0.2-2.1,0.4
			C58.7,63.2,58.8,63.6,59.1,63.6z"/>
		<path class="st1" d="M63.6,60.4c3.2-0.7,6.5-1.5,9.6-2.5c0.2-0.1,0.1-0.4-0.1-0.4c-3.2,0.6-6.4,1.6-9.5,2.5
			C63.3,60.1,63.4,60.5,63.6,60.4z"/>
		<path class="st1" d="M70.9,57.5c0.9-0.3,1.9-0.6,2.8-1c0.2-0.1,0.1-0.4-0.1-0.3c-1,0.3-1.9,0.6-2.9,1
			C70.4,57.1,70.6,57.5,70.9,57.5z"/>
		<path class="st1" d="M90.7,58.3c5.8-2.1,11.5-4.8,16.6-8.3c0.2-0.1,0-0.4-0.2-0.3c-5.5,3-10.8,5.8-16.6,8.3
			C90.3,58.1,90.5,58.4,90.7,58.3z"/>
		<path class="st1" d="M99.5,52.9c2.1-1.1,4.3-2.1,6.4-3.3c0.2-0.1,0.1-0.4-0.2-0.3c-2.2,0.9-4.3,2.2-6.4,3.3
			C99.1,52.7,99.3,53.1,99.5,52.9z"/>
		<path class="st1" d="M59.7,76.8c14.1-3.3,28-8,40.9-14.7c0.2-0.1,0.1-0.5-0.2-0.4c-13.2,6.1-26.6,11.2-40.8,14.6
			C59.3,76.5,59.4,76.9,59.7,76.8z"/>
		<path class="st1" d="M78.9,68.8c2.7-0.4,5.3-1.3,7.6-2.8c0.2-0.1,0.1-0.5-0.2-0.4c-2.4,1.2-4.9,2.1-7.5,2.7
			C78.6,68.4,78.6,68.9,78.9,68.8z"/>
		<path class="st1" d="M103,61.9c10.2-4.4,20.3-9.2,29.1-16.1c2.8-2.2,12.4-8.5,9.1-13.1c-0.2-0.3-0.7,0-0.5,0.3
			c3,5.7-13.6,15.6-16.9,17.7c-6.7,4.2-13.9,7.5-21,10.8C102.6,61.7,102.8,62.1,103,61.9z"/>
		<path class="st1" d="M11.6,77.2c1.3,5.1,9.1,5.2,13.3,5.2c8.1,0,16.7-1.6,24.7-3.2c0.3-0.1,0.2-0.5-0.1-0.4
			c-5.6,0.6-11.1,1.6-16.6,2.4c-5,0.6-18.8,2.6-20.8-4C11.9,76.9,11.5,77,11.6,77.2z"/>
		<path class="st1" d="M50.7,79c1.7-0.1,3.5-0.6,4.9-1.6c0.2-0.1,0-0.4-0.2-0.3c-1.6,0.7-3,1.3-4.8,1.5C50.3,78.6,50.4,79.1,50.7,79
			z"/>
		<path class="st1" d="M12.7,75.5c4.6-5.6,9.7-9.6,15.7-13.5c0.2-0.1,0-0.4-0.2-0.3c-6.2,2.9-11.8,8.1-15.9,13.6
			C12.1,75.4,12.5,75.7,12.7,75.5z"/>
		<path class="st1" d="M15.3,73.7c-1.6,1.7-2.8,4.5-0.4,6.1c2.9,1.9,7.4,1.8,10.6,0.9c0.3-0.1,0.2-0.5-0.1-0.4
			c-2.4,0.4-4.8,0.5-7.3,0c-1-0.2-2.3-0.5-3.1-1.2c-2-1.8-0.3-3.8,0.7-5.2C15.8,73.7,15.5,73.4,15.3,73.7z"/>
		<path class="st1" d="M32.6,80.6c11.2-1.7,22.6-3.9,33.3-7.6c0.2-0.1,0.1-0.5-0.1-0.4c-11.1,2.8-22,5.7-33.3,7.6
			C32.3,80.2,32.4,80.6,32.6,80.6z"/>
		<path class="st1" d="M67.2,73c2.5-0.8,4.9-1.7,7.3-2.6c0.2-0.1,0.1-0.4-0.1-0.4c-2.5,0.8-4.9,1.6-7.3,2.6
			C66.8,72.6,66.9,73.1,67.2,73z"/>
		<path class="st1" d="M89.1,65.4c14-4.8,28.3-10.8,40.5-19.2c0.2-0.1,0-0.5-0.2-0.3c-13.3,7.2-26.2,14.1-40.5,19.2
			C88.7,65.1,88.9,65.4,89.1,65.4z"/>
		<path class="st1" d="M111.7,30.7c0.7-0.1,1.4-0.2,2.1-0.4c0.3-0.1,0.2-0.4-0.1-0.4c-0.7,0.1-1.4,0.2-2.1,0.4
			C111.3,30.2,111.4,30.7,111.7,30.7z"/>
		<path class="st1" d="M116.2,30.1c4.1-0.8,8.3-1.1,12.4-1.6c0.2,0,0.2-0.4,0-0.4c-4.2-0.2-8.5,0.6-12.5,1.5
			C115.9,29.7,115.9,30.1,116.2,30.1z"/>
		<path class="st1" d="M115.3,32.2c0.8,0.2,1.6,0.2,2.3-0.2c0.2-0.1,0.1-0.4-0.1-0.4c-0.7,0.2-1.4,0.3-2,0.1
			C115.2,31.6,115,32.1,115.3,32.2z"/>
		<path class="st1" d="M120.3,31.7c1.6-0.1,3.1,0,4.7,0c0.3,0,0.3-0.3,0-0.4c-1.6-0.3-3.3-0.2-4.9-0.1
			C119.9,31.3,120,31.8,120.3,31.7z"/>
		<path class="st1" d="M132.8,32.5c0.4,0.2,0.9,0.4,1.3,0.6c1.1,0.6,1.1,0.7,1.1,2.1c0.1,1.4,0.1,1.4-0.7,2.2
			c-0.4,0.4-0.8,0.9-1.3,1.3c-1.6,1.3-3.3,2.2-5.2,3.1c-0.2,0.1-0.1,0.5,0.1,0.4c2.7-0.7,6.1-2.9,7.6-5.4c1.4-2.4-0.6-4-2.8-4.6
			C132.7,32.1,132.6,32.4,132.8,32.5z"/>
		<path class="st1" d="M130.7,30.7c2.5-0.2,9.5,0.4,8.2,4.6c-0.6,2-2.6,3.3-3.8,4.9c-0.2,0.2,0.1,0.5,0.3,0.3
			c1.7-1.4,4.8-4.2,4.1-6.8c-0.9-3.4-6.3-3.7-9-3.4C130.4,30.4,130.5,30.7,130.7,30.7z"/>
		<path class="st1" d="M17.8,71.5c1.4-0.9,2.8-1.9,4-3c0.2-0.1,0-0.4-0.2-0.3c-1.4,0.9-2.8,1.9-4,3C17.4,71.3,17.6,71.6,17.8,71.5z"
			/>
		<path class="st1" d="M21.1,70.5c-2.7,2.6-8.6,7.9-1.2,8.4c8.2,0.6,17.3-0.3,25.2-2.6c0.2-0.1,0.2-0.5-0.1-0.4
			c-4.6,1.1-9.3,1.7-14,2.1c-2.8,0.2-5.5,0.3-8.3,0.3c-0.7,0-2.1,0.3-2.7,0c-5-2,0.2-6.3,1.4-7.6C21.5,70.6,21.3,70.3,21.1,70.5z"/>
		<path class="st1" d="M51.4,72.2c7.3-1.1,14.7-2.5,21.7-4.9c0.2-0.1,0.1-0.4-0.1-0.3c-7.2,1.7-14.3,3.5-21.6,4.8
			C51.1,71.9,51.2,72.3,51.4,72.2z"/>
		<path class="st1" d="M77.4,66.2c0.6-0.2,1.4-0.4,2-0.7c0.2-0.1,0.1-0.4-0.1-0.4c-0.7,0.1-1.4,0.4-2,0.7
			C76.9,65.9,77.1,66.3,77.4,66.2z"/>
		<path class="st1" d="M81.9,64.8c5.3-1.6,10.4-3.4,15.3-5.9c0.2-0.1,0.1-0.4-0.2-0.3c-5,2.2-10,4.3-15.2,5.9
			C81.6,64.5,81.7,64.9,81.9,64.8z"/>
		<path class="st1" d="M32.7,63.1c-2,1.7-4.2,4.3-3.2,7.1s5,2.9,7.4,2.8c0.3,0,0.3-0.4,0-0.4c-2.2-0.2-6-0.1-6.9-2.6
			c-0.9-2.7,1.3-4.8,3-6.6C33.2,63.2,32.9,62.9,32.7,63.1z"/>
		<path class="st1" d="M27.7,70.3c-0.3,1.4,1.1,3.1,2.6,2.7c0.2-0.1,0.2-0.4,0-0.4c-0.6,0-1.2-0.1-1.6-0.6c-0.4-0.4-0.6-1-0.5-1.6
			C28.2,70.1,27.8,70.1,27.7,70.3z"/>
		<path class="st1" d="M34.4,61.2c1.3-0.9,2.6-1.7,3.8-2.6c0.1-0.1,0-0.4-0.2-0.3c-1.3,0.8-2.6,1.7-3.9,2.6
			C33.9,61.1,34.2,61.4,34.4,61.2z"/>
		<path class="st1" d="M33,58.9c0.5-0.4,1-0.8,1.5-1.1s1.1-0.4,1.6-0.7c0.2-0.1,0.1-0.4-0.1-0.4c-1.2,0.2-2.4,1-3.2,1.8
			C32.5,58.8,32.8,59.1,33,58.9z"/>
		<path class="st1" d="M103.3,55.5c6-2.8,11.9-6.4,16.7-11c0.2-0.2-0.1-0.5-0.3-0.3c-5.3,4.1-10.5,8-16.6,11
			C102.9,55.3,103,55.6,103.3,55.5z"/>
		<path class="st1" d="M122,40.5c1.1-2-0.3-5.5-3-5.2c-0.2,0-0.2,0.3,0,0.4c2,0.5,3.7,2.5,2.6,4.7C121.5,40.5,121.9,40.7,122,40.5z"
			/>
		<path class="st1" d="M66.5,78.5c8.1-1.4,16.1-4,23.4-7.8c0.2-0.1,0.1-0.5-0.2-0.4c-7.6,3.3-15.2,5.9-23.3,7.7
			C66.1,78.1,66.2,78.6,66.5,78.5z"/>
		<path class="st1" d="M70.1,79.1c7.5-2.2,15-4.8,22.2-8c0.2-0.1,0.1-0.5-0.2-0.4c-7.3,2.8-14.6,5.6-22.1,8
			C69.8,78.8,69.9,79.2,70.1,79.1z"/>
		<path class="st1" d="M90.4,71.3c4.7-1.9,9.4-3.7,14-5.9c0.3-0.1,0.1-0.5-0.2-0.4c-4.7,1.7-9.3,3.9-14,5.9
			C89.9,71,90.1,71.4,90.4,71.3z"/>
		<path class="st1" d="M87.1,74c5.9-2,11.8-4.4,17.1-7.7c0.2-0.1,0.1-0.5-0.2-0.4c-5.6,2.9-11.2,5.6-17.1,7.6
			C86.6,73.7,86.8,74.1,87.1,74z"/>
		<path class="st1" d="M83.1,77.3c6.4-2.6,13-5,19.3-7.9c0.3-0.1,0.1-0.5-0.2-0.4c-6.5,2.3-12.9,5.2-19.3,7.9
			C82.7,77,82.9,77.5,83.1,77.3z"/>
		<path class="st1" d="M88.2,77.2c8.3-3,16.4-6.7,23.7-11.7c0.2-0.1,0-0.5-0.2-0.3c-7.6,4.5-15.4,8.5-23.7,11.5
			C87.7,76.9,87.9,77.3,88.2,77.2z"/>
		<path class="st1" d="M102.8,68.8c4.4-1.7,8.8-3.9,12.6-6.6c0.2-0.1,0-0.5-0.2-0.4c-4.2,2.3-8.3,4.6-12.6,6.6
			C102.4,68.5,102.6,68.9,102.8,68.8z"/>
		<path class="st1" d="M102,67.6c4.6-1.7,9.4-3.8,13.3-6.8c0.2-0.1,0-0.4-0.2-0.3c-4.4,2.4-8.6,4.9-13.3,6.7
			C101.5,67.2,101.7,67.7,102,67.6z"/>
		<path class="st1" d="M103.2,65.9c3.5-1.5,7-3.3,10.1-5.5c0.2-0.1,0-0.5-0.2-0.4c-3.4,1.8-6.7,3.7-10.1,5.5
			C102.8,65.7,102.9,66,103.2,65.9z"/>
		<path class="st1" d="M52.8,81.9c6.2-0.6,12.3-2.4,17.8-5.4c0.2-0.1,0.1-0.5-0.2-0.4c-5.7,2.6-11.5,4.4-17.7,5.3
			C52.4,81.5,52.5,81.9,52.8,81.9z"/>
		<path class="st1" d="M56.5,82.3c5.4-1.5,10.9-2.9,16.3-4.6c0.2-0.1,0.1-0.4-0.1-0.4c-5.5,1.3-10.8,3-16.2,4.5
			C56.1,81.9,56.2,82.4,56.5,82.3z"/>
		<path class="st1" d="M56.6,83.9c6.5-1.8,13-3.7,19.3-6c0.2-0.1,0.1-0.5-0.1-0.4c-6.5,1.9-12.9,4-19.3,6
			C56.3,83.5,56.4,84,56.6,83.9z"/>
		<path class="st1" d="M59.5,84.4c8.5-2.3,17-5,25.2-8.3c0.2-0.1,0.1-0.4-0.2-0.4c-8.3,2.9-16.7,5.7-25.1,8.2
			C59.1,84,59.2,84.5,59.5,84.4z"/>
		<path class="st1" d="M63.5,84.4c7.5-2.1,15-4.4,22.1-7.6c0.2-0.1,0.1-0.4-0.2-0.3c-7.3,2.7-14.5,5.5-22,7.6
			C63.2,84,63.2,84.4,63.5,84.4z"/>
		<path class="st1" d="M65.1,85.6c1.5-0.4,3-0.8,4.5-1.2c0.2-0.1,0.2-0.4-0.1-0.4c-1.5,0.3-3,0.7-4.5,1.1
			C64.7,85.2,64.8,85.7,65.1,85.6z"/>
		<path class="st1" d="M71.6,83.9c6.1-2.1,12.2-4.2,18.2-6.5c0.2-0.1,0.1-0.4-0.2-0.4c-6.1,2-12.2,4.3-18.2,6.5
			C71.2,83.6,71.4,84,71.6,83.9z"/>
		<path class="st1" d="M72.8,84.8c8-2.3,15.9-5.1,23.5-8.7c0.2-0.1,0.1-0.5-0.2-0.4c-7.7,3.2-15.4,6.2-23.4,8.6
			C72.5,84.4,72.5,84.8,72.8,84.8z"/>
		<path class="st1" d="M97.1,74.6c2.7-1,5.4-2.1,8-3.2c0.2-0.1,0.1-0.4-0.2-0.3c-2.7,1-5.4,2.1-8,3.2C96.6,74.3,96.8,74.7,97.1,74.6
			z"/>
		<path class="st1" d="M106.7,70.1c2.6-1.4,5.2-2.8,7.6-4.6c0.2-0.1,0-0.4-0.2-0.3c-2.5,1.5-5,3.1-7.6,4.5
			C106.2,69.9,106.4,70.3,106.7,70.1z"/>
		<path class="st1" d="M48.3,82c2.8,0.3,5.8,0.2,8.6-0.6c0.2-0.1,0.2-0.4-0.1-0.4c-2.8,0.4-5.6,0.7-8.4,0.5
			C48.1,81.5,48,81.9,48.3,82z"/>
		<path class="st1" d="M48.7,83.2c3,0,5.9-0.4,8.8-1.1c0.2-0.1,0.2-0.4-0.1-0.4c-2.9,0.4-5.8,0.7-8.8,0.9
			C48.4,82.7,48.4,83.2,48.7,83.2z"/>
		<path class="st1" d="M50.7,84.2c2.5-0.3,5-0.7,7.4-1.2c0.3-0.1,0.2-0.4-0.1-0.4c-2.5,0.2-5,0.7-7.4,1.1
			C50.3,83.8,50.4,84.2,50.7,84.2z"/>
		<path class="st1" d="M51.3,85.3c2.9-0.1,5.8-0.4,8.6-1.1c0.2-0.1,0.2-0.4-0.1-0.4c-2.8,0.5-5.6,0.9-8.5,1.1
			C51,84.9,51,85.3,51.3,85.3z"/>
		<path class="st1" d="M53.9,86.4c2.7-0.1,5.4-0.6,8.1-1.3c0.2-0.1,0.2-0.4-0.1-0.4c-2.7,0.5-5.4,0.9-8.1,1.2
			C53.6,86,53.7,86.4,53.9,86.4z"/>
		<path class="st1" d="M56,87.3c3.7,0,7.6-0.8,11-2.1c0.2-0.1,0.1-0.5-0.1-0.4c-3.6,1-7.1,1.7-10.9,2.1C55.7,86.9,55.8,87.3,56,87.3
			z"/>
		<path class="st1" d="M58.6,88.8c3.5-0.5,7-1.4,10.2-2.7c0.2-0.1,0.1-0.5-0.1-0.4c-3.4,1-6.7,1.9-10.2,2.6
			C58.2,88.4,58.3,88.9,58.6,88.8z"/>
		<path class="st1" d="M60.9,90.3c0.5-0.1,1-0.2,1.5-0.4c0.2-0.1,0.1-0.4-0.1-0.4c-0.5,0-1,0.1-1.5,0.2
			C60.5,89.8,60.6,90.4,60.9,90.3z"/>
		<path class="st1" d="M65.7,88.6c3-0.4,5.8-1.3,8.5-2.7c0.2-0.1,0.1-0.4-0.2-0.3c-2.7,1.1-5.5,2-8.4,2.6
			C65.3,88.2,65.4,88.6,65.7,88.6z"/>
		<path class="st1" d="M69.6,85.7c0.8-0.1,1.7-0.2,2.5-0.4c0.2-0.1,0.2-0.4-0.1-0.4c-0.8,0.1-1.7,0.2-2.5,0.4
			C69.2,85.3,69.3,85.8,69.6,85.7z"/>
		<path class="st1" d="M70.4,84.5c0.2,0,0.2-0.3,0-0.3C70.3,84.2,70.2,84.5,70.4,84.5z"/>
		<path class="st1" d="M75.6,85.6c1.9-0.6,3.7-1.2,5.6-1.9c0.2-0.1,0.1-0.4-0.1-0.3c-1.9,0.6-3.8,1.2-5.6,1.9
			C75.2,85.3,75.3,85.7,75.6,85.6z"/>
		<path class="st1" d="M76.9,86.3c3.8-0.5,7.7-2,10.9-4.1c0.2-0.1,0-0.4-0.2-0.3c-3.5,1.9-6.9,3.2-10.7,4.1
			C76.6,85.9,76.6,86.3,76.9,86.3z"/>
		<path class="st1" d="M97.7,75.9c3.6-0.8,7.2-2.2,10.2-4.2c0.2-0.1,0-0.4-0.2-0.3c-3.3,1.7-6.5,3.1-10.1,4.1
			C97.4,75.5,97.4,75.9,97.7,75.9z"/>
		<path class="st1" d="M108.6,70.8c0.3,0,0.3-0.4,0-0.4C108.4,70.4,108.3,70.8,108.6,70.8z"/>
		<path class="st1" d="M83.5,93c4.4-0.9,8.7-2.4,12.4-4.9c0.2-0.1,0-0.4-0.2-0.3c-4,2-7.9,3.8-12.3,4.9C83.2,92.7,83.3,93.1,83.5,93
			z"/>
		<path class="st1" d="M86.1,90.8c2.5-0.8,5-1.5,7.4-2.5c0.2-0.1,0.1-0.4-0.1-0.4c-2.5,0.7-5,1.6-7.4,2.4
			C85.7,90.4,85.8,90.8,86.1,90.8z"/>
		<path class="st1" d="M95.4,89.1c2.8-1,5.5-2.5,7.6-4.7c0.2-0.2,0-0.5-0.3-0.3c-2.4,1.8-4.7,3.4-7.5,4.6
			C94.9,88.8,95.1,89.2,95.4,89.1z"/>
		<path class="st1" d="M95.1,87.1c2.6-0.8,5.3-1.9,7.5-3.5c0.2-0.1,0-0.4-0.2-0.3c-2.5,1.2-4.9,2.5-7.5,3.4
			C94.6,86.8,94.8,87.1,95.1,87.1z"/>
		<path class="st1" d="M102.3,82.9c1.3-0.7,2.6-1.4,3.8-2.2c0.2-0.1,0-0.4-0.2-0.3c-1.3,0.6-2.5,1.4-3.7,2.1
			C101.8,82.6,102,83,102.3,82.9z"/>
		<path class="st1" d="M104.3,80.6c0.3,0,0.3-0.4,0-0.4S104,80.6,104.3,80.6z"/>
		<path class="st1" d="M76.5,94.1c2.6-0.1,5.2-0.6,7.5-1.8c0.2-0.1,0.1-0.4-0.2-0.3c-2.4,0.9-4.8,1.6-7.4,1.7
			C76.2,93.7,76.3,94.1,76.5,94.1z"/>
		<path class="st1" d="M76.4,93c1.9-0.4,3.7-0.8,5.6-1.3c0.2-0.1,0.2-0.4-0.1-0.4c-1.9,0.4-3.7,0.8-5.6,1.3C76,92.6,76.1,93,76.4,93
			z"/>
		<path class="st1" d="M83,91.5c1-0.2,2-0.4,2.9-0.6c0.2-0.1,0.2-0.4-0.1-0.4c-1,0.1-1.9,0.4-2.9,0.6C82.7,91.2,82.7,91.5,83,91.5z"
			/>
		<path class="st1" d="M87.2,88.8c2.4-0.6,4.6-1.5,6.7-2.7c0.2-0.1,0-0.4-0.1-0.3c-2.1,1.2-4.2,2.2-6.6,2.7
			C86.9,88.6,87,88.9,87.2,88.8z"/>
		<path class="st1" d="M82,91c1.1-0.6,2.3-1,3.5-1.3c0.2-0.1,0.2-0.4-0.1-0.4c-1.3,0.1-2.5,0.6-3.6,1.3C81.6,90.8,81.8,91.2,82,91z"
			/>
		<path class="st1" d="M94.1,85.6c1.4-0.6,2.8-1.2,4.2-1.9c0.2-0.1,0.1-0.4-0.2-0.3c-1.4,0.6-2.8,1.3-4.2,1.9
			C93.7,85.3,93.8,85.7,94.1,85.6z"/>
		<path class="st1" d="M83.9,82.6c3.2-1.1,6.4-2.2,9.5-3.2c0.2-0.1,0.1-0.4-0.1-0.3c-3.3,0.9-6.4,2-9.6,3.2
			C83.5,82.3,83.7,82.7,83.9,82.6z"/>
		<path class="st1" d="M89.8,82.2c1-0.4,2-0.7,2.9-1.2c0.2-0.1,0.1-0.4-0.2-0.3c-1,0.3-2,0.8-2.9,1.2C89.3,82,89.5,82.3,89.8,82.2z"
			/>
		<path class="st1" d="M95.8,78.5c1-0.4,1.9-0.8,2.9-1.2c0.2-0.1,0.1-0.4-0.2-0.3c-1,0.4-2,0.8-2.9,1.2
			C95.4,78.2,95.6,78.6,95.8,78.5z"/>
		<path class="st1" d="M109.6,69.6c0.7-0.2,1.3-0.5,2-0.7c0.2-0.1,0.1-0.4-0.1-0.4c-0.7,0.2-1.4,0.5-2,0.7
			C109.1,69.3,109.3,69.7,109.6,69.6z"/>
		<path class="st1" d="M53.4,81.1c4.1-0.5,8.3-1.4,12.1-3.2c0.2-0.1,0.1-0.4-0.2-0.3c-3.9,1.4-7.8,2.6-12,3.2
			C53.1,80.7,53.2,81.1,53.4,81.1z"/>
		<path class="st1" d="M51.2,81.7c4.7-0.7,9.3-1.9,13.8-3.5c0.2-0.1,0.1-0.4-0.1-0.4c-4.5,1.4-9.1,2.5-13.7,3.4
			C50.8,81.3,50.9,81.8,51.2,81.7z"/>
		<path class="st1" d="M54.2,82.2c3.8-0.9,7.7-1.7,11.5-2.7c0.2-0.1,0.2-0.4-0.1-0.4c-3.9,0.8-7.7,1.8-11.5,2.7
			C53.9,81.8,54,82.3,54.2,82.2z"/>
		<path class="st1" d="M55.6,82.9c4.1-1,8.2-2,12.3-3.2c0.2-0.1,0.2-0.4-0.1-0.4c-4.1,0.9-8.2,2-12.3,3.1
			C55.2,82.5,55.3,83,55.6,82.9z"/>
		<path class="st1" d="M57.2,83.5c2.8-0.7,5.6-1.4,8.4-2.3c0.2-0.1,0.1-0.4-0.1-0.4c-2.8,0.6-5.6,1.4-8.4,2.2
			C56.8,83.1,56.9,83.5,57.2,83.5z"/>
		<path class="st1" d="M57.6,84.7c2.7-0.5,5.4-1.2,8-2.2c0.2-0.1,0.1-0.4-0.2-0.3c-2.6,0.8-5.2,1.6-7.9,2.2
			C57.3,84.4,57.4,84.8,57.6,84.7z"/>
		<path class="st1" d="M63.4,80.2c3.8-0.8,7.5-1.9,11.2-3.3c0.2-0.1,0.1-0.4-0.2-0.3c-3.6,1.3-7.3,2.4-11.1,3.2
			C63,79.8,63.1,80.2,63.4,80.2z"/>
		<path class="st1" d="M67.5,78c5.1-1.5,10.3-2.8,15.4-4.5c0.2-0.1,0.1-0.4-0.1-0.4c-5.2,1.3-10.3,2.9-15.4,4.4
			C67.1,77.6,67.2,78.1,67.5,78z"/>
		<path class="st1" d="M71.1,77.5c3.7-0.7,7.4-1.6,10.9-3c0.2-0.1,0.1-0.5-0.1-0.4c-3.6,1.1-7.1,2.2-10.8,3
			C70.7,77.2,70.8,77.6,71.1,77.5z"/>
		<path class="st1" d="M70.5,79.1c4.8-1.1,9.5-2.6,14-4.6c0.2-0.1,0.1-0.4-0.2-0.3c-4.6,1.8-9.2,3.4-14,4.6
			C70.2,78.7,70.3,79.1,70.5,79.1z"/>
		<path class="st1" d="M72.7,79.4c3.6-0.9,7.2-2.1,10.6-3.6c0.2-0.1,0.1-0.4-0.2-0.3c-3.4,1.4-6.9,2.6-10.5,3.6
			C72.3,79,72.4,79.4,72.7,79.4z"/>
		<path class="st1" d="M81.3,75.8c2.8-1,5.6-1.9,8.3-3c0.2-0.1,0.1-0.4-0.2-0.3c-2.8,0.9-5.6,1.9-8.3,2.9
			C80.9,75.6,81,75.9,81.3,75.8z"/>
		<path class="st1" d="M84.4,73.4c3.9-1.7,7.9-3.1,12-4.5c0.2-0.1,0.1-0.4-0.1-0.4c-4.1,1.2-8.1,2.7-12.1,4.5
			C84,73.1,84.2,73.5,84.4,73.4z"/>
		<path class="st1" d="M87.7,71.3c3.9-1.4,7.8-2.8,11.6-4.3c0.2-0.1,0.1-0.4-0.2-0.3c-3.9,1.3-7.8,2.8-11.7,4.2
			C87.2,71,87.4,71.4,87.7,71.3z"/>
		<path class="st1" d="M89.3,70.7c5.4-2.2,10.9-4.4,16.3-6.8c0.2-0.1,0.1-0.4-0.2-0.3c-5.5,2.1-10.9,4.5-16.3,6.7
			C88.8,70.4,89,70.8,89.3,70.7z"/>
		<path class="st1" d="M97.9,68c3.2-1.5,6.5-3,9.7-4.6c0.2-0.1,0.1-0.4-0.2-0.3c-3.3,1.5-6.5,3.1-9.7,4.6
			C97.5,67.7,97.6,68.1,97.9,68z"/>
		<path class="st1" d="M79.4,75.6c5-1.5,9.9-3.1,14.7-5.3c0.2-0.1,0.1-0.4-0.2-0.3c-4.8,1.9-9.6,3.7-14.6,5.2
			C79,75.3,79.1,75.7,79.4,75.6z"/>
		<path class="st1" d="M81.3,76.5c4.3-1.5,8.6-3,12.8-4.8c0.2-0.1,0.1-0.4-0.2-0.3c-4.3,1.6-8.5,3.3-12.8,4.8
			C80.8,76.2,81,76.6,81.3,76.5z"/>
		<path class="st1" d="M81.3,77.3c4.2-1.4,8.5-2.9,12.7-4.5c0.2-0.1,0.1-0.4-0.2-0.3c-4.3,1.4-8.5,2.9-12.7,4.5
			C80.9,77,81.1,77.4,81.3,77.3z"/>
		<path class="st1" d="M90.1,72.5c3.6-1.2,7.2-2.5,10.6-4.1c0.2-0.1,0.1-0.4-0.2-0.4c-3.5,1.4-7,2.8-10.6,4
			C89.6,72.1,89.8,72.6,90.1,72.5z"/>
		<path class="st1" d="M92.7,70.5c3-1.2,6-2.4,8.9-3.7c0.2-0.1,0.1-0.4-0.2-0.3c-3,1.2-6,2.4-9,3.7C92.3,70.2,92.5,70.6,92.7,70.5z"
			/>
		<path class="st1" d="M77.4,79.3c4.5-1.5,8.9-2.9,13.3-4.6c0.2-0.1,0.1-0.4-0.1-0.3c-4.5,1.4-8.9,3-13.4,4.5
			C76.9,79,77.1,79.4,77.4,79.3z"/>
		<path class="st1" d="M70.5,80.3c3.1-0.7,6.2-1.5,9.2-2.3c0.2-0.1,0.2-0.4-0.1-0.3c-3.1,0.7-6.2,1.5-9.3,2.2
			C70.2,80,70.3,80.4,70.5,80.3z"/>
		<path class="st1" d="M53.1,84.5c4.6-0.9,9-2.2,13.4-3.9c0.2-0.1,0.1-0.4-0.1-0.3C62,81.8,57.6,83,53.1,84
			C52.7,84.1,52.8,84.6,53.1,84.5z"/>
		<path class="st1" d="M55.5,85.1c4.1-0.9,8.2-2,12.2-3.6c0.2-0.1,0.1-0.4-0.1-0.4c-4,1.2-8,2.5-12.1,3.5
			C55.2,84.7,55.2,85.1,55.5,85.1z"/>
		<path class="st1" d="M55.9,85.6c3.8-0.7,7.6-1.7,11.3-3c0.2-0.1,0.1-0.4-0.1-0.3c-3.7,1.1-7.4,2.1-11.2,2.9
			C55.5,85.2,55.6,85.6,55.9,85.6z"/>
		<path class="st1" d="M57.5,86.3c3-0.8,6.1-1.6,9.1-2.5c0.2-0.1,0.2-0.4-0.1-0.4c-3.1,0.7-6.1,1.7-9.1,2.5
			C57.2,86,57.3,86.4,57.5,86.3z"/>
		<path class="st1" d="M57.8,87.2c3.5-0.6,6.9-1.6,10.2-3c0.2-0.1,0.1-0.4-0.2-0.3c-3.3,1.2-6.6,2.3-10.1,2.9
			C57.4,86.8,57.5,87.3,57.8,87.2z"/>
		<path class="st1" d="M59.5,87.7c3.9-0.7,7.8-1.7,11.4-3.3c0.2-0.1,0.1-0.4-0.2-0.3c-3.7,1.3-7.4,2.4-11.3,3.2
			C59.2,87.3,59.2,87.8,59.5,87.7z"/>
		<path class="st1" d="M62.1,89.1c1-0.2,1.9-0.4,2.9-0.6c0.2-0.1,0.2-0.4-0.1-0.3c-1,0.2-1.9,0.4-2.9,0.6
			C61.8,88.8,61.8,89.1,62.1,89.1z"/>
		<path class="st1" d="M63.6,90c1.6,0.1,3.1-0.1,4.6-0.6c0.2-0.1,0.1-0.4-0.1-0.4c-1.5,0.3-2.9,0.5-4.5,0.5
			C63.4,89.5,63.3,90,63.6,90z"/>
		<path class="st1" d="M66.2,90.8c0.5-0.1,1-0.1,1.5-0.3c0.2-0.1,0.1-0.4-0.1-0.4c-0.5,0-1,0.1-1.5,0.2
			C65.8,90.3,65.9,90.8,66.2,90.8z"/>
		<path class="st1" d="M69.5,90c1.6-0.3,3.2-0.7,4.7-1.4c0.2-0.1,0.1-0.4-0.1-0.3c-1.5,0.6-3,1-4.6,1.3C69.2,89.7,69.3,90,69.5,90z"
			/>
		<path class="st1" d="M68.5,91.6c2.8-0.3,5.7-0.9,8.2-2.1c0.2-0.1,0.1-0.4-0.1-0.3c-2.7,0.8-5.4,1.6-8.2,2.1
			C68.2,91.2,68.3,91.6,68.5,91.6z"/>
		<path class="st1" d="M71.7,92.5c2.3,0,4.9-0.7,6.9-1.8c0.2-0.1,0.1-0.5-0.2-0.4c-2.2,0.8-4.3,1.4-6.7,1.8
			C71.4,92.1,71.4,92.5,71.7,92.5z"/>
		<path class="st1" d="M109.6,71.6c-1,0.6-2,1.3-2.9,2c-0.2,0.1,0,0.4,0.2,0.3c1-0.6,2-1.2,2.9-1.9
			C110.1,71.8,109.8,71.4,109.6,71.6z"/>
		<path class="st1" d="M108.4,74c-1.3,0.7-2.6,1.4-3.9,2.1c-0.2,0.1-0.1,0.5,0.2,0.3c1.3-0.6,2.6-1.4,3.9-2.1
			C108.9,74.2,108.7,73.8,108.4,74z"/>
		<path class="st1" d="M107.6,75.9c-0.9,0.5-1.8,0.9-2.7,1.4c-0.2,0.1,0,0.4,0.2,0.3c0.9-0.4,1.8-0.9,2.7-1.3
			C108,76.2,107.8,75.8,107.6,75.9z"/>
		<path class="st1" d="M106.1,78.8c0.2,0,0.3-0.4,0-0.4C105.9,78.4,105.9,78.8,106.1,78.8z"/>
		<path class="st1" d="M92.9,70.9c2.6-1.2,5.2-2.3,7.6-3.7c0.2-0.1,0.1-0.5-0.2-0.4c-2.6,1-5.1,2.3-7.7,3.6
			C92.4,70.6,92.6,71.1,92.9,70.9z"/>
		<path class="st1" d="M92.2,72.8c2.1-1,4.2-1.9,6.3-2.9c0.2-0.1,0.1-0.4-0.1-0.3c-2.1,1-4.2,1.9-6.3,2.9
			C91.9,72.6,92,72.9,92.2,72.8z"/>
		<path class="st1" d="M93.6,71.5c3.7-1.6,7.4-3,11-4.7c0.2-0.1,0.1-0.4-0.2-0.3c-3.7,1.5-7.4,3.1-11,4.7
			C93.1,71.3,93.3,71.6,93.6,71.5z"/>
		<path class="st1" d="M95.8,71.6c2.8-1.4,5.7-2.7,8.5-4.2c0.2-0.1,0.1-0.5-0.2-0.4c-2.9,1.3-5.7,2.8-8.5,4.2
			C95.4,71.4,95.6,71.8,95.8,71.6z"/>
		<path class="st1" d="M86.5,76c1.3-0.7,2.6-1.4,4-2.1c0.2-0.1,0-0.4-0.1-0.3c-1.3,0.7-2.6,1.4-4,2C86.1,75.8,86.3,76.1,86.5,76z"/>
		<path class="st1" d="M76.1,81.4c5.5-2.1,11-4.2,16.4-6.7c0.3-0.1,0.1-0.5-0.2-0.4c-5.5,2-11,4.4-16.4,6.7
			C75.7,81.1,75.8,81.5,76.1,81.4z"/>
		<path class="st1" d="M70.7,82.7c2-0.6,4.1-1.1,6.1-1.7c0.2-0.1,0.2-0.4-0.1-0.3c-2,0.5-4.1,1.1-6.1,1.7
			C70.4,82.4,70.5,82.7,70.7,82.7z"/>
		<path class="st1" d="M78.7,81.9c2.5-0.9,5.1-1.6,7.5-2.6c0.2-0.1,0.1-0.5-0.1-0.4c-2.6,0.8-5.1,1.7-7.6,2.6
			C78.3,81.6,78.5,82,78.7,81.9z"/>
		<path class="st1" d="M39.3,52.6c4.2,0.5,8.5,0.1,12.5-1.3c0.2-0.1,0.1-0.4-0.1-0.3c-4.1,1.2-8.1,1.5-12.3,1.2
			C39.1,52.1,39,52.6,39.3,52.6z"/>
		<path class="st1" d="M44,54.5c3.4-0.2,6.8-0.8,10-2.1c0.2-0.1,0.1-0.4-0.2-0.3c-3.3,1-6.5,1.8-9.9,2C43.7,54.1,43.7,54.5,44,54.5z
			"/>
		<path class="st1" d="M55,51.5c4.2-1.5,8.5-2.9,12.7-4.5c0.2-0.1,0.1-0.4-0.2-0.3c-4.3,1.4-8.5,3-12.7,4.5
			C54.6,51.2,54.7,51.6,55,51.5z"/>
		<path class="st1" d="M56.8,48.5c2.1-0.1,4.3-0.7,6.1-1.8c0.2-0.1,0.1-0.5-0.2-0.3c-1.9,1-3.8,1.6-6,1.7
			C56.4,48,56.5,48.5,56.8,48.5z"/>
		<path class="st1" d="M45.6,49.1c2.1-0.2,4.2-0.5,6.1-1.1c0.2-0.1,0.1-0.4-0.1-0.4c-2,0.4-4,0.9-6.1,1.1
			C45.2,48.7,45.3,49.1,45.6,49.1z"/>
		<path class="st1" d="M60.4,31.1c5.4-0.8,10.9-2.4,15.7-5c0.2-0.1,0.1-0.4-0.2-0.3c-5.1,2.2-10.1,3.9-15.6,4.9
			C60,30.7,60.1,31.1,60.4,31.1z"/>
		<path class="st1" d="M65.1,31.8c2.9-0.9,6-1.8,8.8-2.9c0.2-0.1,0.1-0.4-0.1-0.3c-3,0.8-5.9,1.9-8.9,2.8
			C64.7,31.4,64.9,31.8,65.1,31.8z"/>
		<path class="st1" d="M77.1,27.2c1.9-0.8,3.9-1.7,5.4-3.1c0.2-0.2,0-0.5-0.2-0.4c-1.8,1.1-3.5,2.2-5.4,3
			C76.6,26.9,76.8,27.3,77.1,27.2z"/>
		<path class="st1" d="M80,23.9c1-0.7,2-1.3,3.1-1.8c0.2-0.1,0.1-0.4-0.2-0.4c-1.2,0.4-2.2,1-3.2,1.8C79.5,23.7,79.8,24.1,80,23.9z"
			/>
		<path class="st1" d="M49.7,31c2.5,1.3,5.6,1.5,8.1,0.1c0.2-0.1,0.1-0.4-0.2-0.3c-2.6,0.9-5.1,1-7.7-0.1
			C49.7,30.6,49.5,30.9,49.7,31z"/>
		<path class="st1" d="M50.4,33.4c2.1,0.2,4.4,0.2,6.4-0.3c0.3-0.1,0.2-0.4-0.1-0.4c-2.1,0.2-4.2,0.4-6.3,0.3
			C50.2,32.9,50.1,33.3,50.4,33.4z"/>
		<path class="st1" d="M59.4,32.7c1.3-0.2,2.7-0.4,4-0.8c0.3-0.1,0.2-0.4-0.1-0.4c-1.3,0.1-2.7,0.5-4,0.7
			C59,32.3,59.1,32.7,59.4,32.7z"/>
		<path class="st1" d="M47,32c0.9,0.2,1.8,0.5,2.7,0.6c0.2,0,0.3-0.3,0.1-0.4c-0.9-0.3-1.8-0.5-2.7-0.7C46.9,31.5,46.8,32,47,32z"/>
		<path class="st1" d="M55.8,29.1c6.5,0.1,13.2-1.3,18.9-4.4c0.2-0.1,0.1-0.4-0.2-0.3c-6.1,2.6-12.1,4.1-18.7,4.2
			C55.5,28.7,55.5,29.1,55.8,29.1z"/>
		<path class="st1" d="M75.8,25.2c0.9-0.4,1.8-0.9,2.6-1.4c0.2-0.1,0.1-0.4-0.2-0.3c-0.9,0.4-1.8,0.9-2.7,1.3
			C75.3,24.9,75.5,25.3,75.8,25.2z"/>
		<path class="st1" d="M78.6,22.6c1-0.5,1.9-1,2.8-1.6c0.2-0.1,0-0.4-0.2-0.3c-1,0.4-1.9,1-2.8,1.5C78.2,22.3,78.3,22.7,78.6,22.6z"
			/>
		<path class="st1" d="M84.3,17.3c-0.2,0.7-0.7,1.2-1.3,1.6c-0.2,0.1,0,0.4,0.2,0.4c0.8-0.2,1.4-1,1.6-1.7
			C84.9,17.1,84.4,17,84.3,17.3z"/>
		<path class="st1" d="M86.2,17.1c-1.6,1.6-3.4,3-5.2,4.4c-0.2,0.1,0,0.4,0.2,0.3c2-1.1,3.7-2.6,5.3-4.3
			C86.7,17.3,86.4,16.9,86.2,17.1z"/>
		<path class="st1" d="M87.9,17.6c-1.5,1.5-3.1,2.8-4.8,4c-0.2,0.1,0,0.4,0.2,0.3c1.9-1,3.5-2.5,4.9-4
			C88.4,17.7,88.1,17.4,87.9,17.6z"/>
		<path class="st1" d="M89.1,18.5c-1.5,1.2-3,2.5-4.5,3.8c-0.2,0.2,0.1,0.5,0.3,0.3c1.5-1.2,3-2.5,4.5-3.8
			C89.6,18.7,89.4,18.3,89.1,18.5z"/>
		<path class="st1" d="M68.9,44.9c5.5-1.6,11.2-4.3,15.9-7.6c0.2-0.1,0-0.4-0.2-0.3c-5.2,2.8-10.4,5.2-15.9,7.5
			C68.5,44.6,68.6,45,68.9,44.9z"/>
		<path class="st1" d="M73.7,44.4c2.2-0.9,4.4-1.8,6.5-2.9c0.2-0.1,0.1-0.4-0.2-0.4c-2.2,0.8-4.4,1.8-6.6,2.8
			C73.2,44,73.4,44.5,73.7,44.4z"/>
		<path class="st1" d="M87.7,36.7c5.1-2.4,10-5.8,13.6-10.1c0.1-0.2-0.1-0.4-0.3-0.3c-4.1,4-8.4,7.3-13.6,9.9
			C87.1,36.4,87.4,36.9,87.7,36.7z"/>
		<path class="st1" d="M86.1,38.1c-1.6,0.6-3.3,1.2-4.9,2c-0.2,0.1-0.1,0.4,0.2,0.4c1.7-0.6,3.3-1.2,4.9-1.9
			C86.6,38.3,86.4,38,86.1,38.1z"/>
		<path class="st1" d="M95.1,35.7c-4.8,2.6-9.7,4.9-14.6,7.3c-0.2,0.1-0.1,0.4,0.2,0.3c5-2.2,9.8-4.7,14.6-7.3
			C95.5,36,95.3,35.6,95.1,35.7z"/>
		<path class="st1" d="M89.3,40.8c-1.3,0.5-2.6,0.9-3.9,1.5c-0.2,0.1-0.1,0.4,0.2,0.3c1.3-0.4,2.6-0.9,4-1.4
			C89.7,41.1,89.6,40.7,89.3,40.8z"/>
		<path class="st1" d="M78.7,43.7c-4.8,2-9.6,3.8-14.5,5.7c-0.2,0.1-0.1,0.4,0.2,0.3c4.9-1.6,9.8-3.6,14.5-5.6
			C79.2,44,79,43.6,78.7,43.7z"/>
		<path class="st1" d="M77.2,46.2c-1.1,0.4-2.1,0.8-3.1,1.2c-0.2,0.1-0.1,0.4,0.2,0.3c1.1-0.4,2.1-0.8,3.2-1.2
			C77.6,46.5,77.4,46.2,77.2,46.2z"/>
		<path class="st1" d="M71.2,45.1c-0.4,0.2-0.9,0.5-1.3,0.7c-0.2,0.1-0.1,0.4,0.2,0.3c0.5-0.2,0.9-0.4,1.3-0.7
			C71.6,45.3,71.4,44.9,71.2,45.1z"/>
		<path class="st1" d="M67.1,45.3c-0.6,0.1-1.3,0.2-1.9,0.5c-0.2,0.1-0.1,0.4,0.1,0.4c0.6-0.1,1.3-0.3,1.9-0.5
			C67.5,45.7,67.3,45.3,67.1,45.3z"/>
		<path class="st1" d="M94,31c-2.4,1.9-4.9,3.4-7.6,4.8c-0.2,0.1-0.1,0.4,0.2,0.4c2.8-1,5.5-2.8,7.7-4.8C94.5,31.2,94.2,30.8,94,31z
			"/>
		<path class="st1" d="M89.6,32.2c-4.8,2.9-9.8,5.3-14.9,7.6c-0.2,0.1-0.1,0.4,0.2,0.3c5.2-2,10.2-4.7,14.9-7.6
			C90,32.5,89.9,32.1,89.6,32.2z"/>
		<path class="st1" d="M82.6,34.4c-1,0.6-2.1,1.2-3.1,1.9c-0.2,0.1,0,0.4,0.2,0.3c1-0.6,2.1-1.2,3.1-1.8
			C82.9,34.6,82.8,34.2,82.6,34.4z"/>
		<path class="st1" d="M73.9,40.7c-2,0.7-3.9,1.6-5.7,2.6c-0.2,0.1-0.1,0.5,0.2,0.4c1.9-0.9,3.8-1.8,5.8-2.6
			C74.4,41.1,74.2,40.6,73.9,40.7z"/>
		<path class="st1" d="M98,32c-3.8,2.4-7.8,4.2-11.6,6.5c-0.2,0.1-0.1,0.5,0.2,0.4c4.1-1.6,7.9-4.2,11.6-6.5
			C98.4,32.2,98.2,31.8,98,32z"/>
		<path class="st1" d="M99.2,33.1c-0.8,0.6-1.7,1.1-2.5,1.8c-0.2,0.1,0,0.4,0.2,0.3c0.9-0.5,1.7-1.1,2.6-1.7
			C99.8,33.3,99.5,33,99.2,33.1z"/>
		<path class="st1" d="M38.9,51.3c2.9,0.5,6.1,0.4,8.9-0.6c0.2-0.1,0.1-0.4-0.1-0.4c-2.9,0.6-5.7,0.9-8.7,0.6
			C38.7,50.8,38.7,51.2,38.9,51.3z"/>
		<path class="st1" d="M51.2,49.7c0.8-0.2,1.5-0.4,2.3-0.6c0.2-0.1,0.2-0.4-0.1-0.3c-0.8,0.2-1.5,0.3-2.3,0.5
			C50.9,49.4,51,49.8,51.2,49.7z"/>
		<path class="st1" d="M42.3,47.7c2.6,0,5.1-0.3,7.6-1c0.2-0.1,0.2-0.4-0.1-0.4c-2.5,0.5-4.9,0.9-7.5,0.9
			C42.1,47.2,42,47.7,42.3,47.7z"/>
		<path class="st1" d="M41.4,50.2c1.2,0.1,2.4,0,3.6-0.4c0.2-0.1,0.1-0.4-0.1-0.4c-1.1,0.2-2.2,0.4-3.4,0.4
			C41.2,49.7,41.1,50.1,41.4,50.2z"/>
		<path class="st1" d="M53.6,48.2c0.9-0.3,1.9-0.5,2.9-0.9c0.2-0.1,0.1-0.4-0.1-0.4c-0.9,0.2-1.9,0.6-2.8,0.9
			C53.2,47.9,53.3,48.3,53.6,48.2z"/>
		<path class="st1" d="M53.7,50.6c0.3,0,0.3-0.4,0-0.4C53.5,50.2,53.4,50.6,53.7,50.6z"/>
		<path class="st1" d="M42,70.9c1.6,0.4,3.3,0.2,4.8-0.3c0.2-0.1,0.1-0.4-0.1-0.4c-1.6,0.3-3,0.3-4.6,0.2
			C41.9,70.4,41.8,70.8,42,70.9z"/>
		<path class="st1" d="M56.9,68.2c4.1-0.6,8.1-1.5,11.9-2.9c0.2-0.1,0.1-0.4-0.1-0.3c-3.9,1.3-7.8,2.3-11.9,2.9
			C56.6,67.8,56.6,68.2,56.9,68.2z"/>
		<path class="st1" d="M69.2,65.9c3-0.8,6-1.9,8.6-3.5c0.2-0.1,0.1-0.4-0.1-0.3c-2.8,1.4-5.5,2.6-8.5,3.4
			C68.9,65.6,69,65.9,69.2,65.9z"/>
		<path class="st1" d="M68.7,65c2.7-0.7,5.3-1.4,7.9-2.3c0.2-0.1,0.1-0.4-0.1-0.4c-2.7,0.7-5.3,1.5-7.9,2.3
			C68.3,64.7,68.4,65.1,68.7,65z"/>
		<path class="st1" d="M77.3,63.4c3.9-0.7,7.9-2,11.4-3.8c0.2-0.1,0.1-0.4-0.2-0.3c-3.7,1.4-7.5,2.6-11.3,3.8
			C77,63.1,77,63.5,77.3,63.4z"/>
		<path class="st1" d="M78.9,62.2c3.1-1.5,6.3-2.5,9.6-3.5c0.2-0.1,0.2-0.5-0.1-0.4c-3.4,0.7-6.6,2.1-9.7,3.6
			C78.5,61.9,78.6,62.3,78.9,62.2z"/>
		<path class="st1" d="M87.1,59.9c1.3-0.4,2.6-0.7,3.8-1.1c0.2-0.1,0.2-0.4-0.1-0.3c-1.3,0.3-2.6,0.7-3.8,1.1
			C86.8,59.6,86.9,60,87.1,59.9z"/>
		<path class="st1" d="M89.3,57.6c1.9-1,3.8-1.8,5.8-2.5c0.2-0.1,0.1-0.4-0.1-0.4c-2.1,0.5-4,1.4-5.9,2.5
			C88.8,57.4,89,57.8,89.3,57.6z"/>
		<path class="st1" d="M96.9,54.7c0.8-0.4,1.7-0.7,2.5-1.1c0.2-0.1,0.1-0.4-0.1-0.3c-0.8,0.4-1.7,0.7-2.5,1.1
			C96.6,54.4,96.7,54.7,96.9,54.7z"/>
		<path class="st1" d="M106.3,52.2c3-1.4,5.9-3.3,8.1-5.7c0.1-0.1-0.1-0.4-0.3-0.2c-2.5,2.2-5,4.2-8,5.6
			C106,51.9,106.1,52.2,106.3,52.2z"/>
		<path class="st1" d="M105,51.5c3.6-1.4,7.2-3.6,9.6-6.7c0.1-0.2-0.1-0.4-0.3-0.3c-2.8,2.8-5.7,5.1-9.5,6.6
			C104.6,51.3,104.7,51.6,105,51.5z"/>
		<path class="st1" d="M106,50.8c2.7-1.7,5.4-3.7,7.5-6.1c0.1-0.2-0.1-0.4-0.3-0.3c-2.4,2.2-4.8,4.2-7.5,6
			C105.6,50.6,105.8,50.9,106,50.8z"/>
		<path class="st1" d="M105.9,49.3c2.8-1.7,5.5-3.7,7.6-6.2c0.1-0.1-0.1-0.4-0.2-0.2c-2.4,2.2-4.8,4.3-7.5,6.1
			C105.6,49.1,105.7,49.5,105.9,49.3z"/>
		<path class="st1" d="M106.1,47.7c2.3-1.7,4.5-3.6,6.2-5.9c0.1-0.2-0.1-0.4-0.3-0.2c-1.9,2.1-3.8,4.1-6.1,5.9
			C105.7,47.6,105.9,47.9,106.1,47.7z"/>
		<path class="st1" d="M110.3,45.4c0.8-0.9,1.7-1.8,2.4-2.8c0.1-0.2-0.1-0.4-0.3-0.2c-0.9,0.8-1.6,1.9-2.4,2.8
			C109.8,45.4,110.1,45.6,110.3,45.4z"/>
		<path class="st1" d="M41.4,68.8c0.7,0,1.4,0.1,2,0c0.2,0,0.2-0.4,0-0.4c-0.7-0.1-1.3,0-2,0C41.2,68.4,41.2,68.8,41.4,68.8z"/>
		<path class="st1" d="M41,67.7c2.6,0.5,5.3,0.4,7.8-0.5c0.2-0.1,0.1-0.4-0.1-0.3c-2.6,0.6-5.1,0.8-7.7,0.4
			C40.7,67.3,40.7,67.7,41,67.7z"/>
		<path class="st1" d="M41,67c1.5,0,3,0,4.4-0.2c0.2,0,0.2-0.4,0-0.4c-1.5,0-3,0.1-4.4,0.2C40.8,66.6,40.8,67,41,67z"/>
		<path class="st1" d="M41.3,65.7c0.7-0.2,1.5-0.3,2.3-0.1c0.2,0,0.3-0.3,0.1-0.4c-0.9-0.2-1.7-0.1-2.5,0.1
			C40.9,65.4,41.1,65.8,41.3,65.7z"/>
		<path class="st1" d="M50,67.6c2.6-0.3,5.1-0.5,7.7-1c0.2,0,0.2-0.4-0.1-0.4c-2.6,0.2-5.1,0.6-7.7,1C49.6,67.2,49.7,67.6,50,67.6z"
			/>
		<path class="st1" d="M59.8,66.3c1.8-0.3,3.6-0.6,5.4-1c0.2,0,0.2-0.4-0.1-0.3c-1.8,0.3-3.6,0.7-5.4,1C59.5,66,59.5,66.3,59.8,66.3
			z"/>
		<path class="st1" d="M70.9,46.3c1-0.3,2-0.5,3.1-0.8c0.2-0.1,0.2-0.4-0.1-0.3c-1,0.2-2,0.5-3.1,0.8C70.6,46,70.7,46.3,70.9,46.3z"
			/>
		<path class="st1" d="M58,46.4c1.6-0.2,3.1-0.3,4.6-0.6c0.3-0.1,0.2-0.4-0.1-0.4c-1.6,0.1-3.1,0.4-4.7,0.6
			C57.6,45.9,57.7,46.4,58,46.4z"/>
		<path class="st1" d="M42.4,46c0.7,0,1.4,0,2-0.1c0.2,0,0.2-0.4,0-0.4c-0.7-0.1-1.3,0-2,0C42.2,45.5,42.1,46,42.4,46z"/>
		<path class="st1" d="M42.1,44.5c1.2,0.3,2.5,0.5,3.7,0.2c0.2-0.1,0.2-0.4,0-0.4c-1.2,0-2.4,0.1-3.6-0.2
			C41.9,43.9,41.8,44.4,42.1,44.5z"/>
		<path class="st1" d="M42,42.8c2.1,0.3,4.3,0.4,6.4,0.3c0.3,0,0.3-0.4,0-0.4c-2.1-0.3-4.3-0.4-6.4-0.4C41.7,42.4,41.7,42.8,42,42.8
			z"/>
		<path class="st1" d="M43,41.3c0.3,0.1,0.6,0.1,0.9,0.1c0.2,0,0.3-0.3,0.1-0.4c-0.3-0.1-0.6-0.1-1-0.2C42.7,40.8,42.7,41.2,43,41.3
			z"/>
		<path class="st1" d="M45.8,41.6c0.9,0,1.8,0,2.7-0.1c0.2,0,0.2-0.4,0-0.4c-0.9-0.1-1.8,0.1-2.7,0.1C45.5,41.2,45.5,41.6,45.8,41.6
			z"/>
		<path class="st1" d="M44.4,39.7c0.9,0,1.8,0.1,2.7-0.1c0.2,0,0.2-0.4,0-0.4c-0.9-0.1-1.8,0-2.7,0C44.2,39.3,44.2,39.7,44.4,39.7z"
			/>
		<path class="st1" d="M45.3,38.1c0.2,0,0.4,0,0.7,0c0.2,0,0.2-0.4,0-0.4s-0.4,0-0.7,0C44.9,37.7,45,38.1,45.3,38.1z"/>
		<path class="st1" d="M91.5,20.9c-0.6,0.5-1.4,1.1-1.9,1.8c-0.1,0.2,0.1,0.4,0.3,0.3c0.7-0.4,1.3-1.1,1.9-1.7
			C92,21,91.7,20.7,91.5,20.9z"/>
		<path class="st1" d="M92.9,21.5c-0.9,0.5-1.8,1.1-2.3,2c-0.1,0.2,0.1,0.4,0.3,0.3c0.7-0.7,1.3-1.3,2.2-1.8
			C93.4,21.8,93.2,21.4,92.9,21.5z"/>
		<path class="st1" d="M94.2,22.5c-1.1,0.6-2.1,1.3-2.8,2.4c-0.1,0.2,0.1,0.4,0.3,0.3c0.9-0.8,1.7-1.6,2.7-2.2
			C94.6,22.7,94.4,22.3,94.2,22.5z"/>
		<path class="st1" d="M95.9,22.8c-0.1,0.1-0.1,0.2-0.1,0.3c-0.1,0.2,0.3,0.3,0.4,0.1c0.1-0.1,0.1-0.2,0.2-0.3
			C96.5,22.7,96,22.5,95.9,22.8z"/>
		<path class="st1" d="M95.1,23.9c-2,1.2-4.2,2.4-6.1,3.8c-0.2,0.1,0,0.5,0.2,0.4c2.1-1.1,4.1-2.5,6-3.7
			C95.6,24.2,95.4,23.7,95.1,23.9z"/>
		<path class="st1" d="M97.3,24c-1.8,1.4-3.6,2.5-5.6,3.5c-0.2,0.1-0.1,0.5,0.2,0.4c2.1-0.9,3.9-2.2,5.7-3.6
			C97.7,24.1,97.5,23.8,97.3,24z"/>
		<path class="st1" d="M97.8,25c-0.5,0.6-1.2,1.2-1.6,1.8c-0.1,0.2,0.1,0.4,0.3,0.3c0.6-0.5,1.2-1.2,1.7-1.8
			C98.4,25,98,24.7,97.8,25z"/>
		<path class="st1" d="M98.9,26.1c-0.3,0.3-0.6,0.6-0.8,0.9c-0.1,0.2,0.1,0.5,0.3,0.3c0.3-0.3,0.6-0.6,0.9-1
			C99.5,26.1,99.1,25.9,98.9,26.1z"/>
		<path class="st1" d="M101.7,28.5c-0.7,0.9-1.6,1.6-2.4,2.4c-0.2,0.2,0,0.5,0.2,0.4c1.1-0.5,2-1.5,2.6-2.5
			C102.3,28.5,101.9,28.2,101.7,28.5z"/>
		<path class="st1" d="M103.2,29.5c-0.6,0.7-1.3,1.4-1.8,2.1c-0.1,0.2,0.1,0.4,0.3,0.3c0.7-0.7,1.3-1.4,1.9-2.1
			C103.8,29.5,103.4,29.3,103.2,29.5z"/>
		<path class="st1" d="M104.3,30.7c-0.3,0.5-0.7,1-1,1.5c-0.1,0.2,0.2,0.4,0.3,0.2c0.4-0.5,0.7-1,1.1-1.5
			C104.9,30.7,104.5,30.4,104.3,30.7z"/>
		<path class="st1" d="M104.7,31.8c-1.5,1.6-3.2,2.9-4.9,4.2c-0.2,0.1,0,0.5,0.2,0.3c1.9-1.1,3.5-2.6,5-4.2
			C105.3,31.9,105,31.6,104.7,31.8z"/>
		<path class="st1" d="M105.7,33.2c-1.5,1.2-3,2.3-4.6,3.4c-0.2,0.1,0,0.4,0.2,0.3c1.7-0.8,3.4-2,4.7-3.4
			C106.3,33.4,106,33,105.7,33.2z"/>
		<path class="st1" d="M107.2,34.3c-0.7,0.6-1.6,1.3-2.2,2c-0.2,0.2,0.1,0.4,0.3,0.3c0.8-0.5,1.5-1.3,2.2-1.9
			C107.8,34.5,107.5,34.1,107.2,34.3z"/>
		<path class="st1" d="M108.1,35.1c-0.3,0.4-0.7,0.8-0.9,1.3c-0.1,0.2,0.2,0.4,0.4,0.2c0.4-0.3,0.7-0.8,1-1.2
			C108.7,35.1,108.3,34.8,108.1,35.1z"/>
		<path class="st1" d="M109,36.1c-0.3,0.2-0.6,0.4-0.9,0.6c-0.2,0.1,0,0.5,0.2,0.4c0.3-0.2,0.6-0.3,0.9-0.5S109.3,35.9,109,36.1z"/>
		<path class="st1" d="M41.5,61.7c0.8,0.4,1.9,0.6,2.7,0.1c0.2-0.1,0.2-0.4-0.1-0.4c-0.9,0-1.6,0.1-2.5-0.2
			C41.3,61.1,41.2,61.5,41.5,61.7z"/>
		<path class="st1" d="M40.2,59.8c3.1,0.3,6.4-0.2,9.2-1.5c0.2-0.1,0.1-0.4-0.1-0.4c-3,0.9-5.9,1.4-9.1,1.4
			C39.9,59.4,39.9,59.8,40.2,59.8z"/>
		<path class="st1" d="M41,58.7c0.6,0,1.2-0.1,1.7-0.2c0.2,0,0.2-0.4,0-0.4c-0.6,0-1.2,0.1-1.8,0.1C40.6,58.3,40.7,58.7,41,58.7z"/>
		<path class="st1" d="M44.2,58.3c1-0.3,2.1-0.5,3.1-0.8c0.2-0.1,0.1-0.4-0.1-0.4c-1,0.2-2,0.5-3.1,0.8C43.9,58,43.9,58.4,44.2,58.3
			z"/>
		<path class="st1" d="M41.2,57.5c1.2,0,2.5-0.1,3.7-0.6c0.2-0.1,0.1-0.4-0.1-0.4c-1.2,0.3-2.3,0.6-3.5,0.6
			C41,57.1,40.9,57.5,41.2,57.5z"/>
		<path class="st1" d="M41.3,56.2c0.6-0.3,1.2-0.2,1.8-0.1c0.2,0.1,0.4-0.2,0.1-0.4c-0.7-0.4-1.5-0.3-2.2,0
			C40.8,55.9,41,56.3,41.3,56.2z"/>
		<path class="st1" d="M53.2,50.4c1.2-0.3,2.5-0.6,3.7-0.9c0.2-0.1,0.2-0.4-0.1-0.4c-1.2,0.2-2.5,0.6-3.7,0.9
			C52.9,50,53,50.4,53.2,50.4z"/>
		<path class="st1" d="M55.3,52.4c2-0.5,4-0.9,6-1.5c0.2-0.1,0.2-0.4-0.1-0.4c-2,0.4-4,0.9-6,1.4C54.9,52,55,52.4,55.3,52.4z"/>
		<path class="st1" d="M63.9,45.3c0.8-0.5,1.7-0.8,2.7-1c0.2-0.1,0.2-0.4,0-0.4c-1,0-2,0.4-2.9,1C63.5,45,63.7,45.4,63.9,45.3z"/>
		<path class="st1" d="M61.8,43.9c0.6-0.1,1.2-0.1,1.7-0.2c0.2,0,0.2-0.4,0-0.4c-0.6,0-1.2,0.1-1.8,0.2C61.5,43.6,61.6,44,61.8,43.9
			z"/>
		<path class="st1" d="M51.5,46.2c1.1,0.3,2.3,0.2,3.2-0.4c0.2-0.1,0.1-0.5-0.2-0.4c-1,0.3-1.9,0.4-3,0.3
			C51.4,45.7,51.3,46.1,51.5,46.2z"/>
		<path class="st1" d="M54.3,25.1c3.3-1.6,6.6-3.2,9.9-4.8c0.2-0.1,0.1-0.4-0.2-0.4c-3.4,1.1-6.9,2.9-9.9,4.8
			C53.9,24.9,54.1,25.2,54.3,25.1z"/>
		<path class="st1" d="M66.2,19.4c0.7,0,1.4,0,2.1-0.1c0.2,0,0.2-0.4,0-0.4c-0.7-0.1-1.4,0-2.1,0C65.9,18.9,65.9,19.4,66.2,19.4z"/>
		<path class="st1" d="M70.7,18.6c2.3-0.5,4.5-0.7,6.8-0.7c0.3,0,0.3-0.4,0-0.4c-2.3-0.3-4.7,0.1-7,0.7
			C70.3,18.2,70.4,18.6,70.7,18.6z"/>
		<path class="st1" d="M51.4,29.9c1.2,0,2.5,0.2,3.7,0c0.3,0,0.2-0.4,0-0.4c-1.2-0.2-2.4-0.1-3.6-0.1C51.1,29.4,51.1,29.9,51.4,29.9
			z"/>
		<path class="st1" d="M52.6,28.2c0.9,0,1.9,0.1,2.9,0.1c0.2,0,0.2-0.4,0-0.4c-0.9-0.1-1.9-0.1-2.8-0.2
			C52.3,27.7,52.3,28.2,52.6,28.2z"/>
		<path class="st1" d="M61.7,27.1c2.7-0.3,5.6-0.8,8.1-1.8c0.2-0.1,0.1-0.4-0.1-0.4c-2.7,0.6-5.3,1.3-8.1,1.8
			C61.3,26.8,61.4,27.2,61.7,27.1z"/>
		<path class="st1" d="M57.9,30.2c1.2-0.1,2.3-0.2,3.4-0.4c0.2,0,0.2-0.4,0-0.4c-1.2,0-2.3,0.2-3.5,0.3
			C57.5,29.8,57.6,30.2,57.9,30.2z"/>
		<path class="st1" d="M56.3,33.5c0.8,0.1,1.7,0.1,2.5-0.3c0.2-0.1,0.1-0.4-0.1-0.4c-0.8,0.2-1.5,0.3-2.3,0.2
			C56,33,56,33.4,56.3,33.5z"/>
		<path class="st1" d="M74.1,29.3c0.9-0.2,1.8-0.4,2.6-0.7c0.2-0.1,0.2-0.4-0.1-0.4c-0.9,0.2-1.8,0.4-2.7,0.7
			C73.7,29,73.8,29.4,74.1,29.3z"/>
		<path class="st1" d="M83.4,24.6c0.6-0.3,1.2-0.5,1.7-0.8c0.2-0.1,0.1-0.5-0.1-0.4c-0.6,0.2-1.2,0.5-1.8,0.8
			C82.8,24.3,83.1,24.7,83.4,24.6z"/>
		<path class="st1" d="M44.1,70.1c2.6,0.3,5.2,0.1,7.7-0.7c0.2-0.1,0.1-0.4-0.1-0.4c-2.5,0.6-5,0.9-7.5,0.7
			C43.9,69.7,43.8,70.1,44.1,70.1z"/>
		<path class="st1" d="M42.8,69.5c2.9-0.1,5.9-0.4,8.8-1.1c0.3-0.1,0.2-0.4-0.1-0.4c-2.9,0.4-5.8,0.9-8.8,1.1
			C42.4,69.1,42.5,69.5,42.8,69.5z"/>
		<path class="st1" d="M42.8,68.1c2.8-0.3,5.6-0.5,8.4-0.9c0.3,0,0.2-0.4-0.1-0.4c-2.8,0.1-5.6,0.5-8.4,0.8
			C42.4,67.7,42.5,68.2,42.8,68.1z"/>
		<path class="st1" d="M42.2,66.6c3.1,0.2,6.2,0.1,9.2-0.7c0.3-0.1,0.2-0.4-0.1-0.4c-3,0.3-6,0.7-9.1,0.6
			C41.9,66.1,41.8,66.6,42.2,66.6z"/>
		<path class="st1" d="M41.6,66c2.6-0.3,5.3-0.4,7.9-0.9c0.2,0,0.2-0.4,0-0.4c-2.7,0.1-5.4,0.5-8,0.8C41.1,65.5,41.2,66,41.6,66z"/>
		<path class="st1" d="M41.7,65c2.3-0.3,4.7-0.5,7-1c0.3-0.1,0.2-0.5-0.1-0.4c-2.3,0.1-4.7,0.6-7,0.9C41.2,64.5,41.3,65,41.7,65z"/>
		<path class="st1" d="M41.1,63.5c2.2-0.2,4.5-0.3,6.6-0.8c0.2,0,0.2-0.4,0-0.4c-2.2,0-4.5,0.5-6.7,0.7C40.7,63,40.8,63.5,41.1,63.5
			z"/>
		<path class="st1" d="M42.3,62.1c1.8,0,3.7-0.1,5.5-0.7c0.2-0.1,0.1-0.4-0.1-0.4c-1.8,0.2-3.5,0.5-5.3,0.6
			C42,61.5,42,62.1,42.3,62.1z"/>
		<path class="st1" d="M42.5,61.1c1.6-0.1,3.1-0.3,4.6-0.8c0.3-0.1,0.2-0.5-0.1-0.4c-1.6,0.2-3.1,0.5-4.6,0.7
			C42.1,60.6,42.2,61.2,42.5,61.1z"/>
		<path class="st1" d="M41.7,60c1.8-0.2,3.8-0.3,5.6-0.7c0.2,0,0.2-0.4,0-0.4c-1.9,0-3.8,0.4-5.6,0.6C41.3,59.6,41.4,60.1,41.7,60z"
			/>
		<path class="st1" d="M41.5,59c1.4-0.2,2.9-0.2,4.2-0.6c0.2-0.1,0.3-0.5,0-0.5c-1.4,0-2.9,0.3-4.3,0.6C41.1,58.5,41.2,59,41.5,59z"
			/>
		<path class="st1" d="M41.2,58.2c0.3,0,0.3-0.4,0-0.4C41,57.8,40.9,58.2,41.2,58.2z"/>
		<path class="st1" d="M43.8,67.3c0.2,0,0.3-0.4,0-0.4C43.6,66.9,43.5,67.3,43.8,67.3z"/>
		<path class="st1" d="M109.4,55.1c2.9-1.1,5.7-2.6,8.4-4c0.2-0.1,0.1-0.4-0.2-0.3c-2.8,1.2-5.8,2.4-8.4,3.8
			C108.9,54.8,109.1,55.2,109.4,55.1z"/>
		<path class="st1" d="M121.4,48.9c0.7-0.4,1.6-0.8,2.3-1.3c0.2-0.2,0-0.4-0.2-0.3c-0.8,0.3-1.5,0.8-2.2,1.2
			C121,48.7,121.2,49.1,121.4,48.9z"/>
		<path class="st1" d="M119,57.8c4.9-2,9.6-4.5,13.8-7.8c0.2-0.1,0-0.4-0.2-0.3c-4.4,3-8.8,5.7-13.7,7.8
			C118.7,57.6,118.8,57.9,119,57.8z"/>
		<path class="st1" d="M109.4,27.9c6-1,12-1.9,18-3c0.2,0,0.2-0.4-0.1-0.4c-6,0.5-12.1,1.6-18,3C109.1,27.6,109.2,28,109.4,27.9z"/>
		<path class="st1" d="M115.9,24.2c0.2,0,0.2-0.3,0-0.3C115.7,23.9,115.7,24.2,115.9,24.2z"/>
		<path class="st1" d="M129.4,25.1c3.4-0.4,6.6-0.1,9.9,0.5c0.2,0,0.3-0.4,0.1-0.4c-3.3-0.8-6.7-0.8-10.1-0.4
			C129.1,24.8,129.2,25.1,129.4,25.1z"/>
		<path class="st1" d="M19,86c8.5,0.4,17.5,0.2,25.8-2.1c0.3-0.1,0.2-0.5-0.1-0.4c-8.6,1.5-17,2.1-25.7,2.1C18.8,85.6,18.8,86,19,86
			z"/>
		<path class="st1" d="M31.6,87.5c1.2-0.1,2.5-0.1,3.7-0.2c0.2,0,0.2-0.4,0-0.4c-1.3,0-2.5,0.2-3.8,0.3
			C31.3,87.2,31.4,87.5,31.6,87.5z"/>
		<path class="st1" d="M10.5,71.5c-1.6,1.7-6,8.7-1.8,10c0.3,0.1,0.4-0.3,0.1-0.4c-3.5-1.4,0.8-7.8,2-9.4
			C10.9,71.6,10.7,71.4,10.5,71.5z"/>
		<path class="st1" d="M10.1,82.5c0.5,0.7,1.4,1.3,2.3,1.1c0.2,0,0.2-0.4,0-0.4c-0.8-0.2-1.4-0.4-1.9-1C10.2,82,9.9,82.3,10.1,82.5z
			"/>
		<path class="st1" d="M14.2,68.3c3.8-2.6,7.8-5.1,11.4-8c0.2-0.1,0-0.5-0.2-0.3c-4,2.4-7.7,5.3-11.5,8C13.7,68.1,14,68.4,14.2,68.3
			z"/>
		<path class="st1" d="M19.2,62.5c0.5-0.2,0.9-0.5,1.3-0.8c0.2-0.1,0-0.4-0.2-0.3c-0.5,0.2-0.9,0.4-1.3,0.7
			C18.8,62.2,18.9,62.6,19.2,62.5z"/>
		<path class="st1" d="M24.1,59.9c2.1-1.3,4.3-2.6,6.4-3.9c0.3-0.2,0.1-0.6-0.2-0.4c-2.1,1.3-4.3,2.6-6.4,4
			C23.7,59.6,23.9,60,24.1,59.9z"/>
		<path class="st1" d="M32.5,55.9c1.5-0.9,3.2-1.7,4.7-2.7c0.2-0.2,0-0.5-0.2-0.4c-1.6,0.7-3.1,1.9-4.6,2.8
			C32.2,55.7,32.3,56,32.5,55.9z"/>
		<path class="st1" d="M24.9,84.5C35.7,84.7,47,82.4,57.5,80c10.6-2.4,21.6-5.3,31.3-10.2c0.3-0.1,0.1-0.6-0.2-0.6
			c-10.5,3.2-20.7,7-31.4,9.5S35.6,82.1,24.8,84C24.6,84.1,24.6,84.5,24.9,84.5z"/>
		<path class="st1" d="M84.1,71.9c18-6.1,37.1-13.8,52.1-25.7c0.3-0.2,0-0.8-0.4-0.6c-8.5,4.6-16.6,9.9-25.3,14.2S92.9,68,83.8,71.2
			C83.4,71.4,83.7,72,84.1,71.9z"/>
	</g>
</g>
</svg>
