<?xml version="1.0" encoding="utf-8"?>
<!-- Generator: Adobe Illustrator 27.2.0, SVG Export Plug-In . SVG Version: 6.00 Build 0)  -->
<svg version="1.1" id="_x5F_" xmlns="http://www.w3.org/2000/svg" xmlns:xlink="http://www.w3.org/1999/xlink" x="0px" y="0px"
	 viewBox="0 0 123.1 82.7" style="enable-background:new 0 0 123.1 82.7;" xml:space="preserve">
<style type="text/css">
	.st0{fill:none;}
	.st1{fill:#F2F2F2;}
</style>
<rect y="0" class="st0" width="123.1" height="82.7"/>
<g>
	<g>
		<g>
			<path class="st1" d="M42.3,43.9c6.8-8.7,16.2-15.8,26.2-20.5c5.5-2.5,11.4-4.4,17.4-5.1c7.3-0.8,13.6,0.6,20.7,2.4
				c0.6,0.2,0.9-0.6,0.3-0.9c-11.5-5.7-26.4-3.1-37.6,1.9C58.5,26.5,48.7,34,41.7,43.6C41.6,43.8,42.1,44.2,42.3,43.9z"/>
			<path class="st1" d="M106.7,20.6c-3,6.2-5.2,11.7-10.2,16.6c-4.2,4.1-9.2,7.3-14.5,9.8c-11.4,5.3-22.6,5.8-34.8,6.7
				c-0.5,0-0.4,0.7,0,0.8c12.2,2.3,27-1.8,37.7-7.4c9.6-5.1,21.1-14.8,22.4-26.4C107.5,20.3,106.9,20.2,106.7,20.6z"/>
			<path class="st1" d="M91.6,17.3c-3.6,5.1,0.9,18,8,17.9c0.6,0,0.8-0.7,0.2-1c-6-2.7-10.1-10-7.6-16.6
				C92.2,17.3,91.8,17,91.6,17.3z"/>
			<path class="st1" d="M64.2,39.7c-6.4,2.1-12.4,5.1-18.5,7.9C41.1,49.7,35,51.5,31,54.7c-0.3,0.3-0.1,0.8,0.3,0.7
				c5-0.9,10.3-4.6,14.9-6.7c6.1-2.8,12.2-5.5,18.3-8.3C65,40.2,64.6,39.5,64.2,39.7z"/>
			<path class="st1" d="M42.4,43.9c-0.3,1.8,0.3,3.5,1.1,5.1c0.8,1.7,1.9,3.7,3.4,4.9c0.3,0.2,0.7-0.1,0.5-0.4
				c-0.8-1.6-2.1-3-2.9-4.6s-1.4-3.2-1.5-5C43,43.5,42.5,43.6,42.4,43.9z"/>
			<path class="st1" d="M81.8,31.1c-1.4-9.2-17.4-3.5-13.3,5.4c1.5,3.2,5.2,4.3,8.4,3.3c4.2-1.3,6.2-5.7,5.1-9.8
				c-0.1-0.5-0.9-0.4-0.8,0.1c0.4,3.5-0.2,7-3.7,8.6c-2.6,1.2-5.9,0.8-7.7-1.6c-5.5-7.5,9.1-14.7,11.5-6
				C81.4,31.5,81.9,31.5,81.8,31.1z"/>
			<path class="st1" d="M77.6,29c-2.4-0.6-5.3,0.4-6.9,2.4c-1.5,2-0.8,4.8,1.3,6c1.9,1.1,4.3,0.3,5.7-1.3c1.8-2,1.8-4.6,0.2-6.7
				c-0.3-0.4-0.8,0.1-0.6,0.5c1.2,1.7,1.4,3.8,0,5.5c-1.1,1.4-3.2,2.2-4.9,1.4c-2.1-1-2.6-3.6-1.1-5.4c1.4-1.6,3.9-2.5,6-2
				C77.7,29.6,77.9,29.1,77.6,29z"/>
			<path class="st1" d="M76.2,30.2c0-0.2,0-0.5,0-0.7C76.2,29.7,76.3,30,76.2,30.2c0.4-0.1,0.7-0.3,1-0.4c0.4-0.2,0.2-0.8-0.2-0.8
				c-0.7,0.1-1.4,0.1-2.1,0.4c-0.5,0.2-0.2,0.9,0.3,0.8c0.6-0.2,1.4,0,2,0.1c0-0.3,0.1-0.6,0.1-0.9c-1.9-0.3-3.9,0.1-5.8,0.4
				c-0.5,0.1-0.5,0.8,0,0.9c1.9,0.4,3.8,1,5.8,1.2c0.6,0.1,0.8-0.9,0.2-1.1c-1.4-0.5-3-0.2-4.5-0.2c-0.6,0-0.9,0.9-0.3,1.1
				c1.5,0.5,3.1,0.4,4.7,0.7c0-0.4,0.1-0.8,0.1-1.2c-1.2-0.1-2.3-0.6-3.5-1c-0.1,0.4-0.2,0.8-0.3,1.2c1.3,0,2.6-0.7,3.9-0.7
				c-0.1-0.3-0.3-0.6-0.4-1c-0.3,0.4-2,0.3-2.6,0.5c-0.5,0.2-0.4,1,0.1,1.1c0.8,0.3,2.1,1.4,3.1,1c0.3-0.1,0.4-0.4,0.4-0.7
				c0,0,0,0,0-0.1c0-0.2-0.3-0.5-0.6-0.5c-1.2,0-2.3,0.5-3.5,0.5c-0.7,0-1,1-0.3,1.2c1.2,0.4,2.4,0.6,3.6,0.6
				c-0.1-0.4-0.1-0.8-0.2-1.2c-0.9,0.3-1.9,0.4-2.8,0.7c0.2,0,0.4,0,0.7,0.1c0.1,0.1,0.1,0.2,0.2,0.3c-0.1,0.2-0.2,0.5-0.4,0.7
				c0.3-0.2,0.7-0.1,1-0.2c0.1,0,0.4,0,0.6,0c0.4-0.2,0.2,0.3-0.1-0.2c0.1-0.3,0.1-0.5,0.2-0.8c0.2-0.2-0.1-0.1-0.4-0.1
				c-0.2,0-0.4,0-0.6,0c-0.3,0.1-0.6,0.4-0.5,0.8c0.2,0.8,1.8,1.1,2.4,1.3c0.1-0.4,0.2-0.9,0.3-1.3c-1.6-0.2-3.2,0.2-4.8,0
				c-0.8-0.1-1,1.1-0.3,1.3c0.8,0.3,1.7,0.4,2.4,0.9c0.3,0.2,0.6,0.1,0.8,0l0,0c0.4-0.3,0.3-0.8-0.1-1.1c-0.6-0.6-2.6-0.1-3.3,0.1
				c-0.4,0.1-0.5,0.8-0.2,1.1c0.4,0.5,0.9,0.6,1.5,0.4c0.7-0.2,0.4-1.3-0.2-1.3c-0.3,0-0.6,0-0.8-0.2c-0.1,0.4-0.2,0.7-0.2,1.1
				c0.3-0.1,0.6-0.3,0.9-0.4s0.4-0.4,0.4-0.7c-0.1-0.5-0.2-0.8-0.6-1.1c-0.3-0.2-1-0.3-1.2-0.6c0,0.3-0.1,0.7-0.1,1
				c0.6-0.6,1.5-0.4,2.2-1c0.4-0.4,0.3-1-0.2-1.2c-0.2,0-0.4-0.1-0.5-0.3c-0.2,0.3-0.5,0.7-0.7,1c0,0,0,0,0.1,0
				c-0.1-0.2-0.3-0.4-0.4-0.5c0.1-0.2,0.2-0.4,0.2-0.6c-0.4,0.3-1.2,0.4-1.7,0.5c-0.4,0.1-0.6,0.4-0.6,0.8c0.2,2,3.4,0.7,1.9-1.4
				c-0.4-0.5-1.2-0.2-1.2,0.4c-0.1,0.9-0.3,1.9-0.3,2.8c0,0.4,0.3,0.7,0.6,0.8c1.9,0.3,3.8,0.4,5.6-0.3c-0.2-0.4-0.4-0.9-0.6-1.3
				c-0.8,0.4-1.6,0.7-2.5,0.7c-0.7,0-1.1,1.1-0.3,1.4c1.4,0.5,2.3,0.2,3.6-0.3c-0.3-0.4-0.5-0.8-0.8-1.2c-0.8,0.7-1.7,1.3-2.7,1.7
				c-0.8,0.4-0.2,1.6,0.6,1.3c1.1-0.4,2.2-0.5,3.3-1c-0.2-0.4-0.4-0.8-0.6-1.3c-0.7,0.3-1.5,0.7-2.2,1.1s-0.2,1.4,0.5,1.1
				c0.8-0.3,1.5-0.6,2.2-0.9c0.8-0.4,0.2-1.6-0.6-1.3c-1.1,0.4-2.2,0.5-3.3,1c0.2,0.4,0.4,0.8,0.6,1.3c1.1-0.5,2.1-1.1,3-1.9
				c0.6-0.5,0-1.5-0.8-1.2c-0.9,0.4-1.5,0.6-2.5,0.3c-0.1,0.5-0.2,0.9-0.3,1.4c1.2,0,2.1-0.3,3.2-0.8c0.8-0.4,0.2-1.6-0.6-1.3
				c-1.5,0.6-3.3,0.4-4.8,0.2c0.2,0.3,0.4,0.5,0.6,0.8c0.1-0.9,0.3-1.9,0.3-2.8c-0.4,0.1-0.8,0.3-1.2,0.4c0.2,0.1,0.4,0.2,0.5,0.3
				c-0.2,0.3-0.4,0.5-0.6,0.8c0.8-0.2,2.7-0.4,2.6-1.6c0-0.2-0.2-0.4-0.4-0.5c-0.1-0.1-0.3-0.1-0.4-0.1c-0.5-0.1-0.9,0.5-0.7,1
				c0.3,0.6,0.6,0.8,1.2,1c-0.1-0.4-0.1-0.8-0.2-1.2c-0.6,0.6-1.5,0.4-2.2,1c-0.3,0.3-0.3,0.7-0.1,1c0.3,0.4,1.5,0.5,1.5,1
				c0.1-0.2,0.3-0.5,0.4-0.7c-0.3,0.1-0.6,0.3-0.9,0.4c-0.4,0.2-0.5,0.7-0.2,1.1c0.4,0.5,1.1,0.7,1.7,0.7c-0.1-0.4-0.2-0.9-0.2-1.3
				c0.1,0,0.1,0,0.2-0.1c-0.1,0.4-0.2,0.7-0.2,1.1c0.4-0.1,0.8-0.1,1.2-0.1c0.2,0,0.4,0,0.6,0c0.3-0.1,0.4,0.2,0.2-0.1
				c0-0.4,0-0.7-0.1-1.1l0,0c0.3,0,0.6,0,0.8,0c-0.8-0.6-1.8-0.7-2.7-1c-0.1,0.4-0.2,0.9-0.3,1.3c1.6,0.2,3.2-0.2,4.8,0
				c0.8,0.1,1-1,0.3-1.3c-0.7-0.2-1.4-0.5-2-0.8c0.1,0.2,0.3,0.3,0.4,0.5c-0.2,0.2-0.4,0.5-0.6,0.7c0.5-0.2,1.2,0.1,1.6-0.3
				c0.2-0.2,0.3-0.5,0.2-0.8c-0.5-0.9-2.6-0.7-3.3-0.3c-0.3,0.2-0.4,0.4-0.4,0.7c0,0.4,0.4,0.6,0.8,0.6c0.4,0.1,1.1-0.3,1.5-0.4
				c0.5-0.1,1.1-0.2,1.6-0.4c0.6-0.2,0.4-1.2-0.2-1.2c-1.1,0-2.2-0.1-3.3-0.5c-0.1,0.4-0.2,0.8-0.3,1.2c1.2,0,2.3-0.5,3.5-0.5
				c-0.2-0.2-0.4-0.3-0.6-0.5c0,0,0,0,0,0.1c0.1-0.2,0.2-0.5,0.4-0.7c0.2-0.1-0.7-0.4-0.9-0.5c-0.4-0.2-0.8-0.4-1.2-0.5
				c0,0.4,0,0.8,0.1,1.1c1-0.4,2.4,0,3.1-1c0.2-0.3,0-1-0.4-1c-1.3,0-2.6,0.7-3.9,0.7c-0.6,0-1,0.9-0.3,1.2c1.2,0.5,2.5,0.9,3.8,1
				c0.8,0.1,0.9-1.1,0.1-1.2c-1.5-0.2-3-0.1-4.4-0.6c-0.1,0.4-0.2,0.7-0.3,1.1c1.4,0,2.9-0.4,4.2,0.1c0.1-0.4,0.2-0.7,0.2-1.1
				c-2,0-3.9-0.6-5.8-1c0,0.3,0,0.6,0,0.9c1.8-0.3,3.7-0.7,5.5-0.5c0.6,0.1,0.6-0.8,0.1-0.9c-0.7-0.1-1.6-0.3-2.3-0.1
				c0.1,0.3,0.2,0.5,0.3,0.8c0.6-0.2,1.2-0.3,1.8-0.4c-0.1-0.2-0.2-0.5-0.2-0.8c-0.3,0.1-0.6,0.3-0.9,0.4
				C75.7,29.7,75.8,30.2,76.2,30.2c0.2,0.1,0.5,0.1,0.7-0.1c0.1-0.1,0.2-0.3,0.1-0.4c0,0,0,0,0-0.1c-0.1-0.1-0.2-0.2-0.4-0.2
				c-0.3,0-0.3,0.1-0.6,0.2S75.9,30.3,76.2,30.2z"/>
			<path class="st1" d="M87.3,20.6v-0.1c0,0.1,0,0.2,0,0.4v-0.1c0.3-0.8-1-1.3-1.3-0.5c-0.1,0.4-0.1,0.8,0.3,1
				c-0.1-0.1-0.2-0.3-0.2-0.4c0,0.3,0.1,0.5,0.3,0.7c0.2,0.2,0.5,0.2,0.6,0s0.2-0.5,0.2-0.8c-0.1,0.1-0.1,0.3-0.2,0.4
				c0.1-0.1,0.2-0.2,0.2-0.3c0.2-0.4-0.1,0.1-0.2,0.1c-0.2,0-0.4-0.1-0.5-0.1c0,0,0,0.1,0.1,0.1C86.9,21.5,87.5,21,87.3,20.6z"/>
			<path class="st1" d="M88.2,26c-0.3,0.1-0.5,0.2-0.8,0.4c0.2,0.4,1,0.2,0.8-0.3c-0.1-0.2-0.1-0.3-0.2-0.5
				c-0.3-0.8-1.4-0.1-0.9,0.4c0.1,0.1,0.2,0.2,0.2,0.3C87.7,26.9,88.3,26.5,88.2,26z"/>
			<path class="st1" d="M90,31.2c0-0.1,0-0.2,0-0.4c-0.1-0.8-1.6-0.3-1,0.5c0.1,0.1,0.1,0.2,0.2,0.3C89.5,32,90.1,31.6,90,31.2
				c0-0.1,0-0.2,0-0.4c-0.2-0.9-1.6-0.2-1,0.5c0.1,0.1,0.2,0.2,0.2,0.3C89.5,31.9,90,31.6,90,31.2z"/>
			<path class="st1" d="M91.2,35.3c0,0.1,0.2,0.5,0.1,0.3c0.2,1.1,2,0.4,1.3-0.6c0.2,0.2-0.1-0.2-0.1-0.3
				C92,33.9,90.9,34.5,91.2,35.3z"/>
			<path class="st1" d="M45.7,39.4c0.1,2.6,0.6,5,2.1,7.2c0.3,0.4,0.9-0.1,0.6-0.5c-1.4-2-2-4.4-2.1-6.8
				C46.2,38.9,45.6,39,45.7,39.4z"/>
			<path class="st1" d="M45.4,40.8c-0.2,0.3-0.7,0.3-1,0.4c-0.1,0.1-0.2,0.2-0.2,0.4c0.2,0.7,1.4,0.9,1.9,1.1
				c0.1-0.3,0.1-0.5,0.2-0.8c-0.9,0-1.7,0-2.6,0.1c-0.5,0-0.7,0.6-0.2,0.8c0.8,0.3,1.7,0.6,2.5,1c0.1-0.3,0.1-0.6,0.2-0.9
				c-1.2,0-2.2-0.2-3.3-0.5c-0.6-0.2-0.9,0.7-0.3,0.9c1.3,0.5,2.6,0.9,3.8,1.5c0-0.3,0-0.6,0-0.9c-0.7,0.3-1.5,0.3-2.2,0.1
				c-0.6-0.2-1,0.8-0.4,1c0.8,0.3,2.5,0.3,2.9,1c0.2-0.2,0.4-0.5,0.6-0.7c-1.2-0.4-2.3-0.6-3.6-0.6c-0.7,0-0.8,1-0.1,1.1
				c1.2,0.1,2.4,0.6,3.5,1c0.1-0.3,0.2-0.7,0.2-1c-1.1,0-2.2-0.1-3.2-0.1c-0.5,0-0.8,0.5-0.5,0.9c0.6,0.7,1.8,0.5,2.6,0.7
				c0-0.4,0.1-0.7,0.1-1.1c-0.9,0.2-1.7-0.3-2.3,0.6c-0.1,0.2-0.1,0.5,0,0.7c0.6,0.7,1.8,0.5,2.6,0.7c0-0.4,0-0.7,0-1.1
				c-0.6,0.2-1.2,0.2-1.8,0.3c0.1,0.4,0.2,0.7,0.3,1.1c0.9-0.4,1.8-0.8,2.7-1.2c-0.2-0.4-0.3-0.7-0.5-1.1c-0.7,0.3-1.5,0.7-2.3,1
				c0.3,0.1,0.5,0.2,0.8,0.3c-0.4-1,0-2.1-0.8-3c-0.3-0.3-0.8-0.2-1,0.2c-0.8,1.6,0.2,2.5,1.2,3.8c0.2,0.3,0.8,0.1,0.7-0.3
				c-0.3-1.1-1.4-1.9-0.8-3c-0.3,0.1-0.7,0.1-1,0.2c0.6,0.6,0.4,1.9,0.7,2.7c0.1,0.3,0.5,0.4,0.8,0.3c0.8-0.3,1.5-0.7,2.3-1
				c0.7-0.3,0.2-1.4-0.5-1.1c-0.9,0.4-1.8,0.8-2.7,1.2c-0.6,0.3-0.3,1.2,0.3,1.1c0.7-0.1,1.4-0.2,2.1-0.4c0.5-0.2,0.4-0.9,0-1.1
				c-0.5-0.1-1.8,0-2.1-0.4c0,0.2,0,0.5,0,0.7c0.2-0.3,1.3-0.1,1.6-0.1c0.5-0.1,0.7-0.9,0.1-1.1c-0.5-0.1-1.8,0-2.1-0.4
				c-0.2,0.3-0.3,0.6-0.5,0.9c1.1,0,2.2,0.1,3.2,0.1c0.6,0,0.8-0.8,0.2-1c-1.2-0.5-2.5-0.9-3.8-1c0,0.4-0.1,0.7-0.1,1.1
				c1.2,0,2.2,0.2,3.3,0.5c0.5,0.2,0.8-0.4,0.6-0.8c-0.7-1.1-2.3-1-3.4-1.3c-0.1,0.3-0.2,0.6-0.4,1c1,0.3,2,0.2,3-0.1
				c0.4-0.2,0.4-0.8,0-0.9c-1.3-0.4-2.6-0.9-3.9-1.4c-0.1,0.3-0.2,0.6-0.3,0.9c1.2,0.4,2.3,0.5,3.6,0.6c0.5,0,0.7-0.7,0.2-0.9
				c-0.9-0.3-1.7-0.6-2.6-0.9c0,0.3,0,0.5-0.1,0.8c0.9,0,1.7-0.1,2.6-0.2c0.4,0,0.4-0.7,0.1-0.8c-0.2-0.1-1.5-0.3-1.6-0.5
				c-0.1,0.2-0.1,0.3-0.2,0.5c0.5-0.3,0.9-0.2,1.3-0.7C46.1,40.9,45.7,40.5,45.4,40.8z"/>
			<path class="st1" d="M47.7,46.3c0,2.7,1.5,5,3.4,6.8c0.5,0.5,1.3-0.2,0.8-0.7c-1.8-1.8-3.1-3.6-3.5-6.1
				C48.4,45.8,47.7,45.8,47.7,46.3z"/>
			<path class="st1" d="M45.1,47.8c1,1.2,1.7,2.7,2.3,4.2c0.3-0.2,0.6-0.4,0.8-0.5c-0.9-0.8-1.5-1.8-2.2-2.7c-0.4-0.5-1.2,0-1,0.6
				c0.4,0.9,0.8,1.8,1.2,2.6c0.4-0.2,0.7-0.3,1.1-0.5c-0.4-0.9-0.8-1.8-1.2-2.7c-0.3,0.2-0.7,0.4-1,0.7c1.1,1.3,2.4,1.8,3.9,2.6
				c0.6,0.3,1.2-0.3,0.8-0.9c-0.5-0.7-1.3-1.8-1.6-2.3c-0.4,0.2-0.8,0.4-1.1,0.5c0.3,0.7,0.9,2.5,1.8,2.6c2,0.2-0.5-2.8-0.7-3.1
				c-0.4-0.7-1.5-0.2-1.1,0.5c0.5,1,1.3,1.9,1.8,2.9c0.3-0.3,0.5-0.6,0.8-0.9c-1-0.3-2-0.3-3-0.4c-0.7,0-1,1-0.3,1.2
				c1.5,0.6,2.8,0.9,4.4,0.8c0.7,0,0.7-1.2-0.1-1.3c-1.1,0-2.2-0.1-3.2-0.1c-0.6,0-1,0.8-0.4,1.2c1,0.6,2,0.5,3.1,0.8
				c0.1-0.4,0.2-0.8,0.3-1.2c-1.1,0-2.2-0.1-3.2-0.1c0.2,0.2,0.4,0.4,0.6,0.5c-0.8-3-1.7-6.2-4.3-8.1c-0.4-0.3-1.1,0.1-1,0.6
				c0.7,2.6,2.2,5,4.6,6.3c0.4,0.2,1.1-0.3,0.7-0.7c-1.8-1.7-3.4-3.3-4.1-5.8c-0.3,0.2-0.6,0.4-1,0.6c2.3,1.7,3.1,4.7,3.8,7.3
				c0.1,0.3,0.3,0.5,0.6,0.5c1.1,0,2.2,0.1,3.2,0.1c0.7,0,1-1,0.3-1.2c-0.9-0.3-2-0.1-2.9-0.7c-0.1,0.4-0.3,0.8-0.4,1.2
				c1.1,0,2.2,0.1,3.2,0.1c0-0.4,0-0.8-0.1-1.3c-1.3,0.1-2.5-0.3-3.7-0.8c-0.1,0.4-0.2,0.8-0.3,1.2c0.9,0,1.8,0,2.6,0.3
				c0.5,0.1,1.1-0.3,0.8-0.9c-0.5-1-1.3-1.9-1.8-2.9c-0.4,0.2-0.8,0.4-1.1,0.5c0.2,0.4,0.5,0.8,0.8,1.1c0.3,0.4,0.3,0.6,0.9,0.4
				c0.8-0.3,0.3-0.1,0.2-0.5c-0.1-0.5-0.6-1.1-0.8-1.6c-0.4-0.7-1.5-0.2-1.1,0.5c0.4,0.9,1.2,1.8,1.7,2.6c0.3-0.3,0.6-0.6,0.8-0.9
				c-1.4-0.7-2.7-1.2-3.7-2.4c-0.4-0.5-1.3,0-1,0.7c0.4,0.9,0.8,1.8,1.2,2.6c0.3,0.7,1.4,0.2,1.1-0.5c-0.4-0.9-0.8-1.8-1.2-2.6
				c-0.3,0.2-0.6,0.4-1,0.6c0.8,0.9,1.5,1.9,2.4,2.7c0.4,0.3,0.9-0.2,0.7-0.6c-0.7-1.5-1.4-3-2.6-4.2C45.4,46.9,44.8,47.4,45.1,47.8
				z"/>
			<path class="st1" d="M47.7,37.2c-0.9,6,2.6,11.6,6.8,15.5c0.7,0.6,1.6-0.3,0.9-1c-4-3.7-7.2-8.8-6.6-14.4
				C48.8,36.6,47.8,36.5,47.7,37.2z"/>
			<path class="st1" d="M54.5,52c0.5,0.5,0.7,1.2,1.3,1.7c0.4,0.4,1-0.2,0.8-0.7c-1-2.3-5.3-2.7-7.5-2.9c-0.5,0-0.8,0.8-0.2,0.9
				c1.2,0.4,2.4,0.7,3.6,1.1c0.6,0.2,1-0.6,0.5-1c-1.1-0.9-2.2-1.7-3.2-2.7c-0.3,0.3-0.5,0.6-0.8,0.9c0.9,0.5,1.7,0.8,2.7,1.1
				c0.6,0.2,1.1-0.5,0.7-1c-2.2-2.6-4.6-4.9-5.3-8.4c-0.4,0.1-0.8,0.3-1.3,0.4c0.7,1.6,1.4,3.2,2.2,4.9c0.3,0.7,1.4,0.3,1.3-0.4
				c-0.3-1.9-0.6-3.7-1.4-5.4c-0.3-0.8-1.6-0.2-1.3,0.6c0.5,1.1,0.8,2.4,1.1,3.5c0.4-0.1,0.9-0.3,1.3-0.4c-0.8-1.7-1.5-3.4-1.9-5.3
				c-0.2-0.9-1.6-0.7-1.4,0.2c0.2,1.3,0.6,2.6,0.7,3.9c0.5-0.1,1-0.2,1.4-0.3c-0.2-0.8-0.3-1.6-0.6-2.4c-0.2-0.7-1.4-0.8-1.5,0.1
				c-0.2,4.4,2.4,7.8,5.8,10.4c0.3-0.4,0.6-0.8,0.9-1.2c-0.8-0.6-1.6-1.1-2.3-1.6s-1.5,0.4-1,1.1c1.4,1.9,3.2,3.3,5.4,4.1
				c0.6,0.2,0.9-0.5,0.5-0.9c-1.7-1.4-3.4-2.4-4.8-4.2c-0.3,0.4-0.7,0.7-1,1.1c0.8,0.6,1.6,1.1,2.3,1.6c0.8,0.6,1.6-0.6,0.9-1.2
				c-2.9-2.2-5.3-5.2-5.2-9.1c-0.5,0-1,0-1.5,0.1c0.2,0.8,0.3,1.6,0.6,2.4c0.3,0.9,1.5,0.7,1.4-0.3c-0.1-1.3-0.5-2.6-0.7-3.9
				c-0.5,0.1-0.9,0.2-1.4,0.2c0.4,2,1.2,3.8,2,5.7c0.3,0.7,1.5,0.4,1.3-0.4c-0.4-1.3-0.7-2.6-1.2-3.9c-0.4,0.2-0.8,0.4-1.3,0.6
				c0.7,1.6,1,3.3,1.3,5.1c0.4-0.1,0.9-0.3,1.3-0.4c-0.7-1.6-1.5-3.2-2.2-4.8c-0.3-0.7-1.4-0.3-1.3,0.4c0.8,3.7,3.3,6.2,5.7,8.9
				c0.2-0.3,0.5-0.6,0.7-1c-0.9-0.2-1.6-0.4-2.4-0.9c-0.5-0.3-1.3,0.4-0.8,0.9c1.1,1,2.3,1.9,3.5,2.8c0.2-0.3,0.3-0.6,0.5-1
				c-1.2-0.4-2.5-0.6-3.7-0.9c-0.1,0.3-0.1,0.6-0.2,0.9c2,0.2,5.7,0.5,6.6,2.4c0.3-0.2,0.5-0.4,0.8-0.7c-0.6-0.4-0.7-1.1-1.3-1.5
				C54.6,51.2,54.1,51.7,54.5,52z"/>
			<path class="st1" d="M47.4,38.5c0.2,4.8,2.6,10.8,6.2,14c0.3,0.3,0.8-0.2,0.6-0.5c-1.3-2.1-2.8-4-3.9-6.2
				c-1.1-2.3-1.8-4.8-2.4-7.3C47.9,38.2,47.4,38.1,47.4,38.5z"/>
			<path class="st1" d="M53.7,52.5c-1.4-0.1-2.6-0.5-4-0.5c-0.5,0-0.5,0.7-0.1,0.9c0.7,0.2,1.4,0.3,2.1,0.5c0.5,0.1,1.2,0.4,1.7,0.3
				c0.4-0.1,0.6-0.5,0.3-0.9s-1.2-0.4-1.6-0.4c-0.6-0.1-1.5-0.4-2.1-0.1c-0.3,0.1-0.4,0.6-0.2,0.9c0.1,0.1,0.2,0.2,0.3,0.2
				c0.4,0.2,0.8-0.2,0.7-0.6c-0.3-2-1.9-3.6-3.2-5.1c-0.2-0.2-0.6,0-0.4,0.3c0.9,1.6,2.2,3.2,2.5,5.1c0.2-0.2,0.5-0.4,0.7-0.6
				c0.1,0,0.1,0.1,0.2,0.1c-0.1,0.3-0.1,0.6-0.2,0.9c-0.2,0.1,0.3,0.1,0.4,0.1c0.3,0,0.6,0.1,0.9,0.1s0.5,0.1,0.8,0.1
				c0.4,0,0.4,0.2,0.2-0.1c0.1-0.3,0.1-0.6,0.2-0.9c0.2-0.1-0.3-0.1-0.4-0.1c-0.3,0-0.7-0.1-1-0.1c-0.6-0.1-1.2-0.2-1.7-0.4
				c0,0.3-0.1,0.6-0.1,0.9c1.3-0.1,2.5,0.2,3.8,0.3C54.1,53.2,54.1,52.5,53.7,52.5z"/>
			<path class="st1" d="M45.8,43.9c-0.5-0.4-1.2-0.7-1.8-0.2c-0.6,0.4-0.8,1.4-0.4,2c0.2,0.3,0.6,0.3,0.7,0c0.2-0.5,0.1-1.5,1-1
				C45.8,45,46.2,44.3,45.8,43.9z"/>
			<path class="st1" d="M42.1,42.4c-5.9,1.5-11.6,3.7-16.5,7.4c-0.2,0.2-0.1,0.6,0.2,0.6c0.9,0.1,1.9,0.2,2.8,0.3
				c0.4,0,0.4-0.5,0.1-0.6c-1.6-0.2-2.1,0.2-0.9-1s3.5-2.1,5-2.8c3-1.4,6.2-2.4,9.4-3.3C42.5,42.8,42.4,42.3,42.1,42.4z"/>
			<path class="st1" d="M28.5,50.1c-7.1,2.9-13,8.3-17.6,14.3c-0.3,0.4,0.3,0.9,0.7,0.5c4.7-6.1,10.4-10.7,17.2-14.2
				C29.1,50.4,28.9,49.9,28.5,50.1z"/>
			<path class="st1" d="M12.5,64.2c4.2,0,8.3-1,12.3-2.2c0.4-0.1,0.3-0.8-0.1-0.7c-4,1.2-8,2.1-12.2,2.4
				C12.2,63.8,12.2,64.2,12.5,64.2z"/>
			<path class="st1" d="M24.4,61.6c-0.2,1.3-1,2.3-1.5,3.3c-0.1,0.2,0.2,0.4,0.4,0.3c1-0.8,1.8-2.3,1.8-3.6
				C25.1,61.2,24.5,61.2,24.4,61.6z"/>
			<path class="st1" d="M23.6,65.1c8.2-2.3,16.9-4.8,23.9-9.7c0.3-0.2,0-0.7-0.3-0.5c-7.6,4.4-15.6,6.7-23.7,9.7
				C23.1,64.7,23.3,65.2,23.6,65.1z"/>
			<path class="st1" d="M29.8,23.6c9.7-3.5,21.9-4.2,30.6,2.2c0.7,0.5,1.4-0.6,0.7-1.1c-8.5-6.1-22.4-6.1-31.6-1.6
				C29.3,23.2,29.5,23.7,29.8,23.6z"/>
			<path class="st1" d="M29.4,23.6c1.3,1.5,2.9,3,4.4,4.3c0.4,0.4,1-0.3,0.7-0.7c-1.4-1.5-2.9-3-4.5-4.2
				C29.6,22.7,29.1,23.2,29.4,23.6z"/>
			<path class="st1" d="M33.4,27.6c2.6,0.9,5.2,1.8,7.6,3c3,1.5,5,3.2,7.3,5.6c0.3,0.3,0.8,0.1,0.8-0.4c-0.5-2.5-3.8-4.3-5.9-5.4
				c-3-1.6-6.3-3-9.7-3.6C33.2,26.9,33,27.5,33.4,27.6z"/>
			<path class="st1" d="M54.7,76.3c9.6-4.1,18.9-14.6,20-25.2c0.1-0.8-1.2-0.9-1.3-0.1c-1,10.9-9.7,19.8-18.9,24.8
				C54.2,76,54.4,76.4,54.7,76.3z"/>
			<path class="st1" d="M55,76.1c0.1-2,0-4.2-0.2-6.2c-0.1-0.5-1-0.5-1,0c0,2.1,0.1,4.2,0.3,6.2C54.3,76.6,55,76.6,55,76.1z"/>
			<path class="st1" d="M54.5,70.7c2.3-3.8,5.8-11.7,3-16c-0.2-0.4-0.8,0-0.8,0.4c0.8,5.6-0.7,10.1-2.9,15.3
				C53.6,70.7,54.2,71,54.5,70.7z"/>
		</g>
		<path class="st1" d="M43.1,44.5c2-1.5,3.6-3.5,5-5.5c-0.3-0.2-0.5-0.4-0.8-0.6c-0.7,1.2-2.2,1.8-3.1,3c-0.8,1.1-1.3,2.4-1.5,3.7
			c0.4-0.1,0.8-0.1,1.2-0.2c-0.2-0.6-0.5-1.2-0.7-1.8C43,42.5,42,42.7,42,43.3c-0.1,1.7,0.5,3.7,2.3,4.3c0.3,0.1,0.7-0.2,0.5-0.5
			c-0.8-1.2-1.5-2.1-1.5-3.6c-0.4,0.1-0.8,0.1-1.2,0.2c0.2,0.6,0.5,1.2,0.7,1.8c0.3,0.6,1.2,0.4,1.2-0.2c0.2-1.7,0.7-3.2,2-4.4
			c0.7-0.7,1.6-1.1,2.1-2c0.3-0.5-0.5-1.1-0.8-0.6c-1.3,2.1-2.8,3.9-4.6,5.6C42.4,44.4,42.7,44.8,43.1,44.5z"/>
		<path class="st1" d="M47,48.8c0.1-0.3,0.2-0.5,0.4-0.6c-0.3-0.2-0.6-0.4-0.8-0.6c0,0.4-0.1,0.6-0.4,0.9c-0.5,0.5,0.3,1.1,0.8,0.9
			c0.7-0.2,1.3-0.9,1.5-1.6c0.2-0.6-0.5-1.2-1.1-0.7c-0.9,0.8-1.4,1.8-1.5,3c0.4-0.1,0.8-0.3,1.2-0.4c-0.4-0.5-0.7-0.9-1.1-1.4
			s-1.1-0.2-1.2,0.4s0,1.2,0.3,1.7c0.4,0.8,1.5,0.2,1.3-0.6c0-0.1,0-0.3,0.1-0.3c0.3-0.2,0.3-0.7-0.1-0.7c-1-0.1-1.5,0.8-1.2,1.7
			c0.4-0.2,0.8-0.4,1.3-0.6c-0.1-0.3-0.2-0.6-0.1-1c-0.4,0.1-0.8,0.3-1.2,0.4c0.4,0.5,0.7,0.9,1.1,1.4s1.1,0.2,1.2-0.4
			c0.1-0.8,0.5-1.6,1-2.1c-0.4-0.2-0.7-0.4-1.1-0.6c-0.1,0.4-0.4,0.7-0.7,0.8c0.3,0.3,0.5,0.6,0.8,0.9c0.4-0.5,0.6-1.1,0.5-1.7
			c0-0.4-0.7-0.7-0.9-0.3c-0.4,0.4-0.6,0.9-0.7,1.5C46,49.3,46.9,49.4,47,48.8z"/>
		<path class="st1" d="M47.5,37.5c-0.9,0.9-1.3,2.7-1,3.9c0.1,0.5,0.7,0.6,1,0.2c0.5-0.7,0.7-1.3,0.6-2.2c-0.1-0.7-1.1-0.6-1.2,0
			c-0.2,1.5-0.2,3.5,0.8,4.7c0.2,0.2,0.7,0.1,0.7-0.2c0-0.7-0.2-1.2-0.3-1.8C48,41.3,48,40.5,48,39.6c-0.4,0-0.8,0-1.2,0
			c0.2,0.5,0.1,0.9-0.3,1.3c0.3,0.1,0.7,0.1,1,0.2c-0.3-1.2,0.6-2.3,0.5-3.5C48,37.5,47.7,37.3,47.5,37.5z"/>
		<path class="st1" d="M51.8,52.1c0.4,0.2,0.7,0.4,1,0.8c0.3,0.3,0.4,0.6,0.7,0.9c0.2,0.2,0.6,0,0.6-0.3c0-1-0.9-1.7-1.7-2.1
			C51.8,51.1,51.2,51.8,51.8,52.1z"/>
		<path class="st1" d="M57.7,56c1.9,0.1,4.1,0.2,6-0.2c0.3,0,0.3-0.5,0-0.5c-2-0.1-4,0.1-5.9,0.2C57.4,55.5,57.4,56,57.7,56z"/>
		<path class="st1" d="M65,55.5c3-0.3,6-0.9,8.8-2c0.3-0.1,0.2-0.7-0.2-0.6c-2.9,0.9-5.7,1.7-8.7,2.2C64.6,55.1,64.7,55.6,65,55.5z"
			/>
		<path class="st1" d="M57.7,57.4c3.3,0.2,6.9,0,10.2-0.6c0.3-0.1,0.2-0.5-0.1-0.5c-3.3,0.3-6.7,0.5-10,0.6
			C57.4,56.9,57.4,57.3,57.7,57.4z"/>
		<path class="st1" d="M69.3,56.4c1.3-0.1,2.7-0.3,3.9-0.8c0.3-0.1,0.2-0.7-0.2-0.6c-1.3,0.3-2.5,0.6-3.8,0.8
			C68.8,55.9,68.9,56.4,69.3,56.4z"/>
		<path class="st1" d="M58,59c0.8,0.3,1.5,0.3,2.3,0.1c0.3-0.1,0.1-0.4-0.1-0.5c-0.7-0.1-1.4-0.1-2.1-0.2C57.8,58.4,57.7,58.9,58,59
			z"/>
		<path class="st1" d="M61.1,58.9c3.7,0.2,7.6-0.2,11.2-1.1c0.3-0.1,0.2-0.6-0.1-0.5c-3.7,0.8-7.3,1.2-11,1.1
			C60.8,58.4,60.7,58.9,61.1,58.9z"/>
		<path class="st1" d="M58.5,60.5c1,0.1,2,0.3,3,0.2c0.2,0,0.3-0.4,0-0.5c-0.9-0.2-2-0.2-3-0.2C58.2,60,58.2,60.5,58.5,60.5z"/>
		<path class="st1" d="M64.6,60.5c1.4-0.1,2.9-0.1,4.4-0.3c0.2,0,0.2-0.4,0-0.4c-1.5,0-2.9,0.1-4.4,0.2
			C64.4,60.1,64.4,60.6,64.6,60.5z"/>
		<path class="st1" d="M57.5,62.2c1.8,0.5,3.9,0.9,5.7,0.5c0.3-0.1,0.3-0.5,0-0.5c-1.9-0.1-3.7,0-5.6-0.4
			C57.4,61.7,57.3,62.1,57.5,62.2z"/>
		<path class="st1" d="M57.1,63.6c0.2,0.4,0.6,0.6,1.1,0.5c0.3-0.1,0.3-0.4,0-0.5c-0.2,0-0.4-0.2-0.5-0.3C57.4,63,57,63.2,57.1,63.6
			z"/>
		<path class="st1" d="M59.7,64.5c0.7,0,1.3,0,2-0.1c0.3,0,0.2-0.4,0-0.5c-0.6-0.1-1.3,0-1.9,0C59.4,64,59.4,64.5,59.7,64.5z"/>
		<path class="st1" d="M56.6,65.4c0.5,0.2,1.1,0.4,1.7,0.4c0.3,0,0.5-0.4,0.2-0.5c-0.5-0.3-1.1-0.4-1.7-0.5
			C56.4,64.7,56.3,65.3,56.6,65.4z"/>
		<path class="st1" d="M48.4,35.2c0.4-0.4,0.9-0.7,1.2-1.1c0.2-0.2-0.1-0.5-0.3-0.5c-0.6,0.1-1.2,0.7-1.4,1.2
			C47.7,35.2,48.2,35.5,48.4,35.2z"/>
		<path class="st1" d="M50.5,33.1c1.5-1.4,3.1-2.6,4.7-3.9c1.6-1.2,3.4-2.3,4.9-3.6c0.2-0.2,0-0.6-0.3-0.5c-3.6,1.7-6.8,4.9-9.7,7.6
			C49.9,32.9,50.3,33.3,50.5,33.1z"/>
		<path class="st1" d="M47.2,33.4c0.7-0.6,1.4-1.3,2.2-1.8c0.7-0.6,1.6-1.1,2.3-1.7c0.2-0.2,0-0.5-0.3-0.4c-1.7,0.8-3.3,2.3-4.5,3.6
			C46.6,33.2,46.9,33.6,47.2,33.4z"/>
		<path class="st1" d="M52.8,28.6c1.9-1.3,3.9-2.6,5.6-4.2c0.2-0.2,0-0.5-0.2-0.4c-2,1.1-3.9,2.7-5.6,4.2
			C52.2,28.4,52.5,28.8,52.8,28.6z"/>
		<path class="st1" d="M45.8,32.4c0.8-0.6,1.7-1.3,2.3-2.1c0.1-0.2-0.1-0.5-0.3-0.4c-0.9,0.5-1.7,1.3-2.4,2.1
			C45.2,32.2,45.5,32.6,45.8,32.4z"/>
		<path class="st1" d="M48.9,29.6c1.5-1.1,3.2-2.1,4.5-3.4c0.2-0.2,0-0.5-0.3-0.4c-1.6,0.9-3.1,2.2-4.6,3.4
			C48.2,29.4,48.6,29.8,48.9,29.6z"/>
		<path class="st1" d="M44.5,31c0.5-0.4,1-0.9,1.6-1.3c0.5-0.4,1.2-0.7,1.7-1.2c0.2-0.1,0-0.5-0.2-0.4c-1.3,0.4-2.6,1.5-3.4,2.6
			C44,30.9,44.3,31.1,44.5,31z"/>
		<path class="st1" d="M92.4,18.4c-0.2,5.9,2.3,11.4,7,15c0.5,0.4,1-0.4,0.5-0.8c-4.6-3.4-7.3-8.5-7.2-14.2
			C92.8,18.2,92.4,18.2,92.4,18.4z"/>
		<path class="st1" d="M94.4,18.4c-0.3,5.2,2.9,10.4,6.8,13.6c0.4,0.3,0.9-0.3,0.5-0.7c-4-3.4-6.2-7.8-6.8-13
			C94.8,18.1,94.4,18.1,94.4,18.4z"/>
		<path class="st1" d="M96.3,18.5c-0.4,4.2,2.4,9,5.8,11.4c0.3,0.2,0.8-0.2,0.5-0.5c-1.6-1.5-3-2.9-4-4.8s-1.3-3.9-1.8-6
			C96.7,18.2,96.3,18.2,96.3,18.5z"/>
		<path class="st1" d="M98.2,18.6c-0.1,3.8,1.8,8.5,5.4,10.2c0.3,0.1,0.5-0.3,0.3-0.5c-3-2.7-5.2-5.4-5.2-9.6
			C98.7,18.3,98.3,18.3,98.2,18.6z"/>
		<path class="st1" d="M99.8,18.5c0.2,3.2,1.8,7.1,4.6,8.8c0.3,0.2,0.6-0.2,0.4-0.4c-1.1-1.3-2.2-2.3-3-3.8c-0.8-1.4-1.2-3-1.5-4.6
			C100.2,18.1,99.8,18.2,99.8,18.5z"/>
		<path class="st1" d="M102.1,19.5c-0.2,2,1.1,4.6,2.9,5.6c0.3,0.2,0.7-0.2,0.4-0.5c-0.7-0.7-1.4-1.4-1.9-2.3s-0.7-1.9-0.9-2.8
			C102.5,19.2,102.1,19.2,102.1,19.5z"/>
		<path class="st1" d="M104,19.7c-0.4,1.3,0.8,3.1,1.9,3.7c0.2,0.1,0.6-0.2,0.4-0.4c-0.5-0.5-0.9-1-1.2-1.6
			c-0.3-0.6-0.3-1.2-0.6-1.8C104.4,19.5,104.1,19.5,104,19.7z"/>
		<path class="st1" d="M105.5,19.9c0,0.7,0.5,1.6,1.2,1.8c0.2,0,0.3-0.2,0.2-0.4c-0.2-0.2-0.4-0.4-0.6-0.6c-0.2-0.3-0.3-0.5-0.4-0.8
			C106,19.6,105.5,19.6,105.5,19.9z"/>
		<path class="st1" d="M106.9,20.7c0.9-0.5,1.8-1.1,2.8-1.5c0.6-0.3,0.2-1.2-0.5-1c-1,0.4-2,0.9-2.9,1.6
			C105.9,20.1,106.4,21,106.9,20.7z"/>
		<path class="st1" d="M112.9,18.6c-0.3,1.1-1.4,1.7-2.5,1.4c-1.1-0.3-1.7-1.4-1.4-2.5c0.3-1.1,1.4-1.7,2.5-1.4
			C112.5,16.4,113.2,17.5,112.9,18.6z"/>
	</g>
</g>
</svg>
